<svg id="Default" xmlns="http://www.w3.org/2000/svg" viewBox="0 0 264.16 261.29"><defs><style>.cls-1,.cls-2,.cls-3{fill:none;stroke:#000;stroke-miterlimit:10;}.cls-2{stroke-width:0.25px;}.cls-3{stroke-width:0.5px;}.cls-4{font-size:8px;font-family:Roboto-Light, Roboto;font-weight:300;}.cls-5{letter-spacing:-0.02em;}.cls-6{letter-spacing:-0.01em;}</style></defs><polyline class="cls-1" points="14.99 253.58 53.4 133.55 91.84 54.23 130.25 27.59 168.66 17.56 207.1 16.45 245.51 15.66"/><path class="cls-2" d="M3.09,253.2H0c1-1.51,1.9-3,2.85-4.52a1.57,1.57,0,0,0-.71-2.25,1.54,1.54,0,0,0-2.14,1"/><line class="cls-2" x1="4.61" y1="252.83" x2="4.61" y2="253.2"/><path class="cls-2" d="M9.22,250.11H7.7a1.52,1.52,0,0,1-1.55-1.51v-.79a1.54,1.54,0,0,1,3.07,0v2.3a3.2,3.2,0,0,1-2.31,3.09"/><polyline class="cls-2" points="12.31 246.29 10.76 251.66 14.61 251.66"/><line class="cls-2" x1="13.45" y1="250.11" x2="13.45" y2="253.2"/><line class="cls-2" x1="21.52" y1="248.6" x2="21.52" y2="253.2"/><path class="cls-2" d="M19.22,253.2v-4.6h3.44a1.15,1.15,0,0,1,1.17,1.13v3.47"/><line class="cls-2" x1="27.68" y1="248.6" x2="27.68" y2="253.2"/><path class="cls-2" d="M25.37,253.2v-4.6h3.45A1.14,1.14,0,0,1,30,249.73v3.47"/><path class="cls-2" d="M38.82,129.32h1.52a1.55,1.55,0,0,1,1.54,1.55v.76a1.53,1.53,0,1,1-3.06,0v-2.31a3.19,3.19,0,0,1,2.3-3.06"/><line class="cls-2" x1="43.43" y1="132.79" x2="43.43" y2="133.17"/><path class="cls-2" d="M45.84,126.61a5.93,5.93,0,0,0,0,6.21.76.76,0,0,0,1.3,0,5.85,5.85,0,0,0,0-6.21A.78.78,0,0,0,45.84,126.61Z"/><polyline class="cls-2" points="49.55 127.02 49.55 126.26 52.64 126.26 51.1 133.17"/><line class="cls-2" x1="59.56" y1="128.56" x2="59.56" y2="133.17"/><path class="cls-2" d="M57.25,133.17v-4.61h3.47a1.16,1.16,0,0,1,1.14,1.17v3.44"/><line class="cls-2" x1="65.71" y1="128.56" x2="65.71" y2="133.17"/><path class="cls-2" d="M63.4,133.17v-4.61h3.45A1.16,1.16,0,0,1,68,129.73v3.44"/><path class="cls-2" d="M79.53,50a1.54,1.54,0,0,1,1.55,1.51v.79a1.55,1.55,0,0,1-3.09,0v-.79A1.53,1.53,0,0,1,79.53,50,1.55,1.55,0,1,0,78,48.46,1.57,1.57,0,0,0,79.53,50Z"/><line class="cls-2" x1="82.6" y1="53.45" x2="82.6" y2="53.83"/><polyline class="cls-2" points="84.14 48.46 85.69 46.91 85.69 53.83"/><path class="cls-2" d="M87.21,46.91h1.54a1.55,1.55,0,0,1,0,3.1H88"/><path class="cls-2" d="M88.75,50a1.54,1.54,0,0,1,1.55,1.51v.79a1.55,1.55,0,0,1-1.55,1.52H87.21"/><line class="cls-2" x1="97.21" y1="49.22" x2="97.21" y2="53.83"/><path class="cls-2" d="M94.9,53.83V49.22h3.45a1.15,1.15,0,0,1,1.16,1.16v3.45"/><line class="cls-2" x1="103.36" y1="49.22" x2="103.36" y2="53.83"/><path class="cls-2" d="M101.06,53.83V49.22h3.44a1.16,1.16,0,0,1,1.17,1.16v3.45"/><path class="cls-2" d="M117.19,23.36a1.55,1.55,0,0,1,1.54,1.54v.76a1.55,1.55,0,1,1-3.09,0V24.9a1.56,1.56,0,0,1,1.55-1.54,1.53,1.53,0,1,0-1.55-1.52A1.54,1.54,0,0,0,117.19,23.36Z"/><line class="cls-2" x1="120.25" y1="26.83" x2="120.25" y2="27.21"/><path class="cls-2" d="M123.34,23.36a1.54,1.54,0,0,1,1.52,1.54v.76a1.54,1.54,0,1,1-3.07,0V24.9a1.54,1.54,0,0,1,1.55-1.54,1.53,1.53,0,1,0-1.55-1.52A1.52,1.52,0,0,0,123.34,23.36Z"/><path class="cls-2" d="M129.49,27.21H126.4c.95-1.49,1.9-3,2.85-4.53a1.57,1.57,0,1,0-2.85-1.22"/><line class="cls-2" x1="136.41" y1="22.6" x2="136.41" y2="27.21"/><path class="cls-2" d="M134.1,27.21V22.6h3.44a1.15,1.15,0,0,1,1.17,1.16v3.45"/><line class="cls-2" x1="142.53" y1="22.6" x2="142.53" y2="27.21"/><path class="cls-2" d="M140.23,27.21V22.6h3.47a1.15,1.15,0,0,1,1.14,1.16v3.45"/><path class="cls-2" d="M157.14,14.09H155.6a1.53,1.53,0,0,1-1.52-1.55v-.76a1.53,1.53,0,1,1,3.06,0v2.31a3.18,3.18,0,0,1-2.3,3.06"/><line class="cls-2" x1="158.69" y1="16.77" x2="158.69" y2="17.15"/><ellipse class="cls-2" cx="161.75" cy="13.71" rx="1.3" ry="3.57"/><path class="cls-2" d="M167.91,14.09h-1.55a1.55,1.55,0,0,1-1.55-1.55v-.76a1.55,1.55,0,0,1,3.1,0v2.31a3.17,3.17,0,0,1-2.31,3.06"/><line class="cls-2" x1="174.82" y1="12.54" x2="174.82" y2="17.15"/><path class="cls-2" d="M172.51,17.15V12.54H176a1.16,1.16,0,0,1,1.16,1.17v3.44"/><line class="cls-2" x1="180.97" y1="12.54" x2="180.97" y2="17.15"/><path class="cls-2" d="M178.67,17.15V12.54h3.44a1.17,1.17,0,0,1,1.17,1.17v3.44"/><path class="cls-2" d="M197.1,13h-1.54A1.53,1.53,0,0,1,194,11.46V10.7a1.53,1.53,0,1,1,3.06,0V13a3.23,3.23,0,0,1-2.3,3.07"/><line class="cls-2" x1="198.65" y1="15.69" x2="198.65" y2="16.07"/><polyline class="cls-2" points="200.16 10.7 201.71 9.15 201.71 16.07"/><polyline class="cls-2" points="203.25 10.7 204.77 9.15 204.77 16.07"/><line class="cls-2" x1="211.71" y1="11.46" x2="211.71" y2="16.07"/><path class="cls-2" d="M209.41,16.07V11.46h3.44A1.16,1.16,0,0,1,214,12.62v3.45"/><line class="cls-2" x1="217.84" y1="11.46" x2="217.84" y2="16.07"/><path class="cls-2" d="M215.53,16.07V11.46H219a1.14,1.14,0,0,1,1.14,1.16v3.45"/><path class="cls-2" d="M234.75,12.22h-1.54a1.55,1.55,0,0,1-1.52-1.55V9.91a1.53,1.53,0,1,1,3.06,0v2.31a3.19,3.19,0,0,1-2.3,3.06"/><line class="cls-2" x1="236.3" y1="14.9" x2="236.3" y2="15.28"/><polyline class="cls-2" points="237.82 9.91 239.36 8.37 239.36 15.28"/><path class="cls-2" d="M240.91,8.37h1.51A1.53,1.53,0,0,1,244,9.91a1.55,1.55,0,0,1-1.55,1.55h-.75"/><path class="cls-2" d="M242.42,11.46A1.53,1.53,0,0,1,244,13v.78a1.53,1.53,0,0,1-1.55,1.52h-1.51"/><line class="cls-2" x1="250.88" y1="10.67" x2="250.88" y2="15.28"/><path class="cls-2" d="M248.58,15.28V10.67h3.47a1.16,1.16,0,0,1,1.14,1.17v3.44"/><line class="cls-2" x1="257.04" y1="10.67" x2="257.04" y2="15.28"/><path class="cls-2" d="M254.73,15.28V10.67h3.47a1.16,1.16,0,0,1,1.14,1.17v3.44"/><polyline class="cls-3" points="14.99 2.63 14.99 253.58 261.53 253.58"/><polygon points="18.03 3.04 11.95 3.04 14.99 0 18.03 3.04"/><polygon points="261.12 250.55 261.12 256.62 264.16 253.58 261.12 250.55"/><text class="cls-4" transform="translate(229.69 261.29)">Ite<tspan class="cls-5" x="8.83" y="0">r</tspan><tspan x="11.37" y="0">ation</tspan></text><text class="cls-4" transform="translate(10.76 46.91) rotate(-90)">Ma<tspan class="cls-6" x="11.21" y="0">r</tspan><tspan x="13.82" y="0">gin(mm)</tspan></text></svg>