<svg id="Default" xmlns="http://www.w3.org/2000/svg" viewBox="0 0 354.79 815.93"><defs><style>.cls-1{opacity:0.05;}.cls-2,.cls-4,.cls-5,.cls-6,.cls-7,.cls-8{fill:none;}.cls-2,.cls-3,.cls-4,.cls-5,.cls-6,.cls-7,.cls-8{stroke:#000;stroke-miterlimit:10;}.cls-3{fill:#bfbfbf;opacity:0.2;}.cls-3,.cls-5{stroke-width:0.25px;}.cls-4{stroke-width:0.1px;}.cls-6,.cls-7,.cls-8{stroke-width:0.5px;}.cls-7{stroke-dasharray:3.01 3.01;}.cls-8{stroke-dasharray:3 3;}.cls-9{font-size:8px;font-family:Roboto-Light, Roboto;font-weight:300;}.cls-10{letter-spacing:-0.01em;}</style></defs><rect class="cls-1" x="175.81" y="18.58" width="75.21" height="90.22"/><rect class="cls-1" x="213.43" y="131.38" width="75.18" height="90.22"/><rect class="cls-1" x="251.02" y="244.17" width="75.21" height="90.22"/><rect class="cls-1" x="138.22" y="356.97" width="75.21" height="90.22"/><rect class="cls-1" x="213.43" y="469.77" width="75.18" height="90.22"/><rect class="cls-1" x="213.43" y="582.57" width="75.18" height="90.22"/><polygon class="cls-2" points="12.85 651.23 17.66 612 55.14 583.76 76.22 603.78 52.58 623.55 96.96 629 98.24 658.81 31.86 671.58 12.85 651.23"/><path class="cls-3" d="M63.45,598.59A9.32,9.32,0,0,0,57,590.31a9.42,9.42,0,0,0-3.46-.44A9.35,9.35,0,0,0,47.16,593a9.55,9.55,0,0,0-1.88,3.29,9.28,9.28,0,0,0,.43,6.84,9.15,9.15,0,0,0,2.27,3,9.4,9.4,0,0,0,6.74,2.32,9.49,9.49,0,0,0,3.39-.87,9.38,9.38,0,0,0,4.9-5.55A9.48,9.48,0,0,0,63.45,598.59Z"/><line class="cls-3" x1="44.84" y1="599.75" x2="63.45" y2="598.59"/><line class="cls-3" x1="54.72" y1="608.48" x2="53.57" y2="589.87"/><path class="cls-3" d="M37.78,650.22a9.43,9.43,0,0,0-.87-3.38,9.15,9.15,0,0,0-2.27-3,9.24,9.24,0,0,0-3.28-1.87,9.07,9.07,0,0,0-3.47-.44,9.33,9.33,0,0,0-8.28,6.41,9.48,9.48,0,0,0-.44,3.47,9.32,9.32,0,0,0,3.14,6.4,9.12,9.12,0,0,0,3.28,1.88,9.45,9.45,0,0,0,3.46.44A9.35,9.35,0,0,0,35.46,657a9.33,9.33,0,0,0,2.32-6.75Z"/><line class="cls-3" x1="19.17" y1="651.38" x2="37.78" y2="650.22"/><line class="cls-3" x1="29.05" y1="660.1" x2="27.89" y2="641.5"/><path class="cls-3" d="M95.32,646.64a9.22,9.22,0,0,0-.86-3.38,9.43,9.43,0,0,0-2.27-3,9.33,9.33,0,0,0-3.28-1.87,9.09,9.09,0,0,0-3.47-.44,9.29,9.29,0,0,0-8.28,6.41,9.07,9.07,0,0,0-.44,3.47,9.22,9.22,0,0,0,.86,3.38,9.5,9.5,0,0,0,2.27,3,9.33,9.33,0,0,0,3.28,1.87,9.48,9.48,0,0,0,3.47.44,9.23,9.23,0,0,0,3.38-.87,9.47,9.47,0,0,0,3-2.26,9.37,9.37,0,0,0,2.31-6.75Z"/><line class="cls-3" x1="76.72" y1="647.8" x2="95.32" y2="646.64"/><line class="cls-3" x1="86.6" y1="656.52" x2="85.44" y2="637.92"/><polygon class="cls-4" points="54.15 599.17 28.47 650.8 86.02 647.22 54.15 599.17"/><path class="cls-3" d="M63.51,598.59A9.32,9.32,0,1,0,48,606.13a9.36,9.36,0,0,0,6.75,2.33,9.3,9.3,0,0,0,6.41-3.13,9.07,9.07,0,0,0,1.88-3.27A9.3,9.3,0,0,0,63.51,598.59Z"/><line class="cls-3" x1="44.9" y1="599.72" x2="63.51" y2="598.59"/><line class="cls-3" x1="54.77" y1="608.46" x2="53.64" y2="589.85"/><path class="cls-3" d="M37.75,650.17a9.42,9.42,0,0,0-.86-3.38,9.37,9.37,0,0,0-5.54-4.91,9.32,9.32,0,0,0-9.88,2.67,9.2,9.2,0,0,0-1.88,3.28,9.32,9.32,0,0,0,2.67,9.88,9.32,9.32,0,0,0,10.13,1.47,9.36,9.36,0,0,0,3-2.26,9.51,9.51,0,0,0,1.88-3.28A9.27,9.27,0,0,0,37.75,650.17Z"/><line class="cls-3" x1="19.14" y1="651.3" x2="37.75" y2="650.17"/><line class="cls-3" x1="29.01" y1="660.04" x2="27.88" y2="641.43"/><path class="cls-3" d="M95.3,646.69a9.36,9.36,0,1,0-.45,3.47A9.22,9.22,0,0,0,95.3,646.69Z"/><line class="cls-3" x1="76.69" y1="647.82" x2="95.3" y2="646.69"/><line class="cls-3" x1="86.56" y1="656.56" x2="85.43" y2="637.95"/><polygon class="cls-4" points="54.2 599.15 28.44 650.74 86 647.25 54.2 599.15"/><path class="cls-3" d="M63.58,598.6a9.31,9.31,0,0,0-13.24-7.9,9.37,9.37,0,0,0-3,2.25,9.51,9.51,0,0,0-1.88,3.28,9.31,9.31,0,0,0,9.4,12.22,9.35,9.35,0,0,0,8.76-9.85Z"/><line class="cls-3" x1="44.97" y1="599.69" x2="63.58" y2="598.6"/><line class="cls-3" x1="54.82" y1="608.45" x2="53.72" y2="589.84"/><path class="cls-3" d="M37.73,650.14a9.32,9.32,0,0,0-.86-3.39,9.3,9.3,0,0,0-9-5.37,9.41,9.41,0,0,0-3.39.85,9.32,9.32,0,0,0-5.37,9,9.26,9.26,0,0,0,3.11,6.42,9.3,9.3,0,0,0,15-4A9.44,9.44,0,0,0,37.73,650.14Z"/><line class="cls-3" x1="19.12" y1="651.23" x2="37.73" y2="650.14"/><line class="cls-3" x1="28.97" y1="659.99" x2="27.88" y2="641.38"/><path class="cls-3" d="M95.28,646.76a9.46,9.46,0,0,0-.85-3.39,9.35,9.35,0,0,0-5.54-4.92,9.2,9.2,0,0,0-3.46-.45A9.32,9.32,0,0,0,79,641.11a9.32,9.32,0,0,0,10.9,14.64,9.09,9.09,0,0,0,3-2.25,9.38,9.38,0,0,0,1.89-3.28A9.25,9.25,0,0,0,95.28,646.76Z"/><line class="cls-3" x1="76.67" y1="647.85" x2="95.28" y2="646.76"/><line class="cls-3" x1="86.53" y1="656.61" x2="85.43" y2="638"/><polygon class="cls-4" points="54.27 599.15 28.42 650.68 85.98 647.3 54.27 599.15"/><path class="cls-3" d="M63.68,598.69a9.34,9.34,0,1,0-.46,3.47A9.21,9.21,0,0,0,63.68,598.69Z"/><line class="cls-3" x1="45.07" y1="599.76" x2="63.68" y2="598.69"/><line class="cls-3" x1="54.91" y1="608.53" x2="53.84" y2="589.92"/><path class="cls-3" d="M37.74,650.19a9.06,9.06,0,0,0-.85-3.39,9.23,9.23,0,0,0-2.25-3,9.33,9.33,0,0,0-13.16.75,9.37,9.37,0,0,0-2.35,6.74,9.51,9.51,0,0,0,.85,3.39,9.33,9.33,0,0,0,2.25,3,9.52,9.52,0,0,0,3.27,1.9A9.27,9.27,0,0,0,29,660a9.11,9.11,0,0,0,3.39-.85,9.33,9.33,0,0,0,5.38-9Z"/><line class="cls-3" x1="19.13" y1="651.25" x2="37.74" y2="650.19"/><line class="cls-3" x1="28.97" y1="660.02" x2="27.91" y2="641.41"/><path class="cls-3" d="M95.3,646.9a9.19,9.19,0,0,0-.84-3.38,9.4,9.4,0,0,0-2.26-3,9.33,9.33,0,0,0-13.16.75,9.31,9.31,0,0,0-1.5,10.12,9.26,9.26,0,0,0,2.26,3,9.33,9.33,0,0,0,6.73,2.35,9.51,9.51,0,0,0,3.39-.85,9.34,9.34,0,0,0,3-2.25,9.49,9.49,0,0,0,1.89-3.27A9.27,9.27,0,0,0,95.3,646.9Z"/><line class="cls-3" x1="76.69" y1="647.96" x2="95.3" y2="646.9"/><line class="cls-3" x1="86.53" y1="656.74" x2="85.47" y2="638.13"/><polygon class="cls-4" points="54.37 599.23 28.44 650.72 86 647.43 54.37 599.23"/><path class="cls-3" d="M63.78,598.79a9.32,9.32,0,0,0-16.25-5.7A9.32,9.32,0,0,0,55,608.61a9.31,9.31,0,0,0,8.79-9.82Z"/><line class="cls-3" x1="45.17" y1="599.82" x2="63.78" y2="598.79"/><line class="cls-3" x1="54.99" y1="608.61" x2="53.96" y2="590"/><path class="cls-3" d="M37.76,650.24a9.33,9.33,0,0,0-6.36-8.33,9.23,9.23,0,0,0-6.85.38,9.3,9.3,0,0,0-4.94,5.51,9.29,9.29,0,0,0,5.89,11.79A9.35,9.35,0,0,0,35.4,657a9.4,9.4,0,0,0,1.89-3.27A9.26,9.26,0,0,0,37.76,650.24Z"/><line class="cls-3" x1="19.14" y1="651.27" x2="37.76" y2="650.24"/><line class="cls-3" x1="28.97" y1="660.06" x2="27.94" y2="641.44"/><path class="cls-3" d="M95.33,647.05a9.31,9.31,0,0,0-9.83-8.79,9.29,9.29,0,0,0-3.39.84,9.29,9.29,0,0,0-4.93,5.52,9.32,9.32,0,0,0,17.68,5.89A9.44,9.44,0,0,0,95.33,647.05Z"/><line class="cls-3" x1="76.71" y1="648.08" x2="95.33" y2="647.05"/><line class="cls-3" x1="86.53" y1="656.87" x2="85.5" y2="638.26"/><polygon class="cls-4" points="54.48 599.3 28.45 650.75 86.02 647.57 54.48 599.3"/><path class="cls-3" d="M63.89,598.88a9.5,9.5,0,0,0-.84-3.39,9.3,9.3,0,0,0-5.51-4.94,9,9,0,0,0-3.46-.47,9.28,9.28,0,0,0-3.39.83,9.32,9.32,0,0,0-5.42,9,9.3,9.3,0,0,0,6.35,8.34,9.41,9.41,0,0,0,3.46.47,9.36,9.36,0,0,0,8.81-9.81Z"/><line class="cls-3" x1="45.27" y1="599.88" x2="63.89" y2="598.88"/><line class="cls-3" x1="55.08" y1="608.69" x2="54.08" y2="590.08"/><path class="cls-3" d="M37.77,650.29a9.38,9.38,0,0,0-3.08-6.44,9.32,9.32,0,0,0-3.26-1.9,9.09,9.09,0,0,0-3.47-.47,9.28,9.28,0,0,0-3.39.83,9.48,9.48,0,0,0-3,2.25,9.23,9.23,0,0,0-1.9,3.26,9.06,9.06,0,0,0-.47,3.46,9.28,9.28,0,0,0,.83,3.4,9.45,9.45,0,0,0,2.24,3,9.27,9.27,0,0,0,3.27,1.9,9.06,9.06,0,0,0,3.46.47,9.18,9.18,0,0,0,3.39-.83,9.41,9.41,0,0,0,3-2.25,9.14,9.14,0,0,0,1.9-3.26A9.47,9.47,0,0,0,37.77,650.29Z"/><line class="cls-3" x1="19.16" y1="651.28" x2="37.77" y2="650.29"/><line class="cls-3" x1="28.96" y1="660.09" x2="27.96" y2="641.48"/><path class="cls-3" d="M95.34,647.2A9.32,9.32,0,0,0,89,638.86a9.3,9.3,0,0,0-6.85.37,9.27,9.27,0,0,0-5,5.51,9.41,9.41,0,0,0-.47,3.46,9.33,9.33,0,0,0,3.08,6.43,9.3,9.3,0,0,0,10.12,1.54,9.3,9.3,0,0,0,4.94-5.51A9,9,0,0,0,95.34,647.2Z"/><line class="cls-3" x1="76.73" y1="648.2" x2="95.34" y2="647.2"/><line class="cls-3" x1="86.54" y1="657.01" x2="85.54" y2="638.39"/><polygon class="cls-4" points="54.58 599.38 28.46 650.78 86.04 647.7 54.58 599.38"/><polygon class="cls-2" points="12.85 764.02 17.66 724.79 55.14 696.55 76.22 716.58 52.58 736.35 96.96 741.8 98.24 771.6 31.86 784.38 12.85 764.02"/><path class="cls-3" d="M63.45,711.39A9.41,9.41,0,0,0,60.32,705,9.37,9.37,0,0,0,57,703.11a9,9,0,0,0-3.46-.44,9.24,9.24,0,0,0-6.41,3.13A9.33,9.33,0,0,0,48,719a9.36,9.36,0,0,0,10.13,1.45,9.5,9.5,0,0,0,3-2.27A9.35,9.35,0,0,0,63,714.86,9.5,9.5,0,0,0,63.45,711.39Z"/><line class="cls-3" x1="44.84" y1="712.55" x2="63.45" y2="711.39"/><line class="cls-3" x1="54.72" y1="721.27" x2="53.57" y2="702.67"/><path class="cls-3" d="M37.78,763a9.49,9.49,0,0,0-.87-3.39,9.38,9.38,0,0,0-5.55-4.9,9.48,9.48,0,0,0-3.47-.44,9.36,9.36,0,0,0-6.4,3.13,9.33,9.33,0,0,0-2.32,6.75,9.31,9.31,0,0,0,3.14,6.41A9.3,9.3,0,0,0,32.44,772a9.21,9.21,0,0,0,3-2.27A9.28,9.28,0,0,0,37.78,763Z"/><line class="cls-3" x1="19.17" y1="764.17" x2="37.78" y2="763.02"/><line class="cls-3" x1="29.05" y1="772.9" x2="27.89" y2="754.29"/><path class="cls-3" d="M95.32,759.44a9.27,9.27,0,0,0-.86-3.39,9.5,9.5,0,0,0-2.27-3,9.35,9.35,0,0,0-3.28-1.88,9.5,9.5,0,0,0-3.47-.44,9.32,9.32,0,0,0-8.28,6.42,9,9,0,0,0-.44,3.46A9.24,9.24,0,0,0,79.85,767,9.29,9.29,0,0,0,90,768.45a9.36,9.36,0,0,0,3-2.27,9.33,9.33,0,0,0,2.31-6.74Z"/><line class="cls-3" x1="76.72" y1="760.59" x2="95.32" y2="759.44"/><line class="cls-3" x1="86.6" y1="769.32" x2="85.44" y2="750.71"/><polygon class="cls-4" points="54.15 711.97 28.47 763.59 86.02 760.01 54.15 711.97"/><path class="cls-3" d="M63.51,711.39a9.27,9.27,0,0,0-.86-3.39,9.29,9.29,0,0,0-9-5.35,9.34,9.34,0,0,0-6.41,3.12,9.12,9.12,0,0,0-1.88,3.28,9.3,9.3,0,0,0,.41,6.85,9.3,9.3,0,0,0,5.54,4.91,9.35,9.35,0,0,0,9.88-2.68,9.12,9.12,0,0,0,1.88-3.28A9.22,9.22,0,0,0,63.51,711.39Z"/><line class="cls-3" x1="44.9" y1="712.51" x2="63.51" y2="711.39"/><line class="cls-3" x1="54.77" y1="721.25" x2="53.64" y2="702.65"/><path class="cls-3" d="M37.75,763a9.53,9.53,0,0,0-.86-3.39,9.37,9.37,0,0,0-5.54-4.91,9.5,9.5,0,0,0-3.47-.44,9.34,9.34,0,0,0-6.41,3.12,9.12,9.12,0,0,0-1.88,3.28,9.3,9.3,0,0,0,.41,6.85A9.29,9.29,0,0,0,32.39,772a9.09,9.09,0,0,0,3-2.26,9.42,9.42,0,0,0,1.88-3.28A9.22,9.22,0,0,0,37.75,763Z"/><line class="cls-3" x1="19.14" y1="764.09" x2="37.75" y2="762.97"/><line class="cls-3" x1="29.01" y1="772.84" x2="27.88" y2="754.23"/><path class="cls-3" d="M95.3,759.49a9.27,9.27,0,0,0-.86-3.39,9.29,9.29,0,0,0-9-5.35A9.34,9.34,0,0,0,79,753.87a9.12,9.12,0,0,0-1.88,3.28,9.3,9.3,0,0,0,.41,6.85,9.3,9.3,0,0,0,5.54,4.91A9.35,9.35,0,0,0,93,766.23,9.12,9.12,0,0,0,94.85,763,9.22,9.22,0,0,0,95.3,759.49Z"/><line class="cls-3" x1="76.69" y1="760.61" x2="95.3" y2="759.49"/><line class="cls-3" x1="86.56" y1="769.35" x2="85.43" y2="750.75"/><polygon class="cls-4" points="54.2 711.95 28.44 763.53 86 760.05 54.2 711.95"/><path class="cls-3" d="M63.58,711.4a9.32,9.32,0,0,0-9.86-8.76,9.29,9.29,0,0,0-8.3,6.39,9.37,9.37,0,0,0,.4,6.85,9.47,9.47,0,0,0,2.26,3,9.25,9.25,0,0,0,3.27,1.89,9.48,9.48,0,0,0,3.47.45,9.43,9.43,0,0,0,6.42-3.11,9.42,9.42,0,0,0,2.34-6.74Z"/><line class="cls-3" x1="44.97" y1="712.49" x2="63.58" y2="711.4"/><line class="cls-3" x1="54.82" y1="721.25" x2="53.72" y2="702.64"/><path class="cls-3" d="M37.73,762.93a9.22,9.22,0,0,0-.86-3.38,9.12,9.12,0,0,0-2.26-3A9.31,9.31,0,0,0,19.12,764a9.3,9.3,0,0,0,6.38,8.3,9.52,9.52,0,0,0,3.47.46,9.32,9.32,0,0,0,8.3-6.39A9.49,9.49,0,0,0,37.73,762.93Z"/><line class="cls-3" x1="19.12" y1="764.03" x2="37.73" y2="762.93"/><line class="cls-3" x1="28.97" y1="772.79" x2="27.88" y2="754.18"/><path class="cls-3" d="M95.28,759.55a9.35,9.35,0,0,0-9.85-8.76A9.31,9.31,0,0,0,77.53,764a9.12,9.12,0,0,0,2.26,3,9.27,9.27,0,0,0,6.74,2.34,9.41,9.41,0,0,0,3.38-.85,9.31,9.31,0,0,0,5.37-9Z"/><line class="cls-3" x1="76.67" y1="760.65" x2="95.28" y2="759.55"/><line class="cls-3" x1="86.53" y1="769.4" x2="85.43" y2="750.79"/><polygon class="cls-4" points="54.27 711.94 28.42 763.48 85.98 760.1 54.27 711.94"/><path class="cls-3" d="M63.68,711.49a9.31,9.31,0,0,0-.85-3.39,9.34,9.34,0,0,0-12.37-4.54,9.4,9.4,0,0,0-3,2.26A9.33,9.33,0,0,0,48.17,719a9.33,9.33,0,0,0,13.16-.75,9.37,9.37,0,0,0,2.35-6.74Z"/><line class="cls-3" x1="45.07" y1="712.55" x2="63.68" y2="711.49"/><line class="cls-3" x1="54.91" y1="721.33" x2="53.84" y2="702.72"/><path class="cls-3" d="M37.74,763a9.11,9.11,0,0,0-.85-3.39,9.32,9.32,0,0,0-17.76,4.46,9.31,9.31,0,0,0,6.37,8.31,9.28,9.28,0,0,0,3.47.46,9.31,9.31,0,0,0,6.42-3.1A9.34,9.34,0,0,0,37.74,763Z"/><line class="cls-3" x1="19.13" y1="764.05" x2="37.74" y2="762.98"/><line class="cls-3" x1="28.97" y1="772.82" x2="27.91" y2="754.21"/><path class="cls-3" d="M95.3,759.7a9.35,9.35,0,0,0-6.37-8.32,9.32,9.32,0,0,0-9.13,15.81,9.31,9.31,0,0,0,3.27,1.89,9.33,9.33,0,0,0,11.78-5.92A9.22,9.22,0,0,0,95.3,759.7Z"/><line class="cls-3" x1="76.69" y1="760.76" x2="95.3" y2="759.7"/><line class="cls-3" x1="86.53" y1="769.54" x2="85.47" y2="750.92"/><polygon class="cls-4" points="54.37 712.02 28.44 763.51 86 760.23 54.37 712.02"/><path class="cls-3" d="M63.78,711.58a9.33,9.33,0,0,0-6.36-8.32,9.41,9.41,0,0,0-3.46-.47,9.4,9.4,0,0,0-6.43,3.09A9.31,9.31,0,0,0,48.26,719a9.27,9.27,0,0,0,3.27,1.9,9.44,9.44,0,0,0,3.46.47,9.31,9.31,0,0,0,8.79-9.83Z"/><line class="cls-3" x1="45.17" y1="712.61" x2="63.78" y2="711.58"/><line class="cls-3" x1="54.99" y1="721.41" x2="53.96" y2="702.79"/><path class="cls-3" d="M37.76,763a9.4,9.4,0,0,0-3.09-6.43,9.31,9.31,0,0,0-13.16.73,9.27,9.27,0,0,0-1.9,3.27,9.23,9.23,0,0,0,.38,6.85,9.31,9.31,0,0,0,17.3-1A9.21,9.21,0,0,0,37.76,763Z"/><line class="cls-3" x1="19.14" y1="764.06" x2="37.76" y2="763.03"/><line class="cls-3" x1="28.97" y1="772.85" x2="27.94" y2="754.24"/><path class="cls-3" d="M95.33,759.85a9.46,9.46,0,0,0-.85-3.39,9.31,9.31,0,0,0-17.3,1,9.21,9.21,0,0,0-.47,3.46,9.32,9.32,0,0,0,18.15,2.43A9.47,9.47,0,0,0,95.33,759.85Z"/><line class="cls-3" x1="76.71" y1="760.88" x2="95.33" y2="759.85"/><line class="cls-3" x1="86.53" y1="769.67" x2="85.5" y2="751.06"/><polygon class="cls-4" points="54.48 712.1 28.45 763.55 86.02 760.36 54.48 712.1"/><path class="cls-3" d="M63.89,711.68a9.33,9.33,0,0,0-9.81-8.81A9.38,9.38,0,0,0,47.64,706a9.35,9.35,0,0,0-2.37,6.73,9.33,9.33,0,0,0,3.08,6.43,9.31,9.31,0,0,0,13.16-.7,9.42,9.42,0,0,0,2.38-6.73Z"/><line class="cls-3" x1="45.27" y1="712.68" x2="63.89" y2="711.68"/><line class="cls-3" x1="55.08" y1="721.49" x2="54.08" y2="702.87"/><path class="cls-3" d="M37.77,763.08a9.33,9.33,0,0,0-3.08-6.43,9.31,9.31,0,0,0-13.16.7,9.27,9.27,0,0,0-1.9,3.27,9,9,0,0,0-.47,3.46,9.28,9.28,0,0,0,.83,3.39,9.32,9.32,0,0,0,9,5.42,9.3,9.3,0,0,0,8.34-6.35A9.41,9.41,0,0,0,37.77,763.08Z"/><line class="cls-3" x1="19.16" y1="764.08" x2="37.77" y2="763.08"/><line class="cls-3" x1="28.96" y1="772.89" x2="27.96" y2="754.27"/><path class="cls-3" d="M95.34,760a9.18,9.18,0,0,0-.83-3.39,9.38,9.38,0,0,0-2.24-3.05,9.35,9.35,0,0,0-6.73-2.37,9,9,0,0,0-3.39.84,9.29,9.29,0,0,0-5,5.5,9.47,9.47,0,0,0-.47,3.46,9.32,9.32,0,0,0,6.34,8.34,9.09,9.09,0,0,0,3.47.47,9.28,9.28,0,0,0,3.39-.83,9.48,9.48,0,0,0,3-2.25A9.31,9.31,0,0,0,95.34,760Z"/><line class="cls-3" x1="76.73" y1="760.99" x2="95.34" y2="760"/><line class="cls-3" x1="86.54" y1="769.8" x2="85.54" y2="751.19"/><polygon class="cls-4" points="54.58 712.18 28.46 763.58 86.04 760.5 54.58 712.18"/><polygon class="cls-2" points="12.85 538.43 17.66 499.2 55.14 470.96 76.22 490.99 52.58 510.76 96.96 516.21 98.24 546.01 31.86 558.78 12.85 538.43"/><path class="cls-3" d="M63.13,485.81a9.31,9.31,0,0,0-6.48-8.23,9.48,9.48,0,0,0-3.47-.41,9.34,9.34,0,0,0-6.38,3.19,9.13,9.13,0,0,0-1.85,3.3,9.46,9.46,0,0,0-.41,3.47,9.22,9.22,0,0,0,.9,3.37,9.37,9.37,0,0,0,2.29,3,9.43,9.43,0,0,0,6.77,2.26,9.29,9.29,0,0,0,8.22-6.49A9.07,9.07,0,0,0,63.13,485.81Z"/><line class="cls-3" x1="44.54" y1="487.13" x2="63.13" y2="485.81"/><line class="cls-3" x1="54.5" y1="495.77" x2="53.18" y2="477.17"/><path class="cls-3" d="M37.91,537.65a9.39,9.39,0,0,0-3.19-6.38,9.31,9.31,0,0,0-10.15-1.36,9.33,9.33,0,0,0-4.85,5.59,9.48,9.48,0,0,0-.41,3.47,9.33,9.33,0,0,0,6.49,8.23,9.46,9.46,0,0,0,3.47.41,9.22,9.22,0,0,0,3.37-.9,9.31,9.31,0,0,0,5.27-9.06Z"/><line class="cls-3" x1="19.31" y1="538.97" x2="37.91" y2="537.65"/><line class="cls-3" x1="29.27" y1="547.61" x2="27.95" y2="529.01"/><path class="cls-3" d="M95.42,533.58a9.33,9.33,0,0,0-6.49-8.23,9.46,9.46,0,0,0-3.47-.41,9.22,9.22,0,0,0-3.37.9A9.33,9.33,0,0,0,80,541.28a9.52,9.52,0,0,0,3.3,1.85,9.33,9.33,0,0,0,9.85-2.78,9.36,9.36,0,0,0,1.85-3.3A9.48,9.48,0,0,0,95.42,533.58Z"/><line class="cls-3" x1="76.82" y1="534.9" x2="95.42" y2="533.58"/><line class="cls-3" x1="86.78" y1="543.53" x2="85.46" y2="524.94"/><polygon class="cls-4" points="53.84 486.47 28.61 538.31 86.12 534.24 53.84 486.47"/><path class="cls-3" d="M63.29,485.8a9.45,9.45,0,0,0-.88-3.38,9.35,9.35,0,0,0-9-5.3A9.45,9.45,0,0,0,50,478a9.35,9.35,0,0,0-5.3,9,9.45,9.45,0,0,0,.88,3.38,9.24,9.24,0,0,0,2.28,3A9.33,9.33,0,0,0,61,492.56a9.29,9.29,0,0,0,2.28-6.76Z"/><line class="cls-3" x1="44.69" y1="487.04" x2="63.29" y2="485.8"/><line class="cls-3" x1="54.61" y1="495.72" x2="53.37" y2="477.12"/><path class="cls-3" d="M37.84,537.54a9.34,9.34,0,0,0-3.16-6.4,9.29,9.29,0,0,0-6.76-2.28,9.05,9.05,0,0,0-3.38.88,9.2,9.2,0,0,0-3,2.28,9.35,9.35,0,0,0-1.86,3.29,9.23,9.23,0,0,0-.43,3.46A9.31,9.31,0,0,0,25.69,547a9.3,9.3,0,0,0,6.85-.45A9.44,9.44,0,0,0,37.42,541,9.41,9.41,0,0,0,37.84,537.54Z"/><line class="cls-3" x1="19.24" y1="538.77" x2="37.84" y2="537.54"/><line class="cls-3" x1="29.16" y1="547.46" x2="27.92" y2="528.86"/><path class="cls-3" d="M95.37,533.71a9.45,9.45,0,0,0-.88-3.38,9.34,9.34,0,0,0-2.28-3,9.19,9.19,0,0,0-3.29-1.86,9.29,9.29,0,0,0-3.47-.43,9.45,9.45,0,0,0-3.38.88,9.24,9.24,0,0,0-3,2.28,9.37,9.37,0,0,0-1.87,3.29,9.37,9.37,0,0,0,.46,6.85,9.34,9.34,0,0,0,2.28,3,9.19,9.19,0,0,0,3.29,1.86,9.29,9.29,0,0,0,3.47.43,9.45,9.45,0,0,0,3.38-.88,9.35,9.35,0,0,0,5.3-9Z"/><line class="cls-3" x1="76.77" y1="534.95" x2="95.37" y2="533.71"/><line class="cls-3" x1="86.69" y1="543.63" x2="85.45" y2="525.03"/><polygon class="cls-4" points="53.99 486.42 28.54 538.16 86.07 534.33 53.99 486.42"/><path class="cls-3" d="M63.45,485.8a9.35,9.35,0,0,0-3.13-6.41A9.55,9.55,0,0,0,57,477.51a9.31,9.31,0,0,0-6.85.43,9.21,9.21,0,0,0-3,2.27,9.29,9.29,0,0,0-1.45,10.13,9.38,9.38,0,0,0,5.55,4.9,9.45,9.45,0,0,0,3.46.44A9.36,9.36,0,0,0,63,489.26,9.45,9.45,0,0,0,63.45,485.8Z"/><line class="cls-3" x1="44.84" y1="486.96" x2="63.45" y2="485.8"/><line class="cls-3" x1="54.72" y1="495.68" x2="53.57" y2="477.07"/><path class="cls-3" d="M37.78,537.42A9.36,9.36,0,0,0,34.64,531a9.24,9.24,0,0,0-3.28-1.87,9.48,9.48,0,0,0-3.47-.44,9.32,9.32,0,0,0-8.28,6.42,9.42,9.42,0,0,0-.44,3.46,9.32,9.32,0,0,0,6.42,8.28,9,9,0,0,0,3.46.44,9.24,9.24,0,0,0,6.41-3.13,9.29,9.29,0,0,0,2.32-6.75Z"/><line class="cls-3" x1="19.17" y1="538.58" x2="37.78" y2="537.42"/><line class="cls-3" x1="29.05" y1="547.3" x2="27.89" y2="528.7"/><path class="cls-3" d="M95.32,533.84a9.22,9.22,0,0,0-.86-3.38,9.65,9.65,0,0,0-2.27-3,9.33,9.33,0,0,0-3.28-1.87A9.32,9.32,0,0,0,79,528.25a9.28,9.28,0,0,0-1.87,3.29,9,9,0,0,0-.44,3.46,9.3,9.3,0,0,0,3.13,6.41,9.33,9.33,0,0,0,3.28,1.87,9.07,9.07,0,0,0,3.47.44,9.22,9.22,0,0,0,3.38-.86,9.36,9.36,0,0,0,3-2.27,9.34,9.34,0,0,0,2.31-6.75Z"/><line class="cls-3" x1="76.72" y1="535" x2="95.32" y2="533.84"/><line class="cls-3" x1="86.6" y1="543.72" x2="85.44" y2="525.12"/><polygon class="cls-4" points="54.15 486.38 28.47 538 86.02 534.42 54.15 486.38"/><path class="cls-3" d="M63.63,485.85a9.26,9.26,0,0,0-3.11-6.42,9.27,9.27,0,0,0-6.74-2.34,9,9,0,0,0-3.38.85,9.33,9.33,0,0,0-4.53,12.38,9.44,9.44,0,0,0,2.25,3,9.31,9.31,0,0,0,6.74,2.34,9.06,9.06,0,0,0,3.39-.85,9.19,9.19,0,0,0,3-2.25,9.37,9.37,0,0,0,2.35-6.74Z"/><line class="cls-3" x1="45.02" y1="486.93" x2="63.63" y2="485.85"/><line class="cls-3" x1="54.86" y1="495.69" x2="53.78" y2="477.09"/><path class="cls-3" d="M37.73,537.37a9.06,9.06,0,0,0-.85-3.39,9.35,9.35,0,0,0-9-5.38,9.26,9.26,0,0,0-6.42,3.11A9.25,9.25,0,0,0,19.58,535a9.46,9.46,0,0,0-.46,3.46,9.42,9.42,0,0,0,3.11,6.43,9.31,9.31,0,0,0,13.16-.77,9.26,9.26,0,0,0,2.34-6.73Z"/><line class="cls-3" x1="19.12" y1="538.44" x2="37.73" y2="537.37"/><line class="cls-3" x1="28.97" y1="547.21" x2="27.89" y2="528.6"/><path class="cls-3" d="M95.29,534a9,9,0,0,0-.85-3.38,9.29,9.29,0,0,0-9-5.38,9.11,9.11,0,0,0-3.39.85,9.3,9.3,0,0,0-4.92,5.53,9.44,9.44,0,0,0-.46,3.46,9.32,9.32,0,0,0,.86,3.39,9.19,9.19,0,0,0,2.25,3,9.31,9.31,0,0,0,15.5-7.5Z"/><line class="cls-3" x1="76.68" y1="535.11" x2="95.29" y2="534.03"/><line class="cls-3" x1="86.53" y1="543.88" x2="85.45" y2="525.27"/><polygon class="cls-4" points="54.32 486.39 28.43 537.9 85.99 534.57 54.32 486.39"/><path class="cls-3" d="M63.89,486.09a9.38,9.38,0,0,0-3.08-6.44,9.34,9.34,0,0,0-13.17.71,9.32,9.32,0,0,0,.71,13.16,9.27,9.27,0,0,0,3.27,1.9,9,9,0,0,0,3.46.47,9.28,9.28,0,0,0,3.39-.83,9.48,9.48,0,0,0,3-2.25,9.14,9.14,0,0,0,1.9-3.26A9.27,9.27,0,0,0,63.89,486.09Z"/><line class="cls-3" x1="45.27" y1="487.08" x2="63.89" y2="486.09"/><line class="cls-3" x1="55.08" y1="495.89" x2="54.08" y2="477.28"/><path class="cls-3" d="M37.77,537.49a9.36,9.36,0,0,0-6.34-8.34,9.32,9.32,0,0,0-6.86.37A9.3,9.3,0,0,0,19.63,535a9,9,0,0,0-.47,3.46,9.26,9.26,0,0,0,3.07,6.43,9.33,9.33,0,0,0,13.17-.7A9.27,9.27,0,0,0,37.3,541,9.44,9.44,0,0,0,37.77,537.49Z"/><line class="cls-3" x1="19.16" y1="538.49" x2="37.77" y2="537.49"/><line class="cls-3" x1="28.96" y1="547.3" x2="27.96" y2="528.68"/><path class="cls-3" d="M95.34,534.4a9.28,9.28,0,0,0-.83-3.39,9.45,9.45,0,0,0-2.24-3,9.27,9.27,0,0,0-3.27-1.9,9.06,9.06,0,0,0-3.46-.47,9.23,9.23,0,0,0-3.39.83,9.38,9.38,0,0,0-3.05,2.24,9.27,9.27,0,0,0-1.9,3.27,9.47,9.47,0,0,0-.47,3.46,9.32,9.32,0,0,0,6.34,8.34,9.5,9.5,0,0,0,3.47.47,9.32,9.32,0,0,0,8.33-6.34A9.09,9.09,0,0,0,95.34,534.4Z"/><line class="cls-3" x1="76.73" y1="535.4" x2="95.34" y2="534.4"/><line class="cls-3" x1="86.54" y1="544.21" x2="85.54" y2="525.6"/><polygon class="cls-4" points="54.58 486.59 28.46 537.99 86.04 534.9 54.58 486.59"/><path class="cls-3" d="M64.14,486.32a9.47,9.47,0,0,0-.82-3.39,9.36,9.36,0,0,0-2.23-3.05A9.19,9.19,0,0,0,57.83,478a9.43,9.43,0,0,0-3.46-.49,9.44,9.44,0,0,0-6.45,3A9.5,9.5,0,0,0,46,483.78a9.28,9.28,0,0,0-.49,3.46,9.47,9.47,0,0,0,.82,3.4,9.35,9.35,0,0,0,5.49,5,9.36,9.36,0,0,0,6.85-.34,9.3,9.3,0,0,0,5.46-8.95Z"/><line class="cls-3" x1="45.52" y1="487.24" x2="64.14" y2="486.32"/><line class="cls-3" x1="55.29" y1="496.09" x2="54.37" y2="477.47"/><path class="cls-3" d="M37.81,537.61a9.28,9.28,0,0,0-.83-3.39,9.19,9.19,0,0,0-2.22-3.05,9.37,9.37,0,0,0-3.26-1.92,9.49,9.49,0,0,0-3.46-.49,9.28,9.28,0,0,0-3.4.83,9.18,9.18,0,0,0-3.05,2.23,9.39,9.39,0,0,0-1.92,3.25,9.32,9.32,0,0,0,17.65,6A9.43,9.43,0,0,0,37.81,537.61Z"/><line class="cls-3" x1="19.19" y1="538.53" x2="37.81" y2="537.61"/><line class="cls-3" x1="28.96" y1="547.38" x2="28.04" y2="528.76"/><path class="cls-3" d="M95.39,534.78a9.33,9.33,0,0,0-6.31-8.37,9.43,9.43,0,0,0-3.46-.49,9.28,9.28,0,0,0-3.39.83,9.08,9.08,0,0,0-3,2.23,9.24,9.24,0,0,0-1.92,3.25,9.49,9.49,0,0,0-.49,3.46,9.28,9.28,0,0,0,.83,3.4,9.08,9.08,0,0,0,2.23,3,9.24,9.24,0,0,0,6.71,2.4,9.08,9.08,0,0,0,3.4-.82,9.31,9.31,0,0,0,5.45-8.94Z"/><line class="cls-3" x1="76.77" y1="535.69" x2="95.39" y2="534.78"/><line class="cls-3" x1="86.54" y1="544.54" x2="85.62" y2="525.92"/><polygon class="cls-4" points="54.83 486.78 28.5 538.07 86.08 535.24 54.83 486.78"/><polygon class="cls-2" points="12.85 425.63 17.66 386.41 55.14 358.16 76.22 378.19 52.58 397.96 96.96 403.41 98.24 433.21 31.86 445.99 12.85 425.63"/><path class="cls-3" d="M62.35,373.06a9.2,9.2,0,0,0-1-3.36,9.28,9.28,0,0,0-5.7-4.73,9.25,9.25,0,0,0-3.47-.34,9.3,9.3,0,0,0-8.09,6.67,9.23,9.23,0,0,0-.34,3.47,9.42,9.42,0,0,0,1,3.36,9.35,9.35,0,0,0,12.53,4.1,9.37,9.37,0,0,0,4.73-5.7A9.25,9.25,0,0,0,62.35,373.06Z"/><line class="cls-3" x1="43.79" y1="374.77" x2="62.35" y2="373.06"/><line class="cls-3" x1="53.93" y1="383.19" x2="52.22" y2="364.63"/><path class="cls-3" d="M38.24,425.43a9.23,9.23,0,0,0-3.32-6.31A9.27,9.27,0,0,0,28.1,417a9.15,9.15,0,0,0-3.35,1,9.42,9.42,0,0,0-3,2.36,9.38,9.38,0,0,0-2.11,6.81,9.42,9.42,0,0,0,1,3.36,9.28,9.28,0,0,0,2.36,3,9.31,9.31,0,0,0,15.23-8Z"/><line class="cls-3" x1="19.68" y1="427.14" x2="38.24" y2="425.43"/><line class="cls-3" x1="29.82" y1="435.57" x2="28.1" y2="417.01"/><path class="cls-3" d="M95.66,420.12A9.31,9.31,0,0,0,89,412a9.25,9.25,0,0,0-3.47-.34,9.28,9.28,0,0,0-8.09,6.66,9.32,9.32,0,0,0,3,9.79,9.41,9.41,0,0,0,3.33,1.78,9.33,9.33,0,0,0,11.57-6.33A9.52,9.52,0,0,0,95.66,420.12Z"/><line class="cls-3" x1="77.09" y1="421.84" x2="95.66" y2="420.12"/><line class="cls-3" x1="87.23" y1="430.26" x2="85.52" y2="411.7"/><polygon class="cls-4" points="53.07 373.91 28.96 426.29 86.37 420.98 53.07 373.91"/><path class="cls-3" d="M62.74,373a9.33,9.33,0,0,0-3.25-6.35,9.44,9.44,0,0,0-3.32-1.81,9.3,9.3,0,0,0-3.48-.37,9.33,9.33,0,0,0-8.15,6.57,9.29,9.29,0,0,0,2.88,9.82,9.38,9.38,0,0,0,6.79,2.19,9.29,9.29,0,0,0,6.35-3.26,9.36,9.36,0,0,0,1.81-3.32A9.25,9.25,0,0,0,62.74,373Z"/><line class="cls-3" x1="44.16" y1="374.55" x2="62.74" y2="373.03"/><line class="cls-3" x1="54.21" y1="383.08" x2="52.69" y2="364.5"/><path class="cls-3" d="M38.07,425.14a9.16,9.16,0,0,0-.93-3.36A9.29,9.29,0,0,0,28,416.61a9.16,9.16,0,0,0-3.36.93,9.27,9.27,0,0,0-3,2.33,9.42,9.42,0,0,0-1.82,3.31,9.53,9.53,0,0,0-.37,3.48,9.36,9.36,0,0,0,6.58,8.16,9.31,9.31,0,0,0,9.82-2.89,9.36,9.36,0,0,0,1.81-3.32A9.25,9.25,0,0,0,38.07,425.14Z"/><line class="cls-3" x1="19.49" y1="426.66" x2="38.07" y2="425.14"/><line class="cls-3" x1="29.54" y1="435.19" x2="28.02" y2="416.61"/><path class="cls-3" d="M95.54,420.45a9.17,9.17,0,0,0-.94-3.36,9.29,9.29,0,0,0-9.11-5.17,9.33,9.33,0,0,0-8.16,6.57A9.32,9.32,0,0,0,77,422a9.34,9.34,0,0,0,3.25,6.34,9.38,9.38,0,0,0,3.32,1.82,9.48,9.48,0,0,0,3.47.37,9.29,9.29,0,0,0,6.35-3.26,9.2,9.2,0,0,0,1.81-3.32A9.46,9.46,0,0,0,95.54,420.45Z"/><line class="cls-3" x1="76.96" y1="421.97" x2="95.54" y2="420.45"/><line class="cls-3" x1="87" y1="430.5" x2="85.49" y2="411.92"/><polygon class="cls-4" points="53.45 373.79 28.78 425.9 86.25 421.21 53.45 373.79"/><path class="cls-3" d="M63.13,373a9.21,9.21,0,0,0-.89-3.37,9.37,9.37,0,0,0-2.29-3,9.61,9.61,0,0,0-3.3-1.85,9.31,9.31,0,0,0-6.85.49A9.33,9.33,0,0,0,45,370.86a9.48,9.48,0,0,0-.41,3.47A9.33,9.33,0,0,0,51,382.56a9.46,9.46,0,0,0,3.47.41,9.22,9.22,0,0,0,3.37-.9,9.37,9.37,0,0,0,3-2.29,9.25,9.25,0,0,0,1.84-3.3A9.05,9.05,0,0,0,63.13,373Z"/><line class="cls-3" x1="44.54" y1="374.33" x2="63.13" y2="373.01"/><line class="cls-3" x1="54.5" y1="382.97" x2="53.18" y2="364.37"/><path class="cls-3" d="M37.91,424.86a9.42,9.42,0,0,0-.9-3.38,9.33,9.33,0,0,0-5.59-4.85,9.07,9.07,0,0,0-3.47-.41,9.33,9.33,0,0,0-8.23,6.49,9.43,9.43,0,0,0-.41,3.46,9.33,9.33,0,0,0,6.49,8.23,9.05,9.05,0,0,0,3.47.41,9.28,9.28,0,0,0,6.38-3.19,9.31,9.31,0,0,0,2.26-6.76Z"/><line class="cls-3" x1="19.31" y1="426.17" x2="37.91" y2="424.86"/><line class="cls-3" x1="29.27" y1="434.81" x2="27.95" y2="416.22"/><path class="cls-3" d="M95.42,420.78a9.22,9.22,0,0,0-.9-3.37,9.37,9.37,0,0,0-2.29-3,9.43,9.43,0,0,0-6.77-2.26,9.39,9.39,0,0,0-6.38,3.19,9.61,9.61,0,0,0-1.85,3.3,9.31,9.31,0,0,0,.49,6.85,9.33,9.33,0,0,0,5.59,4.85,9.48,9.48,0,0,0,3.47.41A9.33,9.33,0,0,0,95,424.25,9.46,9.46,0,0,0,95.42,420.78Z"/><line class="cls-3" x1="76.82" y1="422.1" x2="95.42" y2="420.78"/><line class="cls-3" x1="86.78" y1="430.74" x2="85.46" y2="412.14"/><polygon class="cls-4" points="53.84 373.67 28.61 425.51 86.12 421.44 53.84 373.67"/><path class="cls-3" d="M63.52,373a9.33,9.33,0,0,0-3.12-6.42,9.42,9.42,0,0,0-3.28-1.88,9.22,9.22,0,0,0-3.46-.45,9.35,9.35,0,0,0-8.3,6.4,9.48,9.48,0,0,0-.45,3.47,9.63,9.63,0,0,0,.86,3.38,9.36,9.36,0,0,0,2.26,3,9.34,9.34,0,0,0,15-4.07A9.42,9.42,0,0,0,63.52,373Z"/><line class="cls-3" x1="44.91" y1="374.12" x2="63.52" y2="373"/><line class="cls-3" x1="54.78" y1="382.86" x2="53.66" y2="364.25"/><path class="cls-3" d="M37.74,424.57a9.32,9.32,0,0,0-.86-3.39,9.3,9.3,0,0,0-5.54-4.91,9.25,9.25,0,0,0-3.46-.45,9.31,9.31,0,0,0-8.3,6.4,9.32,9.32,0,0,0,12.8,11.35,9.47,9.47,0,0,0,3-2.26A9.12,9.12,0,0,0,37.29,428,9.22,9.22,0,0,0,37.74,424.57Z"/><line class="cls-3" x1="19.13" y1="425.69" x2="37.74" y2="424.57"/><line class="cls-3" x1="28.99" y1="434.43" x2="27.88" y2="415.82"/><path class="cls-3" d="M95.29,421.11a9.22,9.22,0,0,0-.86-3.38,9.12,9.12,0,0,0-2.26-3,9.29,9.29,0,0,0-3.28-1.89,9.42,9.42,0,0,0-3.46-.44,9.32,9.32,0,0,0-3.39.86,9.19,9.19,0,0,0-3,2.26,9.35,9.35,0,0,0-2.33,6.74,9.63,9.63,0,0,0,.86,3.38,9.26,9.26,0,0,0,2.26,3,9.38,9.38,0,0,0,3.28,1.89,9.43,9.43,0,0,0,6.85-.41,9.15,9.15,0,0,0,3-2.27,9.25,9.25,0,0,0,1.89-3.27A9.48,9.48,0,0,0,95.29,421.11Z"/><line class="cls-3" x1="76.68" y1="422.23" x2="95.29" y2="421.11"/><line class="cls-3" x1="86.55" y1="430.97" x2="85.43" y2="412.37"/><polygon class="cls-4" points="54.22 373.56 28.44 425.13 85.99 421.67 54.22 373.56"/><path class="cls-3" d="M64.14,373.53a9.47,9.47,0,0,0-.82-3.4,9.36,9.36,0,0,0-2.23-3.05A9.33,9.33,0,0,0,51,365.5,9.27,9.27,0,0,0,46,371a9.22,9.22,0,0,0-.49,3.46,9.47,9.47,0,0,0,.82,3.39,9.35,9.35,0,0,0,5.49,5,9.46,9.46,0,0,0,3.46.49,9.4,9.4,0,0,0,6.45-3.06,9.24,9.24,0,0,0,2.4-6.71Z"/><line class="cls-3" x1="45.52" y1="374.45" x2="64.14" y2="373.53"/><line class="cls-3" x1="55.29" y1="383.3" x2="54.37" y2="364.68"/><path class="cls-3" d="M37.81,424.82a9.39,9.39,0,0,0-3.05-6.45,9.52,9.52,0,0,0-3.26-1.92,9.39,9.39,0,0,0-6.86.34A9.46,9.46,0,0,0,21.59,419a9.34,9.34,0,0,0-1.92,3.26,9.36,9.36,0,0,0,.34,6.85,9.36,9.36,0,0,0,2.23,3.05,9.19,9.19,0,0,0,3.26,1.92,9.43,9.43,0,0,0,3.46.49,9.28,9.28,0,0,0,3.39-.83,9.19,9.19,0,0,0,3-2.22,9.37,9.37,0,0,0,1.92-3.26A9.49,9.49,0,0,0,37.81,424.82Z"/><line class="cls-3" x1="19.19" y1="425.74" x2="37.81" y2="424.82"/><line class="cls-3" x1="28.96" y1="434.59" x2="28.04" y2="415.97"/><path class="cls-3" d="M95.39,422a9.31,9.31,0,0,0-9.77-8.85,9.47,9.47,0,0,0-3.39.82,9.36,9.36,0,0,0-3,2.23,9.19,9.19,0,0,0-1.92,3.26,9.43,9.43,0,0,0-.49,3.46,9.34,9.34,0,0,0,9.77,8.85,9.47,9.47,0,0,0,3.4-.82,9.35,9.35,0,0,0,5-5.49A9.24,9.24,0,0,0,95.39,422Z"/><line class="cls-3" x1="76.77" y1="422.9" x2="95.39" y2="421.98"/><line class="cls-3" x1="86.54" y1="431.75" x2="85.62" y2="413.13"/><polygon class="cls-4" points="54.83 373.99 28.5 425.28 86.08 422.44 54.83 373.99"/><path class="cls-3" d="M64.78,374.12a9.3,9.3,0,0,0-6.22-8.43,9.36,9.36,0,0,0-6.85.26,9.39,9.39,0,0,0-3.08,2.2A9.32,9.32,0,0,0,59.23,383a9.34,9.34,0,0,0,5-5.43A9.24,9.24,0,0,0,64.78,374.12Z"/><line class="cls-3" x1="46.16" y1="374.84" x2="64.78" y2="374.12"/><line class="cls-3" x1="55.83" y1="383.79" x2="55.11" y2="365.17"/><path class="cls-3" d="M37.9,425.13a9.34,9.34,0,0,0-3-6.48A9.31,9.31,0,0,0,24.82,417a9.28,9.28,0,0,0-3.07,2.19,9.29,9.29,0,0,0-2.48,6.7,9.33,9.33,0,0,0,.79,3.4,9.26,9.26,0,0,0,5.43,5,9.31,9.31,0,0,0,6.86-.27,9.42,9.42,0,0,0,3.08-2.19,9.58,9.58,0,0,0,2-3.24A9.22,9.22,0,0,0,37.9,425.13Z"/><line class="cls-3" x1="19.27" y1="425.85" x2="37.9" y2="425.13"/><line class="cls-3" x1="28.95" y1="434.8" x2="28.23" y2="416.17"/><path class="cls-3" d="M95.51,422.91a9.31,9.31,0,0,0-13.07-8.17,9.31,9.31,0,0,0-5.55,8.88,9.32,9.32,0,0,0,.78,3.41,9.31,9.31,0,0,0,8.89,5.55,9.38,9.38,0,0,0,6.48-3A9.42,9.42,0,0,0,95,426.36,9.22,9.22,0,0,0,95.51,422.91Z"/><line class="cls-3" x1="76.89" y1="423.62" x2="95.51" y2="422.91"/><line class="cls-3" x1="86.56" y1="432.58" x2="85.84" y2="413.95"/><polygon class="cls-4" points="55.47 374.48 28.59 425.49 86.2 423.26 55.47 374.48"/><polygon class="cls-2" points="12.85 312.84 17.66 273.61 55.14 245.37 76.22 265.4 52.58 285.16 96.96 290.61 98.24 320.42 31.86 333.19 12.85 312.84"/><path class="cls-3" d="M62.35,260.26a9.2,9.2,0,0,0-1-3.36,9.37,9.37,0,0,0-5.7-4.73,9.25,9.25,0,0,0-3.47-.33,9.15,9.15,0,0,0-3.36,1,9.28,9.28,0,0,0-4.73,5.7,9.32,9.32,0,0,0,9.8,11.9,9.42,9.42,0,0,0,3.36-1,9.29,9.29,0,0,0,5.06-9.17Z"/><line class="cls-3" x1="43.79" y1="261.98" x2="62.35" y2="260.26"/><line class="cls-3" x1="53.93" y1="270.4" x2="52.22" y2="251.84"/><path class="cls-3" d="M38.24,312.63a9.32,9.32,0,1,0-17.59,5.07,9.18,9.18,0,0,0,2.36,3,9.41,9.41,0,0,0,3.33,1.78,9.35,9.35,0,0,0,9.79-3,9.46,9.46,0,0,0,1.78-3.34A9.3,9.3,0,0,0,38.24,312.63Z"/><line class="cls-3" x1="19.68" y1="314.35" x2="38.24" y2="312.63"/><line class="cls-3" x1="29.82" y1="322.77" x2="28.1" y2="304.21"/><path class="cls-3" d="M95.66,307.33A9.3,9.3,0,0,0,92.33,301,9.3,9.3,0,0,0,89,299.24a9.32,9.32,0,0,0-9.79,3,9.35,9.35,0,0,0-1.77,3.34,9.23,9.23,0,0,0-.34,3.47,9.3,9.3,0,0,0,3.33,6.31,9.26,9.26,0,0,0,3.33,1.78,9.52,9.52,0,0,0,3.48.34,9.3,9.3,0,0,0,6.31-3.33,9.22,9.22,0,0,0,1.78-3.34A9.44,9.44,0,0,0,95.66,307.33Z"/><line class="cls-3" x1="77.09" y1="309.04" x2="95.66" y2="307.33"/><line class="cls-3" x1="87.23" y1="317.47" x2="85.52" y2="298.9"/><polygon class="cls-4" points="53.07 261.12 28.96 313.49 86.37 308.19 53.07 261.12"/><path class="cls-3" d="M63.33,260.21a9.24,9.24,0,0,0-.88-3.38,9.32,9.32,0,0,0-9-5.31,9.23,9.23,0,0,0-3.38.87A9.3,9.3,0,0,0,45.16,258a9.32,9.32,0,0,0,9.48,12.16,9.45,9.45,0,0,0,3.38-.88,9.32,9.32,0,0,0,5.31-9Z"/><line class="cls-3" x1="44.73" y1="261.43" x2="63.33" y2="260.21"/><line class="cls-3" x1="54.64" y1="270.12" x2="53.42" y2="251.52"/><path class="cls-3" d="M37.82,311.92a9.18,9.18,0,0,0-.87-3.38,9.32,9.32,0,0,0-9-5.32,9.5,9.5,0,0,0-3.39.88,9.38,9.38,0,0,0-4.88,5.57,9.31,9.31,0,0,0,.45,6.85,9.34,9.34,0,0,0,2.28,3,9.2,9.2,0,0,0,3.29,1.87,9.34,9.34,0,0,0,11.73-6A9.23,9.23,0,0,0,37.82,311.92Z"/><line class="cls-3" x1="19.22" y1="313.13" x2="37.82" y2="311.92"/><line class="cls-3" x1="29.13" y1="321.83" x2="27.92" y2="303.22"/><path class="cls-3" d="M95.36,308.15a9.45,9.45,0,0,0-.88-3.38,9.31,9.31,0,0,0-12.41-4.43,9.24,9.24,0,0,0-4.88,5.56,9.09,9.09,0,0,0-.43,3.47,9.23,9.23,0,0,0,.87,3.38,9.3,9.3,0,0,0,5.57,4.88,9.32,9.32,0,0,0,9.86-2.72,9.37,9.37,0,0,0,1.87-3.29A9.5,9.5,0,0,0,95.36,308.15Z"/><line class="cls-3" x1="76.76" y1="309.37" x2="95.36" y2="308.15"/><line class="cls-3" x1="86.67" y1="318.06" x2="85.45" y2="299.46"/><polygon class="cls-4" points="54.03 260.82 28.52 312.53 86.06 308.76 54.03 260.82"/><path class="cls-3" d="M64.78,261.33a9.34,9.34,0,0,0-6.22-8.44,9.43,9.43,0,0,0-3.45-.52,9.34,9.34,0,0,0-8.17,13.08A9.31,9.31,0,0,0,55.83,271a9.38,9.38,0,0,0,6.48-3,9.42,9.42,0,0,0,2-3.24A9.22,9.22,0,0,0,64.78,261.33Z"/><line class="cls-3" x1="46.16" y1="262.04" x2="64.78" y2="261.33"/><line class="cls-3" x1="55.83" y1="271" x2="55.11" y2="252.37"/><path class="cls-3" d="M37.9,312.33a9.38,9.38,0,0,0-3-6.48,9.42,9.42,0,0,0-3.24-2,9.22,9.22,0,0,0-3.45-.52,9.31,9.31,0,0,0-8.17,13.07A9.31,9.31,0,0,0,29,322a9.32,9.32,0,0,0,3.4-.78,9.34,9.34,0,0,0,5-5.43A9.24,9.24,0,0,0,37.9,312.33Z"/><line class="cls-3" x1="19.27" y1="313.05" x2="37.9" y2="312.33"/><line class="cls-3" x1="28.95" y1="322" x2="28.23" y2="303.38"/><path class="cls-3" d="M95.51,310.11a9.27,9.27,0,0,0-3-6.48,9.09,9.09,0,0,0-3.24-1.95,9.3,9.3,0,0,0-9.93,2.46,9.33,9.33,0,0,0-2.47,6.69A9.32,9.32,0,0,0,95,313.56,9.16,9.16,0,0,0,95.51,310.11Z"/><line class="cls-3" x1="76.89" y1="310.83" x2="95.51" y2="310.11"/><line class="cls-3" x1="86.56" y1="319.78" x2="85.84" y2="301.16"/><polygon class="cls-4" points="55.47 261.69 28.59 312.69 86.2 310.47 55.47 261.69"/><path class="cls-3" d="M65.18,261.63a9.16,9.16,0,0,0-.69-3.42,9.36,9.36,0,0,0-8.73-5.79,9.38,9.38,0,0,0-3.43.7,9.34,9.34,0,0,0-5.17,5.29,9.32,9.32,0,0,0,5.38,12,9.13,9.13,0,0,0,3.43.61,9.37,9.37,0,0,0,3.43-.69,9.32,9.32,0,0,0,5.17-5.3A9.15,9.15,0,0,0,65.18,261.63Z"/><line class="cls-3" x1="46.54" y1="261.85" x2="65.18" y2="261.63"/><line class="cls-3" x1="55.97" y1="271.06" x2="55.76" y2="252.42"/><path class="cls-3" d="M36.94,311.9a9.31,9.31,0,0,0-16-6.4,9.22,9.22,0,0,0-2,3.18,9.24,9.24,0,0,0,.08,6.86,9.3,9.3,0,0,0,2.11,3.14,9.27,9.27,0,0,0,6.62,2.65,9.37,9.37,0,0,0,3.43-.69,9.53,9.53,0,0,0,3.13-2.12,9.27,9.27,0,0,0,2.65-6.62Z"/><line class="cls-3" x1="18.3" y1="312.12" x2="36.94" y2="311.9"/><line class="cls-3" x1="27.73" y1="321.33" x2="27.52" y2="302.69"/><path class="cls-3" d="M94.6,311.22a9.37,9.37,0,0,0-.7-3.42,9.34,9.34,0,0,0-5.29-5.17,9.33,9.33,0,0,0-12,5.37,9.22,9.22,0,0,0-.61,3.44,9.3,9.3,0,0,0,6,8.6,9.18,9.18,0,0,0,3.44.61,9.36,9.36,0,0,0,3.42-.69,9.32,9.32,0,0,0,5.17-5.3A9.36,9.36,0,0,0,94.6,311.22Z"/><line class="cls-3" x1="75.96" y1="311.44" x2="94.6" y2="311.22"/><line class="cls-3" x1="85.39" y1="320.65" x2="85.17" y2="302.01"/><polygon class="cls-4" points="55.86 261.74 27.62 312.01 85.28 311.33 55.86 261.74"/><path class="cls-3" d="M65.22,261.6A9.33,9.33,0,0,0,56,252.14a9.31,9.31,0,0,0-8.75,5.76,9.3,9.3,0,0,0-.71,3.42,9.33,9.33,0,0,0,12.62,8.86A9.37,9.37,0,0,0,64.52,265,9.13,9.13,0,0,0,65.22,261.6Z"/><line class="cls-3" x1="46.58" y1="261.32" x2="65.22" y2="261.6"/><line class="cls-3" x1="55.76" y1="270.78" x2="56.04" y2="252.14"/><path class="cls-3" d="M35.65,311.09a9.42,9.42,0,0,0-.61-3.44,9.34,9.34,0,0,0-5.15-5.31,9.33,9.33,0,0,0-12.18,5.05,9.33,9.33,0,0,0,5.05,12.17,9.31,9.31,0,0,0,12.18-5.05A9.3,9.3,0,0,0,35.65,311.09Z"/><line class="cls-3" x1="17.01" y1="310.81" x2="35.65" y2="311.09"/><line class="cls-3" x1="26.19" y1="320.27" x2="26.47" y2="301.63"/><path class="cls-3" d="M93.3,312a9.42,9.42,0,0,0-.61-3.44,9.34,9.34,0,0,0-5.15-5.31,9.31,9.31,0,0,0-12.18,5.05,9.38,9.38,0,0,0-.1,6.86,9.34,9.34,0,0,0,5.15,5.31A9.33,9.33,0,0,0,93.3,312Z"/><line class="cls-3" x1="74.66" y1="311.68" x2="93.3" y2="311.96"/><line class="cls-3" x1="83.83" y1="321.14" x2="84.12" y2="302.5"/><polygon class="cls-4" points="55.9 261.46 26.33 310.95 83.98 311.82 55.9 261.46"/><path class="cls-3" d="M65.24,261.58a9.21,9.21,0,0,0-.51-3.45,9.27,9.27,0,0,0-5-5.45,9.34,9.34,0,0,0-3.4-.8,9.24,9.24,0,0,0-3.46.51,9.33,9.33,0,0,0-6.25,8.41,9.66,9.66,0,0,0,.51,3.46,9.35,9.35,0,0,0,8.42,6.25A9.64,9.64,0,0,0,59,270a9.35,9.35,0,0,0,6.25-8.42Z"/><line class="cls-3" x1="46.61" y1="260.8" x2="65.24" y2="261.58"/><line class="cls-3" x1="55.54" y1="270.51" x2="56.32" y2="251.88"/><path class="cls-3" d="M34.35,310.26a9.64,9.64,0,0,0-.51-3.45,9.35,9.35,0,0,0-8.42-6.25,9.21,9.21,0,0,0-3.45.51,9.27,9.27,0,0,0-5.45,5,9.34,9.34,0,0,0-.8,3.4,9.31,9.31,0,0,0,2.45,6.7,9.32,9.32,0,0,0,6.47,3,9.44,9.44,0,0,0,3.46-.51,9.31,9.31,0,0,0,3.24-1.94,9.44,9.44,0,0,0,2.21-3.07A9.35,9.35,0,0,0,34.35,310.26Z"/><line class="cls-3" x1="15.72" y1="309.48" x2="34.35" y2="310.26"/><line class="cls-3" x1="24.64" y1="319.19" x2="25.42" y2="300.56"/><path class="cls-3" d="M92,312.68a9.24,9.24,0,0,0-.51-3.46,9.34,9.34,0,0,0-5-5.45,9.38,9.38,0,0,0-6.86-.28,9.4,9.4,0,0,0-3.24,1.94,9.24,9.24,0,0,0-2.21,3.07,9.44,9.44,0,0,0-.79,3.4,9.21,9.21,0,0,0,.51,3.45,9.27,9.27,0,0,0,5,5.45,9.29,9.29,0,0,0,6.85.29A9.33,9.33,0,0,0,92,312.68Z"/><line class="cls-3" x1="73.33" y1="311.9" x2="91.95" y2="312.68"/><line class="cls-3" x1="82.25" y1="321.6" x2="83.03" y2="302.98"/><polygon class="cls-4" points="55.93 261.19 25.03 309.87 82.64 312.29 55.93 261.19"/><polygon class="cls-2" points="12.85 200.04 17.66 160.81 55.14 132.57 76.22 152.6 52.58 172.37 96.96 177.82 98.24 207.62 31.86 220.4 12.85 200.04"/><path class="cls-3" d="M54.9,148.68a9.39,9.39,0,0,0-1.62-3.1,9.29,9.29,0,0,0-2.9-2.42,9.2,9.2,0,0,0-3.62-1.07,9.25,9.25,0,0,0-6.57,2,9.28,9.28,0,0,0-3.5,6.52,9.32,9.32,0,0,0,17.5,5.19,9.26,9.26,0,0,0,.71-7.1Z"/><line class="cls-3" x1="37.06" y1="154.07" x2="54.9" y2="148.68"/><line class="cls-3" x1="48.67" y1="160.3" x2="43.28" y2="142.45"/><path class="cls-3" d="M41.74,204.81a9.31,9.31,0,0,0-8.15-6.59,9.29,9.29,0,0,0-6.57,2,9.32,9.32,0,0,0,1.39,15.52A9.2,9.2,0,0,0,32,216.79a9.31,9.31,0,0,0,10.07-8.5A9.51,9.51,0,0,0,41.74,204.81Z"/><line class="cls-3" x1="23.89" y1="210.2" x2="41.74" y2="204.81"/><line class="cls-3" x1="35.51" y1="216.43" x2="30.12" y2="198.58"/><path class="cls-3" d="M96.93,188.15a9.35,9.35,0,0,0-8.14-6.6,9.53,9.53,0,0,0-3.48.37,9.34,9.34,0,0,0-3.09,1.62,9.34,9.34,0,0,0-3.14,10,9.34,9.34,0,0,0,1.62,3.09,9.34,9.34,0,0,0,10,3.14,9.3,9.3,0,0,0,5.52-4.52,9.26,9.26,0,0,0,.71-7.1Z"/><line class="cls-3" x1="79.08" y1="193.54" x2="96.93" y2="188.15"/><line class="cls-3" x1="90.7" y1="199.77" x2="85.31" y2="181.92"/><polygon class="cls-4" points="45.98 151.37 32.81 207.51 88.01 190.84 45.98 151.37"/><path class="cls-3" d="M57.39,148.11a9.25,9.25,0,0,0-4.13-5.81A9.26,9.26,0,0,0,49.71,141a9.53,9.53,0,0,0-3.49.13,9.66,9.66,0,0,0-3.2,1.41,9.44,9.44,0,0,0-2.61,2.73,9.24,9.24,0,0,0-1.31,3.55,9.27,9.27,0,0,0,1.54,6.68,9.27,9.27,0,0,0,6.27,3.93,9.31,9.31,0,0,0,9.3-4.27,9.22,9.22,0,0,0,1.18-7Z"/><line class="cls-3" x1="39.23" y1="152.29" x2="57.39" y2="148.11"/><line class="cls-3" x1="50.4" y1="159.28" x2="46.22" y2="141.11"/><path class="cls-3" d="M40.5,203.23A9.14,9.14,0,0,0,39.09,200a9.31,9.31,0,0,0-9.76-3.8,9.35,9.35,0,0,0-7.13,7.68,9.31,9.31,0,0,0,1.54,6.69A9.36,9.36,0,0,0,30,214.54a9.53,9.53,0,0,0,3.49-.13,9.33,9.33,0,0,0,7-11.18Z"/><line class="cls-3" x1="22.33" y1="207.41" x2="40.5" y2="203.23"/><line class="cls-3" x1="33.51" y1="214.41" x2="29.33" y2="196.24"/><path class="cls-3" d="M96.69,190.3a9.33,9.33,0,0,0-11.18-7,9.14,9.14,0,0,0-3.19,1.41,9.31,9.31,0,0,0-3.8,9.76,9.35,9.35,0,0,0,7.68,7.13,9.52,9.52,0,0,0,3.49-.13,9.38,9.38,0,0,0,3.2-1.41,9.36,9.36,0,0,0,3.93-6.28A9.53,9.53,0,0,0,96.69,190.3Z"/><line class="cls-3" x1="78.52" y1="194.48" x2="96.69" y2="190.3"/><line class="cls-3" x1="89.69" y1="201.48" x2="85.51" y2="183.31"/><polygon class="cls-4" points="48.31 150.2 31.42 205.32 87.6 192.39 48.31 150.2"/><path class="cls-3" d="M59.89,147.71a9.25,9.25,0,0,0-1.2-3.29,9.4,9.4,0,0,0-2.54-2.79A9.31,9.31,0,0,0,49.2,140a9.33,9.33,0,0,0-.53,18.31,9.53,9.53,0,0,0,3.49.1,9.38,9.38,0,0,0,3.28-1.19,9.33,9.33,0,0,0,4.34-6A9.32,9.32,0,0,0,59.89,147.71Z"/><line class="cls-3" x1="41.48" y1="150.66" x2="59.89" y2="147.71"/><line class="cls-3" x1="52.16" y1="158.39" x2="49.2" y2="139.98"/><path class="cls-3" d="M39.34,201.58a9.31,9.31,0,0,0-3.74-6.08,9.3,9.3,0,0,0-6.94-1.65,9.32,9.32,0,1,0,6.23,17.22,9.33,9.33,0,0,0,4.34-6A9.32,9.32,0,0,0,39.34,201.58Z"/><line class="cls-3" x1="20.93" y1="204.53" x2="39.34" y2="201.58"/><line class="cls-3" x1="31.61" y1="212.26" x2="28.66" y2="193.85"/><path class="cls-3" d="M96.26,192.44a9.3,9.3,0,0,0-1.19-3.29,9.44,9.44,0,0,0-2.55-2.79,9.42,9.42,0,0,0-6.94-1.65,9.38,9.38,0,0,0-3.28,1.19,9.33,9.33,0,0,0-4.34,6,9.36,9.36,0,0,0,1.09,6.78,9.33,9.33,0,0,0,6,4.34,9.32,9.32,0,0,0,6.77-1.09,9.33,9.33,0,0,0,4.34-6A9.32,9.32,0,0,0,96.26,192.44Z"/><line class="cls-3" x1="77.86" y1="195.39" x2="96.26" y2="192.44"/><line class="cls-3" x1="88.54" y1="203.12" x2="85.58" y2="184.71"/><polygon class="cls-4" points="50.68 149.19 30.13 203.06 87.06 193.92 50.68 149.19"/><path class="cls-3" d="M62.35,147.46a9.15,9.15,0,0,0-1-3.35,9.42,9.42,0,0,0-2.36-3,9.33,9.33,0,0,0-13.13,1.22,9.32,9.32,0,0,0-1.14,10.17,9.25,9.25,0,0,0,2.36,3,9.41,9.41,0,0,0,3.33,1.78,9.3,9.3,0,0,0,3.48.33,9.2,9.2,0,0,0,3.36-1,9.37,9.37,0,0,0,4.73-5.7A9.28,9.28,0,0,0,62.35,147.46Z"/><line class="cls-3" x1="43.79" y1="149.18" x2="62.35" y2="147.46"/><line class="cls-3" x1="53.93" y1="157.6" x2="52.22" y2="139.04"/><path class="cls-3" d="M38.24,199.84a9.23,9.23,0,0,0-3.32-6.31,9.3,9.3,0,0,0-3.34-1.78,9.52,9.52,0,0,0-3.48-.34,9.35,9.35,0,0,0-6.31,3.33,9.38,9.38,0,0,0-2.11,6.81,9.42,9.42,0,0,0,1,3.36,9.39,9.39,0,0,0,5.69,4.73,9.52,9.52,0,0,0,3.48.34,9.35,9.35,0,0,0,8.09-6.67A9.23,9.23,0,0,0,38.24,199.84Z"/><line class="cls-3" x1="19.68" y1="201.55" x2="38.24" y2="199.84"/><line class="cls-3" x1="29.82" y1="209.98" x2="28.1" y2="191.41"/><path class="cls-3" d="M95.66,194.53a9.35,9.35,0,0,0-3.33-6.31A9.46,9.46,0,0,0,89,186.44a9.37,9.37,0,0,0-9.79,3,9.43,9.43,0,0,0-1.77,3.34,9.26,9.26,0,0,0,.63,6.83,9.42,9.42,0,0,0,2.36,3,9.35,9.35,0,0,0,6.81,2.11,9.42,9.42,0,0,0,3.36-1A9.31,9.31,0,0,0,95.32,198,9.52,9.52,0,0,0,95.66,194.53Z"/><line class="cls-3" x1="77.09" y1="196.25" x2="95.66" y2="194.53"/><line class="cls-3" x1="87.23" y1="204.67" x2="85.52" y2="186.11"/><polygon class="cls-4" points="53.07 148.32 28.96 200.69 86.37 195.39 53.07 148.32"/><path class="cls-3" d="M65.17,148.87a9.35,9.35,0,0,0-2.89-6.52,9.24,9.24,0,0,0-6.66-2.56,9.08,9.08,0,0,0-3.41.74,9.19,9.19,0,0,0-3.11,2.15,9.34,9.34,0,0,0,.33,13.18,9.46,9.46,0,0,0,3.21,2,9.2,9.2,0,0,0,3.45.57,9.32,9.32,0,0,0,3.41-.74,9.26,9.26,0,0,0,5.1-5.36A9.27,9.27,0,0,0,65.17,148.87Z"/><line class="cls-3" x1="46.54" y1="149.34" x2="65.17" y2="148.87"/><line class="cls-3" x1="56.09" y1="158.42" x2="55.62" y2="139.79"/><path class="cls-3" d="M37.61,199.51A9.35,9.35,0,0,0,31.5,191a9.38,9.38,0,0,0-6.86.18,9.15,9.15,0,0,0-3.1,2.15,9.33,9.33,0,0,0-2,3.21A9.2,9.2,0,0,0,19,200a9.31,9.31,0,0,0,6.11,8.51,9.18,9.18,0,0,0,3.44.57A9.3,9.3,0,0,0,35,206.17a9.31,9.31,0,0,0,2.57-6.66Z"/><line class="cls-3" x1="18.97" y1="199.98" x2="37.61" y2="199.51"/><line class="cls-3" x1="28.52" y1="209.06" x2="28.06" y2="190.43"/><path class="cls-3" d="M95.25,198.06a9.48,9.48,0,0,0-.74-3.41,9.34,9.34,0,0,0-15.34-2.78,9.46,9.46,0,0,0-2,3.21,9.31,9.31,0,0,0,.17,6.86,9.43,9.43,0,0,0,2.15,3.11,9.33,9.33,0,0,0,10.07,1.82,9.33,9.33,0,0,0,3.11-2.15,9.43,9.43,0,0,0,2-3.21A9.65,9.65,0,0,0,95.25,198.06Z"/><line class="cls-3" x1="76.61" y1="198.53" x2="95.25" y2="198.06"/><line class="cls-3" x1="86.16" y1="207.61" x2="85.69" y2="188.98"/><polygon class="cls-4" points="55.85 149.1 28.29 199.74 85.93 198.29 55.85 149.1"/><path class="cls-3" d="M65.24,148.79a9.24,9.24,0,0,0-.51-3.46,9.33,9.33,0,0,0-8.41-6.25,9.66,9.66,0,0,0-3.46.51A9.35,9.35,0,0,0,46.61,148a9.64,9.64,0,0,0,.51,3.45,9.35,9.35,0,0,0,8.42,6.25A9.21,9.21,0,0,0,59,157.2a9.27,9.27,0,0,0,5.45-5A9.34,9.34,0,0,0,65.24,148.79Z"/><line class="cls-3" x1="46.61" y1="148.01" x2="65.24" y2="148.79"/><line class="cls-3" x1="55.54" y1="157.71" x2="56.32" y2="139.08"/><path class="cls-3" d="M34.35,197.47a9.66,9.66,0,0,0-.51-3.46,9.32,9.32,0,1,0-15.67,9.38,9.46,9.46,0,0,0,3.07,2.2,9.34,9.34,0,0,0,3.4.8,9.31,9.31,0,0,0,6.7-2.45,9.32,9.32,0,0,0,3-6.47Z"/><line class="cls-3" x1="15.72" y1="196.69" x2="34.35" y2="197.47"/><line class="cls-3" x1="24.64" y1="206.39" x2="25.42" y2="187.77"/><path class="cls-3" d="M92,199.88a9.21,9.21,0,0,0-.51-3.45,9.35,9.35,0,0,0-1.94-3.25,9.46,9.46,0,0,0-3.07-2.2,9.32,9.32,0,0,0-6.86-.29,9.34,9.34,0,0,0-5.45,5,9.54,9.54,0,0,0-.79,3.4,9.24,9.24,0,0,0,.51,3.46,9.34,9.34,0,0,0,5,5.45,9,9,0,0,0,3.4.79,9.21,9.21,0,0,0,3.45-.51A9.05,9.05,0,0,0,89,206.35a9.36,9.36,0,0,0,3-6.47Z"/><line class="cls-3" x1="73.33" y1="199.1" x2="91.95" y2="199.88"/><line class="cls-3" x1="82.25" y1="208.8" x2="83.03" y2="190.18"/><polygon class="cls-4" points="55.93 148.4 25.03 197.08 82.64 199.49 55.93 148.4"/><polygon class="cls-2" points="12.85 87.25 17.66 48.02 55.14 19.78 76.22 39.8 52.58 59.57 96.96 65.02 98.24 94.83 31.86 107.6 12.85 87.25"/><path class="cls-3" d="M54.9,35.88a9.34,9.34,0,0,0-1.62-3.09,9.19,9.19,0,0,0-2.9-2.43,9.37,9.37,0,0,0-3.62-1.07,9.53,9.53,0,0,0-3.48.36,9.34,9.34,0,0,0-3.09,1.62,9.28,9.28,0,0,0-3.5,6.53,9.42,9.42,0,0,0,2,6.57,9.3,9.3,0,0,0,10,3.13,9.35,9.35,0,0,0,6.6-8.14A9.53,9.53,0,0,0,54.9,35.88Z"/><line class="cls-3" x1="37.06" y1="41.27" x2="54.9" y2="35.88"/><line class="cls-3" x1="48.67" y1="47.5" x2="43.28" y2="29.65"/><path class="cls-3" d="M41.74,92a9.33,9.33,0,0,0-18.22,1.91,9.46,9.46,0,0,0,.37,3.47,9.31,9.31,0,0,0,11.62,6.23A9.5,9.5,0,0,0,38.6,102a9.33,9.33,0,0,0,3.5-6.53A9.45,9.45,0,0,0,41.74,92Z"/><line class="cls-3" x1="23.89" y1="97.4" x2="41.74" y2="92.02"/><line class="cls-3" x1="35.51" y1="103.63" x2="30.12" y2="85.79"/><path class="cls-3" d="M96.93,75.35a9.37,9.37,0,0,0-4.52-5.52,9.2,9.2,0,0,0-3.62-1.07,9.25,9.25,0,0,0-6.57,2,9.34,9.34,0,0,0-3.14,10,9.31,9.31,0,0,0,8.15,6.59,9.29,9.29,0,0,0,9-4.88,9.25,9.25,0,0,0,.71-7.1Z"/><line class="cls-3" x1="79.08" y1="80.74" x2="96.93" y2="75.35"/><line class="cls-3" x1="90.7" y1="86.97" x2="85.31" y2="69.12"/><polygon class="cls-4" points="45.98 38.58 32.81 94.71 88.01 78.05 45.98 38.58"/><path class="cls-3" d="M61.12,34.77A9.12,9.12,0,0,0,60,31.44a9.28,9.28,0,0,0-5.85-4.53,9.29,9.29,0,0,0-6.8.86,9.18,9.18,0,0,0-2.88,2.45,9.38,9.38,0,0,0-1.66,3.4A9.32,9.32,0,0,0,56.37,44.1a9.28,9.28,0,0,0,4.53-5.85A9.08,9.08,0,0,0,61.12,34.77Z"/><line class="cls-3" x1="42.63" y1="37.1" x2="61.12" y2="34.77"/><line class="cls-3" x1="53.05" y1="45.18" x2="50.71" y2="26.69"/><path class="cls-3" d="M38.78,87.92a9.32,9.32,0,0,0-3.53-6.2,9.22,9.22,0,0,0-3.4-1.66,9.33,9.33,0,0,0-6.81.86,9.39,9.39,0,0,0-2.87,2.45,9.22,9.22,0,0,0-1.66,3.4,9.29,9.29,0,0,0,.86,6.8,9.32,9.32,0,0,0,17.41-5.65Z"/><line class="cls-3" x1="20.29" y1="90.25" x2="38.78" y2="87.92"/><line class="cls-3" x1="30.7" y1="98.33" x2="28.37" y2="79.84"/><path class="cls-3" d="M96,80.69a9.07,9.07,0,0,0-1.08-3.32,9.31,9.31,0,0,0-12.65-3.68,9.32,9.32,0,0,0-4.54,5.85,9.33,9.33,0,0,0,6.71,11.35,9.29,9.29,0,0,0,9.68-3.32,9.25,9.25,0,0,0,1.66-3.39A9.12,9.12,0,0,0,96,80.69Z"/><line class="cls-3" x1="77.49" y1="83.03" x2="95.98" y2="80.69"/><line class="cls-3" x1="87.9" y1="91.11" x2="85.57" y2="72.61"/><polygon class="cls-4" points="51.88 35.93 29.53 89.08 86.74 81.86 51.88 35.93"/><path class="cls-3" d="M65.24,36a9.21,9.21,0,0,0-.51-3.45,9.33,9.33,0,0,0-8.41-6.25,9.24,9.24,0,0,0-3.46.51,9.34,9.34,0,0,0-5.45,5,9.29,9.29,0,0,0-.8,3.4,9.66,9.66,0,0,0,.51,3.46,9.4,9.4,0,0,0,5,5.45,9.44,9.44,0,0,0,3.4.79A9.21,9.21,0,0,0,59,44.4a9.27,9.27,0,0,0,5.45-5A9.25,9.25,0,0,0,65.24,36Z"/><line class="cls-3" x1="46.61" y1="35.21" x2="65.24" y2="35.99"/><line class="cls-3" x1="55.54" y1="44.91" x2="56.32" y2="26.29"/><path class="cls-3" d="M34.35,84.67a9.64,9.64,0,0,0-.51-3.45,9.22,9.22,0,0,0-2-3.25,9.35,9.35,0,0,0-3.07-2.2A9.29,9.29,0,0,0,22,75.48a9.27,9.27,0,0,0-5.45,5,9.32,9.32,0,0,0-.29,6.86,9.34,9.34,0,0,0,5,5.45,9.54,9.54,0,0,0,3.4.79,9.24,9.24,0,0,0,3.46-.51,9,9,0,0,0,3.24-1.94,9.32,9.32,0,0,0,3-6.47Z"/><line class="cls-3" x1="15.72" y1="83.89" x2="34.35" y2="84.67"/><line class="cls-3" x1="24.64" y1="93.59" x2="25.42" y2="74.97"/><path class="cls-3" d="M92,87.09a9.31,9.31,0,0,0-2.45-6.7,9.32,9.32,0,0,0-6.47-3,9.47,9.47,0,0,0-3.46.51,9.4,9.4,0,0,0-5.45,5,9.44,9.44,0,0,0-.79,3.4A9.31,9.31,0,0,0,75.78,93a9.32,9.32,0,0,0,6.47,3,9.21,9.21,0,0,0,3.45-.51A9.33,9.33,0,0,0,92,87.09Z"/><line class="cls-3" x1="73.33" y1="86.31" x2="91.95" y2="87.09"/><line class="cls-3" x1="82.25" y1="96.01" x2="83.03" y2="77.38"/><polygon class="cls-4" points="55.93 35.6 25.03 84.28 82.64 86.7 55.93 35.6"/><path class="cls-5" d="M345.78,786v6.77H343.9a1.13,1.13,0,0,1-1.14-1.12v-2.25a1.13,1.13,0,0,1,1.14-1.14h1.88"/><path class="cls-5" d="M338.62,788.22h1.51a1.13,1.13,0,0,1,1.14,1.14v3.37h-1.88a1.13,1.13,0,1,1,0-2.26h1.88"/><polyline class="cls-5" points="334.48 792.73 334.48 788.22 336.73 788.22 336.73 788.99"/><line class="cls-5" x1="328.85" y1="789.73" x2="328.85" y2="792.73"/><polyline class="cls-5" points="327.71 785.96 326.23 791.24 329.97 791.24"/><path class="cls-5" d="M324.72,786h-3v3h1.48a1.49,1.49,0,0,1,1.52,1.48v.77a1.5,1.5,0,0,1-1.52,1.49h-1.48"/><path class="cls-5" d="M318.06,786.33a5.78,5.78,0,0,0,0,6,.74.74,0,0,0,1.27,0,5.65,5.65,0,0,0,0-6A.74.74,0,0,0,318.06,786.33Z"/><line class="cls-5" x1="315.7" y1="792.35" x2="315.7" y2="792.73"/><path class="cls-5" d="M312,786.33a5.78,5.78,0,0,0,0,6,.74.74,0,0,0,1.27,0,5.65,5.65,0,0,0,0-6A.74.74,0,0,0,312,786.33Z"/><line class="cls-5" x1="306.68" y1="790.47" x2="309.67" y2="790.47"/><path class="cls-5" d="M345.78,673.16v6.77H343.9a1.13,1.13,0,0,1-1.14-1.12v-2.25a1.13,1.13,0,0,1,1.14-1.14h1.88"/><path class="cls-5" d="M338.62,675.42h1.51a1.13,1.13,0,0,1,1.14,1.14v3.37h-1.88a1.13,1.13,0,1,1,0-2.26h1.88"/><polyline class="cls-5" points="334.48 679.93 334.48 675.42 336.73 675.42 336.73 676.19"/><path class="cls-5" d="M330,676.93h-1.49a1.49,1.49,0,0,1-1.51-1.51v-.75a1.5,1.5,0,1,1,3,0v2.26a3.09,3.09,0,0,1-2.26,3"/><line class="cls-5" x1="324.35" y1="676.93" x2="324.35" y2="679.93"/><polyline class="cls-5" points="323.2 673.16 321.72 678.44 325.46 678.44"/><path class="cls-5" d="M318.06,673.53a5.78,5.78,0,0,0,0,6.05.74.74,0,0,0,1.27,0,5.65,5.65,0,0,0,0-6.05A.75.75,0,0,0,318.06,673.53Z"/><line class="cls-5" x1="315.7" y1="679.56" x2="315.7" y2="679.93"/><path class="cls-5" d="M312,673.53a5.78,5.78,0,0,0,0,6.05.74.74,0,0,0,1.27,0,5.65,5.65,0,0,0,0-6.05A.75.75,0,0,0,312,673.53Z"/><line class="cls-5" x1="306.68" y1="677.67" x2="309.67" y2="677.67"/><path class="cls-5" d="M345.38,560.36v6.77h-1.85a1.13,1.13,0,0,1-1.15-1.11v-2.26a1.14,1.14,0,0,1,1.15-1.14h1.85"/><path class="cls-5" d="M338.25,562.62h1.51a1.12,1.12,0,0,1,1.11,1.14v3.37H339a1.13,1.13,0,0,1-1.15-1.11,1.14,1.14,0,0,1,1.15-1.15h1.85"/><polyline class="cls-5" points="334.11 567.13 334.11 562.62 336.36 562.62 336.36 563.39"/><path class="cls-5" d="M329.6,564.13h-1.51a1.49,1.49,0,0,1-1.49-1.51v-.74a1.5,1.5,0,1,1,3,0v2.25a3.07,3.07,0,0,1-2.26,3"/><path class="cls-5" d="M323.58,563.39a1.49,1.49,0,0,1,1.51,1.48v.77a1.49,1.49,0,0,1-1.51,1.49h-1.49"/><path class="cls-5" d="M322.09,560.36h1.49a1.52,1.52,0,0,1,0,3h-.75"/><path class="cls-5" d="M318.43,560.74a5.76,5.76,0,0,0,0,6,.74.74,0,0,0,1.27,0,5.64,5.64,0,0,0,0-6A.74.74,0,0,0,318.43,560.74Z"/><line class="cls-5" x1="316.07" y1="566.76" x2="316.07" y2="567.13"/><path class="cls-5" d="M312.41,560.74a5.76,5.76,0,0,0,0,6,.77.77,0,0,0,1.3,0,5.76,5.76,0,0,0,0-6A.77.77,0,0,0,312.41,560.74Z"/><line class="cls-5" x1="307.05" y1="564.87" x2="310.05" y2="564.87"/><path class="cls-5" d="M343.53,447.57v6.76h-1.89a1.12,1.12,0,0,1-1.14-1.11V451a1.13,1.13,0,0,1,1.14-1.14h1.89"/><path class="cls-5" d="M336.36,449.82h1.51A1.16,1.16,0,0,1,339,451v3.37h-1.89a1.13,1.13,0,1,1,0-2.25H339"/><polyline class="cls-5" points="332.22 454.33 332.22 449.82 334.48 449.82 334.48 450.59"/><path class="cls-5" d="M327.71,454.33h-3l2.76-4.4a1.53,1.53,0,1,0-2.76-1.22"/><line class="cls-5" x1="322.09" y1="451.33" x2="322.09" y2="454.33"/><polyline class="cls-5" points="320.95 447.57 319.44 452.85 323.2 452.85"/><path class="cls-5" d="M315.8,447.94a5.78,5.78,0,0,0,0,6.05.76.76,0,0,0,1.28,0,5.69,5.69,0,0,0,0-6.05A.75.75,0,0,0,315.8,447.94Z"/><line class="cls-5" x1="313.44" y1="453.96" x2="313.44" y2="454.33"/><path class="cls-5" d="M309.78,447.94a5.78,5.78,0,0,0,0,6.05.75.75,0,0,0,1.27,0,5.65,5.65,0,0,0,0-6.05A.74.74,0,0,0,309.78,447.94Z"/><path class="cls-5" d="M343.53,334.77v6.76h-1.89a1.12,1.12,0,0,1-1.14-1.11v-2.26a1.13,1.13,0,0,1,1.14-1.14h1.89"/><path class="cls-5" d="M336.36,337h1.51a1.16,1.16,0,0,1,1.15,1.14v3.37h-1.89a1.13,1.13,0,1,1,0-2.25H339"/><polyline class="cls-5" points="332.22 341.53 332.22 337.02 334.48 337.02 334.48 337.79"/><path class="cls-5" d="M327.71,341.53h-3l2.76-4.4a1.53,1.53,0,1,0-2.76-1.22"/><line class="cls-5" x1="322.09" y1="338.54" x2="322.09" y2="341.53"/><polyline class="cls-5" points="320.95 334.77 319.44 340.05 323.2 340.05"/><path class="cls-5" d="M315.8,335.14a5.78,5.78,0,0,0,0,6.05.75.75,0,0,0,1.28,0,5.69,5.69,0,0,0,0-6.05A.75.75,0,0,0,315.8,335.14Z"/><line class="cls-5" x1="313.44" y1="341.16" x2="313.44" y2="341.53"/><path class="cls-5" d="M309.78,335.14a5.78,5.78,0,0,0,0,6.05.74.74,0,0,0,1.27,0,5.65,5.65,0,0,0,0-6.05A.74.74,0,0,0,309.78,335.14Z"/><path class="cls-5" d="M343.13,222v6.79h-1.86a1.15,1.15,0,0,1-1.14-1.14v-2.25a1.14,1.14,0,0,1,1.14-1.15h1.86"/><path class="cls-5" d="M336,224.22h1.51a1.14,1.14,0,0,1,1.12,1.15v3.39h-1.89a1.14,1.14,0,0,1,0-2.28h1.89"/><polyline class="cls-5" points="331.85 228.76 331.85 224.22 334.11 224.22 334.11 224.99"/><path class="cls-5" d="M327.34,225.74h-1.51a1.49,1.49,0,0,1-1.48-1.52v-.74a1.5,1.5,0,1,1,3,0v2.26a3.17,3.17,0,0,1-2.25,3"/><path class="cls-5" d="M320.68,222.34a5.78,5.78,0,0,0,0,6,.75.75,0,0,0,1.28,0,5.69,5.69,0,0,0,0-6A.75.75,0,0,0,320.68,222.34Z"/><path class="cls-5" d="M318.32,228.76h-3c.9-1.48,1.83-3,2.75-4.43a1.52,1.52,0,1,0-2.75-1.22"/><line class="cls-5" x1="313.81" y1="228.36" x2="313.81" y2="228.76"/><ellipse class="cls-5" cx="310.8" cy="225.37" rx="1.28" ry="3.51"/><path class="cls-5" d="M342.76,109.17V116h-1.89a1.14,1.14,0,0,1-1.11-1.14v-2.25a1.12,1.12,0,0,1,1.11-1.14h1.89"/><path class="cls-5" d="M335.62,111.43h1.51a1.13,1.13,0,0,1,1.12,1.14V116h-1.89a1.14,1.14,0,0,1,0-2.28h1.89"/><polyline class="cls-5" points="331.48 115.96 331.48 111.43 333.74 111.43 333.74 112.2"/><polyline class="cls-5" points="323.97 109.94 323.97 109.17 326.97 109.17 325.46 115.96"/><line class="cls-5" x1="321.32" y1="112.94" x2="321.32" y2="115.96"/><polyline class="cls-5" points="320.21 109.17 318.69 114.45 322.46 114.45"/><path class="cls-5" d="M315.06,109.54a5.65,5.65,0,0,0,0,6,.74.74,0,0,0,1.27,0,5.78,5.78,0,0,0,0-6A.75.75,0,0,0,315.06,109.54Z"/><line class="cls-5" x1="312.67" y1="115.56" x2="312.67" y2="115.96"/><polyline class="cls-5" points="309.68 110.68 311.19 109.17 311.19 115.96"/><path class="cls-5" d="M157.4,786v6.77h-1.88a1.13,1.13,0,0,1-1.14-1.12v-2.25a1.13,1.13,0,0,1,1.14-1.14h1.88"/><path class="cls-5" d="M150.27,788.22h1.48a1.13,1.13,0,0,1,1.14,1.14v3.37H151a1.13,1.13,0,1,1,0-2.26h1.88"/><polyline class="cls-5" points="146.13 792.73 146.13 788.22 148.38 788.22 148.38 788.99"/><path class="cls-5" d="M141.62,792.73h-3c.93-1.46,1.86-3,2.79-4.41a1.57,1.57,0,0,0-.69-2.23,1.55,1.55,0,0,0-2.1,1"/><path class="cls-5" d="M134.08,789h1.52a1.48,1.48,0,0,1,1.48,1.48v.77a1.49,1.49,0,0,1-1.48,1.49,1.5,1.5,0,0,1-1.52-1.49V789a3.17,3.17,0,0,1,2.26-3"/><path class="cls-5" d="M130.45,786.33a5.65,5.65,0,0,0,0,6,.74.74,0,0,0,1.27,0,5.78,5.78,0,0,0,0-6A.74.74,0,0,0,130.45,786.33Z"/><line class="cls-5" x1="128.06" y1="792.35" x2="128.06" y2="792.73"/><ellipse class="cls-5" cx="125.06" cy="789.36" rx="1.27" ry="3.5"/><line class="cls-5" x1="119.04" y1="790.47" x2="122.07" y2="790.47"/><path class="cls-5" d="M156.63,673.16v6.77h-1.85a1.13,1.13,0,0,1-1.14-1.12v-2.25a1.13,1.13,0,0,1,1.14-1.14h1.85"/><path class="cls-5" d="M149.5,675.42H151a1.12,1.12,0,0,1,1.11,1.14v3.37h-1.85a1.13,1.13,0,1,1,0-2.26h1.85"/><polyline class="cls-5" points="145.36 679.93 145.36 675.42 147.61 675.42 147.61 676.19"/><polyline class="cls-5" points="139.36 674.67 140.85 673.16 140.85 679.93"/><polyline class="cls-5" points="134.83 673.93 134.83 673.16 137.85 673.16 136.34 679.93"/><ellipse class="cls-5" cx="131.83" cy="676.56" rx="1.27" ry="3.5"/><line class="cls-5" x1="128.83" y1="679.56" x2="128.83" y2="679.93"/><path class="cls-5" d="M125.17,673.53a5.78,5.78,0,0,0,0,6.05.74.74,0,0,0,1.27,0,5.65,5.65,0,0,0,0-6.05A.75.75,0,0,0,125.17,673.53Z"/><line class="cls-5" x1="119.81" y1="677.67" x2="122.81" y2="677.67"/><path class="cls-5" d="M157.4,560.36v6.77h-1.88a1.12,1.12,0,0,1-1.14-1.11v-2.26a1.13,1.13,0,0,1,1.14-1.14h1.88"/><path class="cls-5" d="M150.27,562.62h1.48a1.13,1.13,0,0,1,1.14,1.14v3.37H151a1.12,1.12,0,0,1-1.14-1.11,1.14,1.14,0,0,1,1.14-1.15h1.88"/><polyline class="cls-5" points="146.13 567.13 146.13 562.62 148.38 562.62 148.38 563.39"/><path class="cls-5" d="M141.62,567.13h-3c.93-1.46,1.86-3,2.79-4.4a1.56,1.56,0,0,0-.69-2.23,1.54,1.54,0,0,0-2.1,1"/><path class="cls-5" d="M137.08,564.13H135.6a1.5,1.5,0,0,1-1.52-1.51v-.74a1.5,1.5,0,1,1,3,0v2.25a3.07,3.07,0,0,1-2.25,3"/><path class="cls-5" d="M130.45,560.74a5.64,5.64,0,0,0,0,6,.74.74,0,0,0,1.27,0,5.76,5.76,0,0,0,0-6A.74.74,0,0,0,130.45,560.74Z"/><line class="cls-5" x1="128.06" y1="566.76" x2="128.06" y2="567.13"/><ellipse class="cls-5" cx="125.06" cy="563.76" rx="1.27" ry="3.5"/><line class="cls-5" x1="119.04" y1="564.87" x2="122.07" y2="564.87"/><path class="cls-5" d="M157.4,447.57v6.76h-1.88a1.12,1.12,0,0,1-1.14-1.11V451a1.13,1.13,0,0,1,1.14-1.14h1.88"/><path class="cls-5" d="M150.27,449.82h1.48a1.13,1.13,0,0,1,1.14,1.14v3.37H151a1.13,1.13,0,1,1,0-2.25h1.88"/><polyline class="cls-5" points="146.13 454.33 146.13 449.82 148.38 449.82 148.38 450.59"/><path class="cls-5" d="M141.62,454.33h-3l2.79-4.4a1.54,1.54,0,1,0-2.79-1.22"/><path class="cls-5" d="M137.08,451.33H135.6a1.5,1.5,0,0,1-1.52-1.51v-.74a1.5,1.5,0,1,1,3,0v2.25a3.07,3.07,0,0,1-2.25,3"/><path class="cls-5" d="M130.45,447.94a5.65,5.65,0,0,0,0,6.05.75.75,0,0,0,1.27,0,5.78,5.78,0,0,0,0-6.05A.74.74,0,0,0,130.45,447.94Z"/><line class="cls-5" x1="128.06" y1="453.96" x2="128.06" y2="454.33"/><ellipse class="cls-5" cx="125.06" cy="450.96" rx="1.27" ry="3.5"/><line class="cls-5" x1="119.04" y1="452.08" x2="122.07" y2="452.08"/><path class="cls-5" d="M157.4,334.77v6.76h-1.88a1.12,1.12,0,0,1-1.14-1.11v-2.26a1.13,1.13,0,0,1,1.14-1.14h1.88"/><path class="cls-5" d="M150.27,337h1.48a1.13,1.13,0,0,1,1.14,1.14v3.37H151a1.13,1.13,0,1,1,0-2.25h1.88"/><polyline class="cls-5" points="146.13 341.53 146.13 337.02 148.38 337.02 148.38 337.79"/><path class="cls-5" d="M140.11,337.79a1.51,1.51,0,0,1,1.51,1.49v.77a1.5,1.5,0,0,1-1.51,1.48h-1.52"/><path class="cls-5" d="M138.59,334.77h1.52a1.51,1.51,0,0,1,0,3h-.75"/><path class="cls-5" d="M137.08,338.54H135.6a1.51,1.51,0,0,1-1.52-1.52v-.74a1.5,1.5,0,1,1,3,0v2.26a3.07,3.07,0,0,1-2.25,3"/><path class="cls-5" d="M132.57,341.53h-3l2.79-4.4a1.54,1.54,0,1,0-2.79-1.22"/><line class="cls-5" x1="128.06" y1="341.16" x2="128.06" y2="341.53"/><ellipse class="cls-5" cx="125.06" cy="338.16" rx="1.27" ry="3.5"/><line class="cls-5" x1="119.04" y1="339.28" x2="122.07" y2="339.28"/><path class="cls-5" d="M157.4,222v6.79h-1.88a1.15,1.15,0,0,1-1.14-1.14v-2.25a1.14,1.14,0,0,1,1.14-1.15h1.88"/><path class="cls-5" d="M150.27,224.22h1.48a1.14,1.14,0,0,1,1.14,1.15v3.39H151a1.14,1.14,0,0,1,0-2.28h1.88"/><polyline class="cls-5" points="146.13 228.76 146.13 224.22 148.38 224.22 148.38 224.99"/><path class="cls-5" d="M140.11,225a1.51,1.51,0,0,1,1.51,1.49v.77a1.52,1.52,0,0,1-3,0v-.77a1.51,1.51,0,0,1,1.52-1.49,1.51,1.51,0,1,0-1.52-1.51A1.53,1.53,0,0,0,140.11,225Z"/><path class="cls-5" d="M137.08,228.76h-3c.93-1.48,1.86-3,2.79-4.43a1.54,1.54,0,1,0-2.79-1.22"/><path class="cls-5" d="M129.57,225h1.52a1.49,1.49,0,0,1,1.48,1.49v.77a1.5,1.5,0,1,1-3,0V225a3.16,3.16,0,0,1,2.26-3"/><line class="cls-5" x1="128.06" y1="228.36" x2="128.06" y2="228.76"/><ellipse class="cls-5" cx="125.06" cy="225.37" rx="1.27" ry="3.5"/><line class="cls-5" x1="119.04" y1="226.48" x2="122.07" y2="226.48"/><path class="cls-5" d="M157,109.17V116h-1.88a1.15,1.15,0,0,1-1.14-1.14v-2.25a1.13,1.13,0,0,1,1.14-1.14H157"/><path class="cls-5" d="M149.87,111.43h1.51a1.13,1.13,0,0,1,1.14,1.14V116h-1.88a1.14,1.14,0,1,1,0-2.28h1.88"/><polyline class="cls-5" points="145.73 115.96 145.73 111.43 148.01 111.43 148.01 112.2"/><polyline class="cls-5" points="138.22 109.94 138.22 109.17 141.22 109.17 139.74 115.96"/><line class="cls-5" x1="135.6" y1="112.94" x2="135.6" y2="115.96"/><polyline class="cls-5" points="134.46 109.17 132.97 114.45 136.71 114.45"/><path class="cls-5" d="M129.31,109.54a5.78,5.78,0,0,0,0,6,.74.74,0,0,0,1.27,0,5.65,5.65,0,0,0,0-6A.75.75,0,0,0,129.31,109.54Z"/><line class="cls-5" x1="126.95" y1="115.56" x2="126.95" y2="115.96"/><polyline class="cls-5" points="123.92 110.68 125.44 109.17 125.44 115.96"/><line class="cls-5" x1="119.41" y1="113.68" x2="122.44" y2="113.68"/><path class="cls-5" d="M333,712.66h-1.51a1.5,1.5,0,0,1-1.51-1.48v-.77a1.51,1.51,0,0,1,3,0v2.25a3.17,3.17,0,0,1-2.25,3"/><path class="cls-5" d="M328.48,712.66H327a1.5,1.5,0,0,1-1.51-1.48v-.77a1.51,1.51,0,0,1,3,0v2.25a3.17,3.17,0,0,1-2.25,3"/><line class="cls-5" x1="323.97" y1="715.32" x2="323.97" y2="715.69"/><path class="cls-5" d="M321,711.92a1.51,1.51,0,0,1,1.51,1.51v.75a1.51,1.51,0,0,1-3,0v-.75a1.51,1.51,0,0,1,1.51-1.51,1.5,1.5,0,1,0-1.51-1.51A1.51,1.51,0,0,0,321,711.92Z"/><path class="cls-5" d="M293.89,711.84a1.49,1.49,0,0,1,1.49,1.49v.77a1.49,1.49,0,0,1-1.49,1.48h-1.51"/><path class="cls-5" d="M292.38,708.82h1.51a1.51,1.51,0,0,1,0,3h-.77"/><path class="cls-5" d="M288.74,709.19a5.69,5.69,0,0,0,0,6,.76.76,0,0,0,1.28,0,5.78,5.78,0,0,0,0-6A.75.75,0,0,0,288.74,709.19Z"/><line class="cls-5" x1="286.36" y1="715.21" x2="286.36" y2="715.58"/><path class="cls-5" d="M284.87,712.58h-1.51a1.51,1.51,0,0,1-1.51-1.51v-.74a1.51,1.51,0,0,1,3,0v2.25a3.11,3.11,0,0,1-2.25,3"/><path class="cls-5" d="M257.79,712.48h-1.52a1.49,1.49,0,0,1-1.48-1.49v-.77a1.48,1.48,0,0,1,1.48-1.48,1.49,1.49,0,0,1,1.52,1.48v2.26a3.16,3.16,0,0,1-2.26,3"/><path class="cls-5" d="M251.13,709.08a5.78,5.78,0,0,0,0,6,.74.74,0,0,0,1.27,0,5.65,5.65,0,0,0,0-6A.74.74,0,0,0,251.13,709.08Z"/><line class="cls-5" x1="248.77" y1="715.13" x2="248.77" y2="715.5"/><path class="cls-5" d="M247.25,712.48h-1.48a1.49,1.49,0,0,1-1.51-1.49v-.77a1.5,1.5,0,0,1,3,0v2.26a3.13,3.13,0,0,1-2.25,3"/><path class="cls-5" d="M217.94,711.66a1.49,1.49,0,0,1,1.49,1.48v.77a1.49,1.49,0,0,1-1.49,1.49h-1.51"/><path class="cls-5" d="M216.43,708.63h1.51a1.52,1.52,0,0,1,0,3h-.77"/><polyline class="cls-5" points="213.43 710.14 214.92 708.63 214.92 715.4"/><line class="cls-5" x1="211.92" y1="715.02" x2="211.92" y2="715.4"/><path class="cls-5" d="M210.41,712.4h-1.49a1.5,1.5,0,0,1-1.51-1.51v-.75a1.5,1.5,0,1,1,3,0v2.26a3.11,3.11,0,0,1-2.26,3"/><polyline class="cls-5" points="179.58 709.51 179.58 708.76 182.58 708.76 181.09 715.53"/><path class="cls-5" d="M176,709.11a5.69,5.69,0,0,0,0,6.07.74.74,0,0,0,1.27,0,5.81,5.81,0,0,0,0-6.07A.77.77,0,0,0,176,709.11Z"/><line class="cls-5" x1="173.56" y1="715.16" x2="173.56" y2="715.53"/><path class="cls-5" d="M172.07,712.53h-1.51a1.53,1.53,0,0,1-1.51-1.51v-.74a1.51,1.51,0,1,1,3,0v2.25a3.16,3.16,0,0,1-2.25,3"/><path class="cls-5" d="M143.48,712a1.49,1.49,0,0,1,1.51,1.48v.77a1.5,1.5,0,0,1-3,0v-.77a1.48,1.48,0,0,1,1.49-1.48,1.52,1.52,0,1,0-1.49-1.51A1.52,1.52,0,0,0,143.48,712Z"/><path class="cls-5" d="M140.48,712.69H139a1.49,1.49,0,0,1-1.49-1.51v-.74a1.5,1.5,0,1,1,3,0v2.25a3.13,3.13,0,0,1-2.26,3"/><line class="cls-5" x1="135.97" y1="715.32" x2="135.97" y2="715.69"/><path class="cls-5" d="M133,712a1.49,1.49,0,0,1,1.49,1.48v.77a1.5,1.5,0,0,1-3,0v-.77A1.48,1.48,0,0,1,133,712a1.52,1.52,0,1,0-1.51-1.51A1.51,1.51,0,0,0,133,712Z"/><polyline class="cls-5" points="329.97 597.11 329.97 596.34 332.99 596.34 331.48 603.1"/><path class="cls-5" d="M327,599.36a1.5,1.5,0,0,1,1.51,1.49v.77a1.51,1.51,0,0,1-3,0v-.77a1.5,1.5,0,0,1,1.51-1.49,1.51,1.51,0,1,0-1.51-1.51A1.53,1.53,0,0,0,327,599.36Z"/><line class="cls-5" x1="323.97" y1="602.73" x2="323.97" y2="603.1"/><path class="cls-5" d="M321,599.36a1.5,1.5,0,0,1,1.51,1.49v.77a1.51,1.51,0,0,1-3,0v-.77a1.5,1.5,0,0,1,1.51-1.49,1.51,1.51,0,1,0-1.51-1.51A1.53,1.53,0,0,0,321,599.36Z"/><path class="cls-5" d="M295.38,599.87h-1.49a1.49,1.49,0,0,1-1.51-1.49v-.77a1.5,1.5,0,0,1,3,0v2.26a3.14,3.14,0,0,1-2.26,3"/><path class="cls-5" d="M290.87,599.87h-1.49a1.49,1.49,0,0,1-1.51-1.49v-.77a1.5,1.5,0,0,1,3,0v2.26a3.14,3.14,0,0,1-2.26,3"/><line class="cls-5" x1="286.36" y1="602.52" x2="286.36" y2="602.89"/><path class="cls-5" d="M283.36,599.12a1.52,1.52,0,0,1,1.51,1.51v.75a1.51,1.51,0,0,1-3,0v-.75a1.52,1.52,0,0,1,1.51-1.51,1.5,1.5,0,1,0-1.51-1.51A1.51,1.51,0,0,0,283.36,599.12Z"/><polyline class="cls-5" points="254.79 597.37 256.27 595.89 256.27 602.65"/><polyline class="cls-5" points="251.76 597.37 253.28 595.89 253.28 602.65"/><line class="cls-5" x1="250.28" y1="602.28" x2="250.28" y2="602.65"/><path class="cls-5" d="M248.77,599.63h-1.52a1.49,1.49,0,0,1-1.48-1.49v-.77a1.48,1.48,0,0,1,1.48-1.48,1.49,1.49,0,0,1,1.52,1.48v2.26a3.16,3.16,0,0,1-2.26,3"/><path class="cls-5" d="M218.68,599.15a1.5,1.5,0,0,1,1.52,1.48v.77a1.52,1.52,0,0,1-3,0v-.77a1.5,1.5,0,0,1,1.51-1.48,1.52,1.52,0,1,0-1.51-1.51A1.53,1.53,0,0,0,218.68,599.15Z"/><path class="cls-5" d="M215.69,599.89h-1.52a1.51,1.51,0,0,1-1.51-1.51v-.74a1.52,1.52,0,1,1,3,0v2.25a3.1,3.1,0,0,1-2.26,3"/><line class="cls-5" x1="211.18" y1="602.52" x2="211.18" y2="602.89"/><path class="cls-5" d="M208.15,599.15a1.48,1.48,0,0,1,1.51,1.48v.77a1.5,1.5,0,0,1-3,0v-.77a1.48,1.48,0,0,1,1.48-1.48,1.52,1.52,0,1,0-1.48-1.51A1.51,1.51,0,0,0,208.15,599.15Z"/><polyline class="cls-5" points="179.58 597.26 179.58 596.52 182.58 596.52 181.09 603.29"/><polyline class="cls-5" points="175.07 597.26 175.07 596.52 178.07 596.52 176.58 603.29"/><line class="cls-5" x1="173.56" y1="602.92" x2="173.56" y2="603.29"/><path class="cls-5" d="M170.56,599.52a1.53,1.53,0,0,1,1.51,1.51v.75a1.51,1.51,0,0,1-3,0V601a1.53,1.53,0,0,1,1.51-1.51,1.5,1.5,0,1,0-1.51-1.49A1.5,1.5,0,0,0,170.56,599.52Z"/><polyline class="cls-5" points="141.99 597.66 141.99 596.92 144.99 596.92 143.47 603.68"/><path class="cls-5" d="M140.48,596.92h-3v3H139a1.5,1.5,0,0,1,1.51,1.51v.74a1.52,1.52,0,0,1-1.51,1.52h-1.49"/><line class="cls-5" x1="135.97" y1="603.31" x2="135.97" y2="603.69"/><path class="cls-5" d="M133,599.92a1.49,1.49,0,0,1,1.49,1.51v.74a1.5,1.5,0,1,1-3,0v-.74a1.49,1.49,0,0,1,1.51-1.51,1.5,1.5,0,1,0-1.51-1.51A1.49,1.49,0,0,0,133,599.92Z"/><polyline class="cls-5" points="329.97 484.87 329.97 484.12 332.99 484.12 331.48 490.89"/><path class="cls-5" d="M328.48,484.12h-3v3H327a1.51,1.51,0,0,1,1.51,1.51v.74a1.53,1.53,0,0,1-1.51,1.52h-1.51"/><line class="cls-5" x1="323.97" y1="490.52" x2="323.97" y2="490.89"/><path class="cls-5" d="M321,487.12a1.51,1.51,0,0,1,1.51,1.51v.74a1.51,1.51,0,1,1-3,0v-.74a1.51,1.51,0,0,1,1.51-1.51,1.5,1.5,0,1,0-1.51-1.51A1.51,1.51,0,0,0,321,487.12Z"/><polyline class="cls-5" points="292.38 484.31 292.38 483.54 295.38 483.54 293.89 490.3"/><path class="cls-5" d="M289.38,486.56a1.49,1.49,0,0,1,1.49,1.49v.77a1.5,1.5,0,0,1-3,0v-.77a1.49,1.49,0,0,1,1.51-1.49,1.51,1.51,0,1,0-1.51-1.51A1.51,1.51,0,0,0,289.38,486.56Z"/><line class="cls-5" x1="286.36" y1="489.93" x2="286.36" y2="490.3"/><path class="cls-5" d="M283.36,486.56a1.51,1.51,0,0,1,1.51,1.49v.77a1.51,1.51,0,0,1-3,0v-.77a1.51,1.51,0,0,1,1.51-1.49,1.51,1.51,0,1,0-1.51-1.51A1.53,1.53,0,0,0,283.36,486.56Z"/><path class="cls-5" d="M257.79,486.88h-1.52a1.48,1.48,0,0,1-1.48-1.48v-.77a1.48,1.48,0,0,1,1.48-1.49,1.49,1.49,0,0,1,1.52,1.49v2.25a3.17,3.17,0,0,1-2.26,3"/><path class="cls-5" d="M251.13,483.49a5.76,5.76,0,0,0,0,6,.74.74,0,0,0,1.27,0,5.64,5.64,0,0,0,0-6A.74.74,0,0,0,251.13,483.49Z"/><line class="cls-5" x1="248.77" y1="489.53" x2="248.77" y2="489.91"/><path class="cls-5" d="M247.25,486.88h-1.48a1.48,1.48,0,0,1-1.51-1.48v-.77a1.5,1.5,0,0,1,3,0v2.25a3.13,3.13,0,0,1-2.25,3"/><polyline class="cls-5" points="217.17 484.87 217.17 484.12 220.19 484.12 218.68 490.89"/><path class="cls-5" d="M215.69,484.12h-3v3h1.51a1.51,1.51,0,0,1,1.52,1.51v.74a1.53,1.53,0,0,1-1.52,1.52h-1.51"/><line class="cls-5" x1="211.18" y1="490.52" x2="211.18" y2="490.89"/><path class="cls-5" d="M208.15,487.12a1.49,1.49,0,0,1,1.51,1.51v.74a1.5,1.5,0,1,1-3,0v-.74a1.48,1.48,0,0,1,1.48-1.51,1.5,1.5,0,1,0-1.48-1.51A1.49,1.49,0,0,0,208.15,487.12Z"/><path class="cls-5" d="M182.58,485.08h-3v3h1.51a1.49,1.49,0,0,1,1.49,1.49v.77a1.51,1.51,0,0,1-1.49,1.51h-1.51"/><path class="cls-5" d="M176,485.45a5.65,5.65,0,0,0,0,6.05.75.75,0,0,0,1.27,0,5.78,5.78,0,0,0,0-6.05A.74.74,0,0,0,176,485.45Z"/><line class="cls-5" x1="173.56" y1="491.47" x2="173.56" y2="491.87"/><path class="cls-5" d="M170.56,488.1a1.5,1.5,0,0,1,1.51,1.49v.77a1.51,1.51,0,0,1-3,0v-.77a1.5,1.5,0,0,1,1.51-1.49,1.51,1.51,0,1,0-1.51-1.51A1.53,1.53,0,0,0,170.56,488.1Z"/><line class="cls-5" x1="144.24" y1="489.8" x2="144.24" y2="492.8"/><polyline class="cls-5" points="143.1 486.03 141.62 491.29 145.36 491.29"/><path class="cls-5" d="M140.11,486h-3v3h1.51a1.53,1.53,0,0,1,1.52,1.51v.74a1.52,1.52,0,0,1-1.52,1.52h-1.51"/><line class="cls-5" x1="135.6" y1="492.43" x2="135.6" y2="492.8"/><polyline class="cls-5" points="131.09 486.77 131.09 486.03 134.08 486.03 132.57 492.8"/><line class="cls-5" x1="332.22" y1="379.81" x2="332.22" y2="382.84"/><polyline class="cls-5" points="331.11 376.07 329.6 381.32 333.37 381.32"/><path class="cls-5" d="M326,376.42a5.69,5.69,0,0,0,0,6.05.76.76,0,0,0,1.28,0,5.78,5.78,0,0,0,0-6.05A.75.75,0,0,0,326,376.42Z"/><line class="cls-5" x1="323.58" y1="382.47" x2="323.58" y2="382.84"/><path class="cls-5" d="M319.07,379.07h1.51a1.51,1.51,0,0,1,1.51,1.51v.75a1.51,1.51,0,0,1-3,0v-2.26a3.09,3.09,0,0,1,2.25-3"/><path class="cls-5" d="M295.38,381.35h-3q1.39-2.19,2.78-4.43a1.53,1.53,0,1,0-2.78-1.19"/><path class="cls-5" d="M289.38,377.58a1.51,1.51,0,0,1,1.49,1.52v.77a1.5,1.5,0,0,1-3,0v-.77a1.51,1.51,0,0,1,1.51-1.52,1.5,1.5,0,1,0-1.51-1.48A1.49,1.49,0,0,0,289.38,377.58Z"/><line class="cls-5" x1="286.36" y1="380.98" x2="286.36" y2="381.35"/><path class="cls-5" d="M281.85,377.58h1.51a1.53,1.53,0,0,1,1.51,1.52v.77a1.51,1.51,0,0,1-3,0v-2.29a3.16,3.16,0,0,1,2.25-3"/><path class="cls-5" d="M256.27,376a1.5,1.5,0,0,1,1.52,1.49v.77a1.49,1.49,0,0,1-1.52,1.48,1.48,1.48,0,0,1-1.48-1.48v-.77a1.49,1.49,0,0,1,1.48-1.49,1.51,1.51,0,1,0-1.48-1.51A1.52,1.52,0,0,0,256.27,376Z"/><path class="cls-5" d="M250.28,376h1.48a1.5,1.5,0,0,1,1.52,1.49v.77a1.49,1.49,0,0,1-1.52,1.48,1.48,1.48,0,0,1-1.48-1.48V376a3.13,3.13,0,0,1,2.25-3"/><line class="cls-5" x1="248.77" y1="379.36" x2="248.77" y2="379.73"/><polyline class="cls-5" points="244.26 373.74 244.26 372.97 247.25 372.97 245.77 379.73"/><polyline class="cls-5" points="217.17 372.07 217.17 371.32 220.19 371.32 218.68 378.09"/><path class="cls-5" d="M215.69,371.32h-3v3h1.51a1.52,1.52,0,0,1,1.52,1.51v.75a1.53,1.53,0,0,1-1.52,1.51h-1.51"/><line class="cls-5" x1="211.18" y1="377.72" x2="211.18" y2="378.09"/><path class="cls-5" d="M208.15,374.32a1.5,1.5,0,0,1,1.51,1.51v.75a1.5,1.5,0,1,1-3,0v-.75a1.49,1.49,0,0,1,1.48-1.51,1.5,1.5,0,1,0-1.48-1.51A1.49,1.49,0,0,0,208.15,374.32Z"/><path class="cls-5" d="M182.58,377.58h-3c.93-1.45,1.86-2.94,2.79-4.4a1.58,1.58,0,0,0-.69-2.23,1.55,1.55,0,0,0-2.1,1"/><path class="cls-5" d="M176.58,373.84a1.49,1.49,0,0,1,1.49,1.49v.77a1.5,1.5,0,0,1-3,0v-.77a1.49,1.49,0,0,1,1.51-1.49,1.51,1.51,0,1,0-1.51-1.51A1.51,1.51,0,0,0,176.58,373.84Z"/><line class="cls-5" x1="173.56" y1="377.21" x2="173.56" y2="377.58"/><path class="cls-5" d="M170.56,373.84a1.51,1.51,0,0,1,1.51,1.49v.77a1.51,1.51,0,0,1-3,0v-.77a1.51,1.51,0,0,1,1.51-1.49,1.51,1.51,0,1,0-1.51-1.51A1.53,1.53,0,0,0,170.56,373.84Z"/><line class="cls-5" x1="144.24" y1="377" x2="144.24" y2="380"/><polyline class="cls-5" points="143.1 373.23 141.62 378.49 145.36 378.49"/><path class="cls-5" d="M140.11,373.23h-3v3h1.51a1.53,1.53,0,0,1,1.52,1.51v.75a1.51,1.51,0,0,1-1.52,1.51h-1.51"/><line class="cls-5" x1="135.6" y1="379.63" x2="135.6" y2="380"/><polyline class="cls-5" points="131.09 373.98 131.09 373.23 134.08 373.23 132.57 380"/><line class="cls-5" x1="332.22" y1="267.01" x2="332.22" y2="270.04"/><polyline class="cls-5" points="331.11 263.27 329.6 268.53 333.37 268.53"/><path class="cls-5" d="M326,263.62a5.69,5.69,0,0,0,0,6.05.75.75,0,0,0,1.28,0,5.78,5.78,0,0,0,0-6.05A.75.75,0,0,0,326,263.62Z"/><line class="cls-5" x1="323.58" y1="269.67" x2="323.58" y2="270.04"/><path class="cls-5" d="M319.07,266.27h1.51a1.52,1.52,0,0,1,1.51,1.51v.75a1.51,1.51,0,0,1-3,0v-2.26a3.13,3.13,0,0,1,2.25-3"/><path class="cls-5" d="M293.12,262.35a1.48,1.48,0,0,1,1.51,1.48v.77a1.51,1.51,0,0,1-1.51,1.51h-1.48"/><path class="cls-5" d="M291.64,259.32h1.48a1.52,1.52,0,0,1,0,3h-.74"/><polyline class="cls-5" points="288.61 260.83 290.12 259.32 290.12 266.11"/><line class="cls-5" x1="287.13" y1="265.72" x2="287.13" y2="266.11"/><path class="cls-5" d="M284.1,262.35a1.48,1.48,0,0,1,1.51,1.48v.77a1.5,1.5,0,1,1-3,0v-.77a1.48,1.48,0,0,1,1.48-1.48,1.52,1.52,0,1,0-1.48-1.52A1.51,1.51,0,0,0,284.1,262.35Z"/><line class="cls-5" x1="257.04" y1="264.2" x2="257.04" y2="267.2"/><polyline class="cls-5" points="255.9 260.44 254.42 265.71 258.16 265.71"/><path class="cls-5" d="M252.9,260.44h-3v3h1.51A1.53,1.53,0,0,1,252.9,265v.77a1.5,1.5,0,0,1-1.51,1.48h-1.51"/><line class="cls-5" x1="248.39" y1="266.83" x2="248.39" y2="267.2"/><polyline class="cls-5" points="243.88 261.18 243.88 260.44 246.88 260.44 245.37 267.2"/><path class="cls-5" d="M220.57,272.51h-3c.9-1.46,1.83-2.95,2.76-4.43a1.52,1.52,0,1,0-2.76-1.22"/><polyline class="cls-5" points="213.03 266.48 213.03 265.74 216.06 265.74 214.54 272.51"/><line class="cls-5" x1="211.55" y1="272.13" x2="211.55" y2="272.51"/><line class="cls-5" x1="208.92" y1="269.51" x2="208.92" y2="272.51"/><polyline class="cls-5" points="207.78 265.74 206.27 270.99 210.03 270.99"/><path class="cls-5" d="M181.46,273.06a1.52,1.52,0,0,1,1.52,1.52v.74a1.53,1.53,0,0,1-1.52,1.51H180"/><path class="cls-5" d="M180,270.07h1.51a1.5,1.5,0,1,1,0,3h-.74"/><line class="cls-5" x1="177.33" y1="273.81" x2="177.33" y2="276.83"/><polyline class="cls-5" points="176.19 270.07 174.7 275.32 178.47 275.32"/><line class="cls-5" x1="173.19" y1="276.43" x2="173.19" y2="276.83"/><path class="cls-5" d="M171.67,276.83h-3c.93-1.49,1.85-3,2.78-4.43a1.57,1.57,0,0,0-.69-2.23,1.54,1.54,0,0,0-2.09,1"/><polyline class="cls-5" points="141.99 274.13 141.99 273.36 144.99 273.36 143.47 280.12"/><path class="cls-5" d="M137.48,276.38H139a1.49,1.49,0,0,1,1.51,1.48v.77a1.5,1.5,0,0,1-3,0v-2.25a3.11,3.11,0,0,1,2.25-3"/><line class="cls-5" x1="135.97" y1="279.75" x2="135.97" y2="280.12"/><path class="cls-5" d="M132.33,273.73a5.69,5.69,0,0,0,0,6,.76.76,0,0,0,1.28,0,5.78,5.78,0,0,0,0-6A.75.75,0,0,0,132.33,273.73Z"/><path class="cls-5" d="M332.22,174.72h1.52a1.51,1.51,0,0,1,1.51,1.49V177a1.52,1.52,0,0,1-3,0v-2.26a3.16,3.16,0,0,1,2.26-3"/><path class="cls-5" d="M330.74,178.46h-3l2.79-4.4a1.54,1.54,0,1,0-2.79-1.22"/><line class="cls-5" x1="326.23" y1="178.09" x2="326.23" y2="178.46"/><path class="cls-5" d="M324.72,171.7h-3v3h1.48a1.5,1.5,0,0,1,1.52,1.49V177a1.49,1.49,0,0,1-1.52,1.48h-1.48"/><line class="cls-5" x1="317.18" y1="176.21" x2="320.21" y2="176.21"/><line class="cls-5" x1="294.63" y1="154.22" x2="294.63" y2="157.24"/><polyline class="cls-5" points="293.52 150.48 292.01 155.73 295.77 155.73"/><path class="cls-5" d="M288.35,150.82a5.78,5.78,0,0,0,0,6.05.77.77,0,0,0,1.3,0,5.78,5.78,0,0,0,0-6.05A.77.77,0,0,0,288.35,150.82Z"/><line class="cls-5" x1="285.99" y1="156.87" x2="285.99" y2="157.24"/><path class="cls-5" d="M281.48,153.47H283a1.49,1.49,0,0,1,1.48,1.52v.74a1.5,1.5,0,1,1-3,0v-2.26a3.11,3.11,0,0,1,2.25-3"/><polyline class="cls-5" points="254.79 151.17 254.79 150.42 257.79 150.42 256.27 157.19"/><path class="cls-5" d="M251.13,150.77a5.81,5.81,0,0,0,0,6.07.77.77,0,0,0,1.27,0,5.69,5.69,0,0,0,0-6.07A.74.74,0,0,0,251.13,150.77Z"/><line class="cls-5" x1="248.77" y1="156.82" x2="248.77" y2="157.19"/><path class="cls-5" d="M244.26,153.42h1.51a1.5,1.5,0,0,1,1.48,1.51v.75a1.5,1.5,0,1,1-3,0v-2.26a3.1,3.1,0,0,1,2.25-3"/><polyline class="cls-5" points="217.17 161.33 217.17 160.56 220.19 160.56 218.68 167.35"/><path class="cls-5" d="M212.66,163.58h1.51a1.51,1.51,0,0,1,1.52,1.49v.77a1.52,1.52,0,0,1-3,0v-2.26a3.15,3.15,0,0,1,2.26-3"/><line class="cls-5" x1="211.18" y1="166.95" x2="211.18" y2="167.35"/><path class="cls-5" d="M207.51,160.93a5.78,5.78,0,0,0,0,6,.76.76,0,0,0,1.28,0,5.65,5.65,0,0,0,0-6A.75.75,0,0,0,207.51,160.93Z"/><path class="cls-5" d="M185.23,169.82h-3v3h1.51a1.53,1.53,0,0,1,1.51,1.52v.74a1.53,1.53,0,0,1-1.51,1.51h-1.51"/><path class="cls-5" d="M180.72,176.58h-3l2.78-4.43a1.53,1.53,0,0,0-.69-2.2,1.51,1.51,0,0,0-2.09,1"/><line class="cls-5" x1="176.18" y1="176.21" x2="176.18" y2="176.58"/><line class="cls-5" x1="173.56" y1="173.56" x2="173.56" y2="176.58"/><polyline class="cls-5" points="172.44 169.81 170.93 175.07 174.7 175.07"/><line class="cls-5" x1="166.42" y1="174.33" x2="169.42" y2="174.33"/><path class="cls-5" d="M146.5,197.11a1.53,1.53,0,0,1,1.51,1.52v.76a1.51,1.51,0,0,1-3,0v-.76a1.53,1.53,0,0,1,1.51-1.52,1.5,1.5,0,1,0-1.51-1.48A1.5,1.5,0,0,0,146.5,197.11Z"/><polyline class="cls-5" points="141.99 195.63 143.47 194.12 143.47 200.88"/><line class="cls-5" x1="140.48" y1="200.51" x2="140.48" y2="200.88"/><polyline class="cls-5" points="135.97 194.86 135.97 194.12 138.97 194.12 137.48 200.88"/><polyline class="cls-5" points="132.97 195.63 134.46 194.12 134.46 200.88"/><line class="cls-5" x1="128.43" y1="198.63" x2="131.46" y2="198.63"/><path class="cls-5" d="M298.77,96.07a1.53,1.53,0,0,1,1.51,1.51v.74a1.51,1.51,0,0,1-1.51,1.51h-1.51"/><path class="cls-5" d="M297.26,93.07h1.51a1.5,1.5,0,1,1,0,3H298"/><line class="cls-5" x1="294.63" y1="96.84" x2="294.63" y2="99.83"/><polyline class="cls-5" points="293.52 93.07 292.01 98.32 295.77 98.32"/><line class="cls-5" x1="290.49" y1="99.46" x2="290.49" y2="99.83"/><path class="cls-5" d="M287.5,96.07A1.5,1.5,0,0,1,289,97.58v.74a1.48,1.48,0,0,1-1.48,1.51H286"/><path class="cls-5" d="M286,93.07h1.51a1.5,1.5,0,0,1,0,3h-.77"/><path class="cls-5" d="M284.47,99.83h-3l2.78-4.43a1.53,1.53,0,1,0-2.78-1.19"/><line class="cls-5" x1="276.97" y1="97.58" x2="279.96" y2="97.58"/><path class="cls-5" d="M257,61.92h1.49A1.49,1.49,0,0,1,260,63.41v.77a1.5,1.5,0,0,1-3,0V61.92a3.13,3.13,0,0,1,2.26-3"/><path class="cls-5" d="M255.53,65.67h-3c.93-1.46,1.83-3,2.76-4.41A1.53,1.53,0,1,0,252.53,60"/><line class="cls-5" x1="251.02" y1="65.29" x2="251.02" y2="65.67"/><path class="cls-5" d="M249.51,58.9h-3v3H248a1.49,1.49,0,0,1,1.49,1.49v.77A1.49,1.49,0,0,1,248,65.67h-1.51"/><line class="cls-5" x1="242" y1="63.41" x2="245" y2="63.41"/><line class="cls-5" x1="219.43" y1="47.25" x2="219.43" y2="50.25"/><polyline class="cls-5" points="218.31 43.49 216.8 48.77 220.57 48.77"/><path class="cls-5" d="M215.31,47.25H213.8a1.51,1.51,0,0,1-1.51-1.51V45a1.51,1.51,0,0,1,3,0v2.25a3.11,3.11,0,0,1-2.28,3"/><line class="cls-5" x1="210.78" y1="49.88" x2="210.78" y2="50.25"/><path class="cls-5" d="M209.29,50.25h-3c.93-1.46,1.85-2.94,2.78-4.4a1.54,1.54,0,1,0-2.78-1.22"/><path class="cls-5" d="M184.09,84.34a1.5,1.5,0,0,1,1.51,1.49v.77a1.51,1.51,0,0,1-3,0v-.77a1.5,1.5,0,0,1,1.51-1.49,1.51,1.51,0,1,0-1.51-1.51A1.53,1.53,0,0,0,184.09,84.34Z"/><polyline class="cls-5" points="179.58 82.83 181.09 81.32 181.09 88.08"/><line class="cls-5" x1="178.07" y1="87.71" x2="178.07" y2="88.08"/><polyline class="cls-5" points="173.56 82.06 173.56 81.32 176.58 81.32 175.07 88.08"/><polyline class="cls-5" points="170.56 82.83 172.07 81.32 172.07 88.08"/><line class="cls-5" x1="166.05" y1="85.83" x2="169.05" y2="85.83"/><line class="cls-6" x1="288.61" y1="672.79" x2="288.61" y2="671.29"/><line class="cls-7" x1="288.61" y1="668.28" x2="288.61" y2="585.57"/><line class="cls-6" x1="288.61" y1="584.07" x2="288.61" y2="582.57"/><line class="cls-6" x1="288.61" y1="559.99" x2="288.61" y2="558.49"/><line class="cls-7" x1="288.61" y1="555.49" x2="288.61" y2="472.77"/><line class="cls-6" x1="288.61" y1="471.27" x2="288.61" y2="469.77"/><line class="cls-6" x1="213.43" y1="447.2" x2="213.43" y2="445.7"/><line class="cls-7" x1="213.43" y1="442.69" x2="213.43" y2="359.98"/><line class="cls-6" x1="213.43" y1="358.47" x2="213.43" y2="356.97"/><line class="cls-5" x1="326.23" y1="334.4" x2="326.23" y2="244.17"/><line class="cls-6" x1="288.61" y1="221.6" x2="288.61" y2="220.1"/><line class="cls-7" x1="288.61" y1="217.09" x2="288.61" y2="134.38"/><line class="cls-6" x1="288.61" y1="132.88" x2="288.61" y2="131.38"/><line class="cls-6" x1="251.02" y1="108.8" x2="251.02" y2="107.3"/><line class="cls-7" x1="251.02" y1="104.29" x2="251.02" y2="21.58"/><line class="cls-6" x1="251.02" y1="20.08" x2="251.02" y2="18.58"/><line class="cls-6" x1="213.43" y1="672.79" x2="213.43" y2="671.29"/><line class="cls-7" x1="213.43" y1="668.28" x2="213.43" y2="585.57"/><line class="cls-6" x1="213.43" y1="584.07" x2="213.43" y2="582.57"/><line class="cls-6" x1="213.43" y1="559.99" x2="213.43" y2="558.49"/><line class="cls-7" x1="213.43" y1="555.49" x2="213.43" y2="472.77"/><line class="cls-6" x1="213.43" y1="471.27" x2="213.43" y2="469.77"/><line class="cls-5" x1="138.22" y1="447.19" x2="138.22" y2="356.97"/><line class="cls-6" x1="251.02" y1="334.4" x2="251.02" y2="332.9"/><line class="cls-7" x1="251.02" y1="329.89" x2="251.02" y2="247.18"/><line class="cls-6" x1="251.02" y1="245.67" x2="251.02" y2="244.17"/><line class="cls-6" x1="213.43" y1="221.6" x2="213.43" y2="220.1"/><line class="cls-7" x1="213.43" y1="217.09" x2="213.43" y2="134.38"/><line class="cls-6" x1="213.43" y1="132.88" x2="213.43" y2="131.38"/><line class="cls-6" x1="175.81" y1="108.8" x2="175.81" y2="107.3"/><line class="cls-7" x1="175.81" y1="104.29" x2="175.81" y2="21.58"/><line class="cls-6" x1="175.81" y1="20.08" x2="175.81" y2="18.58"/><rect class="cls-6" x="138.22" y="695.34" width="188.01" height="90.25"/><polyline class="cls-2" points="138.22 716.09 175.81 715.9 213.43 715.77 251.02 715.87 288.61 715.98 326.23 716.06"/><rect class="cls-6" x="138.22" y="582.57" width="188.01" height="90.22"/><polyline class="cls-2" points="138.22 604.06 175.81 603.66 213.43 603.29 251.02 603.02 288.61 603.26 326.23 603.47"/><rect class="cls-6" x="138.22" y="469.77" width="188.01" height="90.22"/><polyline class="cls-2" points="138.22 493.17 175.81 492.24 213.43 491.26 251.02 490.28 288.61 490.7 326.23 491.26"/><rect class="cls-6" x="138.22" y="356.97" width="188.01" height="90.22"/><polyline class="cls-2" points="138.22 380.37 175.81 377.98 213.43 378.46 251.02 380.13 288.61 381.72 326.23 383.21"/><rect class="cls-6" x="138.22" y="244.17" width="188.01" height="90.22"/><polyline class="cls-2" points="138.22 280.52 175.81 277.2 213.43 272.88 251.02 267.57 288.61 266.48 326.23 270.41"/><polyline class="cls-2" points="138.22 201.25 175.81 176.95 213.43 167.72 251.02 157.56 288.61 157.61 326.23 178.86"/><polyline class="cls-2" points="175.81 88.45 213.43 50.62 251.02 66.06 288.61 100.2"/><line class="cls-8" x1="175.81" y1="108.8" x2="138.22" y2="131.38"/><line class="cls-8" x1="251.02" y1="108.8" x2="326.23" y2="131.38"/><line class="cls-8" x1="213.43" y1="221.6" x2="138.22" y2="244.17"/><line class="cls-8" x1="288.61" y1="221.6" x2="326.23" y2="244.17"/><line class="cls-8" x1="251.02" y1="334.4" x2="138.22" y2="356.97"/><line class="cls-8" x1="326.23" y1="334.4" x2="326.23" y2="356.97"/><line class="cls-8" x1="138.22" y1="447.19" x2="138.22" y2="469.77"/><line class="cls-8" x1="213.43" y1="447.19" x2="326.23" y2="469.77"/><line class="cls-8" x1="213.43" y1="559.99" x2="138.22" y2="582.57"/><line class="cls-8" x1="213.43" y1="672.79" x2="138.22" y2="695.34"/><line class="cls-8" x1="288.61" y1="559.99" x2="326.23" y2="582.57"/><line class="cls-8" x1="288.61" y1="672.79" x2="326.23" y2="695.34"/><rect class="cls-6" x="138.22" y="18.58" width="188.01" height="90.22"/><text class="cls-9" transform="translate(135.73 106.46) rotate(-90)">Ma<tspan class="cls-10" x="11.21" y="0">r</tspan><tspan x="13.82" y="0">gin(mm)</tspan></text><text class="cls-9" transform="translate(303.11 15.8)">Angle</text><rect class="cls-6" x="138.22" y="131.36" width="188.01" height="90.22"/><text class="cls-9" transform="translate(135.73 220.3) rotate(-90)">Ma<tspan class="cls-10" x="11.21" y="0">r</tspan><tspan x="13.82" y="0">gin(mm)</tspan></text><text class="cls-9" transform="translate(303.11 129.63)">Angle</text><text class="cls-9" transform="translate(135.73 332.96) rotate(-90)">Ma<tspan class="cls-10" x="11.21" y="0">r</tspan><tspan x="13.82" y="0">gin(mm)</tspan></text><text class="cls-9" transform="translate(303.11 242.3)">Angle</text><text class="cls-9" transform="translate(135.73 445.63) rotate(-90)">Ma<tspan class="cls-10" x="11.21" y="0">r</tspan><tspan x="13.82" y="0">gin(mm)</tspan></text><text class="cls-9" transform="translate(303.11 354.96)">Angle</text><text class="cls-9" transform="translate(135.73 558.3) rotate(-90)">Ma<tspan class="cls-10" x="11.21" y="0">r</tspan><tspan x="13.82" y="0">gin(mm)</tspan></text><text class="cls-9" transform="translate(303.11 467.63)">Angle</text><text class="cls-9" transform="translate(135.73 670.96) rotate(-90)">Ma<tspan class="cls-10" x="11.21" y="0">r</tspan><tspan x="13.82" y="0">gin(mm)</tspan></text><text class="cls-9" transform="translate(303.11 580.3)">Angle</text><text class="cls-9" transform="translate(135.73 783.63) rotate(-90)">Ma<tspan class="cls-10" x="11.21" y="0">r</tspan><tspan x="13.82" y="0">gin(mm)</tspan></text><text class="cls-9" transform="translate(303.11 692.96)">Angle</text></svg>