<svg xmlns="http://www.w3.org/2000/svg" viewBox="0 0 424.34 348.44"><defs><style>.cls-1{isolation:isolate;}.cls-10,.cls-2,.cls-26,.cls-28,.cls-31,.cls-33,.cls-34,.cls-35,.cls-4,.cls-5,.cls-7,.cls-9{fill:none;}.cls-12,.cls-13,.cls-2,.cls-32,.cls-34,.cls-35,.cls-4{stroke:#000;}.cls-2,.cls-26,.cls-28,.cls-32{stroke-linecap:round;}.cls-2,.cls-26,.cls-31,.cls-32{stroke-linejoin:round;}.cls-3{fill:#333;stroke:#333;}.cls-10,.cls-12,.cls-13,.cls-28,.cls-3,.cls-33,.cls-34,.cls-35,.cls-4,.cls-5,.cls-7,.cls-9{stroke-miterlimit:10;}.cls-4{stroke-width:0.05px;}.cls-5,.cls-9{stroke:lime;}.cls-6{fill:lime;}.cls-10,.cls-7{stroke:red;}.cls-8{fill:red;}.cls-10,.cls-35,.cls-9{stroke-width:0.5px;}.cls-11,.cls-12,.cls-13{mix-blend-mode:multiply;}.cls-12,.cls-30{fill:#f2f2f2;}.cls-12,.cls-13,.cls-26,.cls-28,.cls-33{stroke-width:0.25px;}.cls-12{stroke-dasharray:4 2;}.cls-13,.cls-32{fill:#e5e5e5;}.cls-14{font-size:7px;}.cls-14,.cls-23,.cls-36,.cls-40{font-family:MyriadPro-Regular, Myriad Pro;}.cls-15{letter-spacing:-0.04em;}.cls-16{letter-spacing:-0.01em;}.cls-17{letter-spacing:0em;}.cls-18{letter-spacing:-0.04em;}.cls-19{letter-spacing:-0.03em;}.cls-20{letter-spacing:0em;}.cls-21{letter-spacing:0.01em;}.cls-22{letter-spacing:-0.01em;}.cls-23{font-size:5px;}.cls-24{letter-spacing:0em;}.cls-25{letter-spacing:0em;}.cls-26,.cls-31{stroke:#7f7f7f;}.cls-27{fill:#7f7f7f;}.cls-28{stroke:#a8a8a8;}.cls-29{fill:#a8a8a8;}.cls-31{stroke-width:0.75px;}.cls-33{stroke:#b2b2b2;stroke-dasharray:1 1;}.cls-34{stroke-width:2px;}.cls-36,.cls-40{font-size:10px;}.cls-37{letter-spacing:-0.06em;}.cls-38{letter-spacing:-0.01em;}.cls-39{letter-spacing:0em;}.cls-40{letter-spacing:-0.03em;}</style></defs><g class="cls-1"><g id="Sample::Panel"><polygon class="cls-2" points="194.23 111.16 126.64 147.53 112.71 27.36 194.23 111.16"/></g><g id="Sample::Target"><polygon class="cls-2" points="317.01 129.44 418.32 129.44 418.32 113.53 366.85 78.99 401.39 26.66 317.01 26.66 317.01 129.44"/></g><g id="Sample::Critical"><rect class="cls-3" x="151.84" y="46.54" width="1.9" height="46.76" transform="translate(-5.49 126.34) rotate(-44.21)"/><rect class="cls-3" x="144.63" y="127.56" width="30.7" height="1.9" transform="translate(-41.79 91.14) rotate(-28.28)"/><rect class="cls-3" x="119.67" y="63.14" width="1.9" height="48.39" transform="matrix(0.99, -0.12, 0.12, 0.99, -9.25, 14.47)"/></g><g id="Layer_16" data-name="Layer 16"><line class="cls-4" x1="3.08" y1="277.93" x2="58.11" y2="277.93"/><line class="cls-4" x1="30.59" y1="305.45" x2="30.59" y2="250.41"/><line class="cls-5" x1="30.61" y1="277.93" x2="30.61" y2="247.48"/><polygon class="cls-6" points="33.52 249.46 30.61 238.62 27.71 249.46 33.52 249.46"/><line class="cls-7" x1="30.59" y1="277.93" x2="61.05" y2="277.93"/><polygon class="cls-8" points="59.06 280.83 69.91 277.93 59.06 275.02 59.06 280.83"/><line class="cls-4" x1="136.66" y1="136.51" x2="157.25" y2="136.51"/><line class="cls-4" x1="146.96" y1="146.8" x2="146.96" y2="126.21"/><line class="cls-9" x1="146.96" y1="136.51" x2="146.96" y2="126.23"/><polygon class="cls-6" points="148.42 127.22 146.96 121.8 145.51 127.22 148.42 127.22"/><line class="cls-10" x1="146.96" y1="136.51" x2="157.23" y2="136.51"/><polygon class="cls-8" points="156.24 137.96 161.66 136.51 156.24 135.06 156.24 137.96"/><line class="cls-4" x1="106.61" y1="63.4" x2="127.19" y2="63.4"/><line class="cls-4" x1="116.9" y1="73.7" x2="116.9" y2="53.11"/><line class="cls-9" x1="116.91" y1="63.4" x2="116.91" y2="53.12"/><polygon class="cls-6" points="118.36 54.12 116.91 48.7 115.45 54.12 118.36 54.12"/><line class="cls-10" x1="116.9" y1="63.4" x2="127.18" y2="63.4"/><polygon class="cls-8" points="126.19 64.85 131.61 63.4 126.19 61.95 126.19 64.85"/><line class="cls-4" x1="159.46" y1="85.94" x2="180.04" y2="85.94"/><line class="cls-4" x1="169.75" y1="96.23" x2="169.75" y2="75.65"/><line class="cls-9" x1="169.76" y1="85.94" x2="169.76" y2="75.66"/><polygon class="cls-6" points="171.21 76.65 169.76 71.23 168.3 76.65 171.21 76.65"/><line class="cls-10" x1="169.75" y1="85.94" x2="180.03" y2="85.94"/><polygon class="cls-8" points="179.03 87.39 184.46 85.94 179.03 84.49 179.03 87.39"/></g><g id="Sample::MainsTransform" class="cls-11"><polygon class="cls-12" points="200.89 270.55 302.19 270.55 302.19 254.65 250.72 220.11 285.27 167.78 200.89 167.78 200.89 270.55"/><polygon class="cls-12" points="178.03 321.15 279.34 321.15 279.34 305.25 227.87 270.7 262.41 218.38 178.03 218.38 178.03 321.15"/><polygon class="cls-12" points="230.91 343.76 332.22 343.76 332.22 327.86 280.75 293.31 315.29 240.99 230.91 240.99 230.91 343.76"/></g><g id="Sample::SubtractedTransform" class="cls-11"><polygon class="cls-13" points="279.34 316.88 260.47 304.22 227.87 270.7 240.28 251.9 210.63 251.9 210.63 321.15 279.34 321.15 279.34 316.88"/><polygon class="cls-13" points="280.75 293.31 275.18 245.25 277.99 240.99 230.91 240.99 230.91 295.69 284.3 295.69 280.75 293.31"/><polygon class="cls-13" points="275.16 269.2 223.69 234.65 258.23 182.33 200.89 182.33 200.88 270.55 275.16 270.55 275.16 269.2"/><text class="cls-14" transform="translate(92.58 268.67) rotate(-5.9)"><tspan class="cls-15">T</tspan><tspan class="cls-16" x="3.16" y="0">r</tspan><tspan x="5.42" y="0">ansl</tspan><tspan class="cls-17" x="17.1" y="0">a</tspan><tspan x="20.45" y="0">tion</tspan><tspan class="cls-18" x="32.13" y="0"> </tspan><tspan class="cls-19" x="33.36" y="0">V</tspan><tspan class="cls-20" x="37.04" y="0">e</tspan><tspan class="cls-21" x="40.54" y="0">c</tspan><tspan class="cls-22" x="43.77" y="0">t</tspan><tspan x="46.05" y="0">or</tspan></text><text class="cls-14" transform="translate(228.69 106.4) rotate(-5.9)"><tspan class="cls-15">T</tspan><tspan class="cls-16" x="3.16" y="0">r</tspan><tspan x="5.42" y="0">ansl</tspan><tspan class="cls-17" x="17.1" y="0">a</tspan><tspan x="20.45" y="0">tion</tspan><tspan class="cls-18" x="32.13" y="0"> </tspan><tspan class="cls-19" x="33.36" y="0">V</tspan><tspan class="cls-20" x="37.04" y="0">e</tspan><tspan class="cls-21" x="40.54" y="0">c</tspan><tspan class="cls-22" x="43.77" y="0">t</tspan><tspan x="46.05" y="0">or</tspan></text><text class="cls-14" transform="translate(197.7 138.25) rotate(-5.9)"><tspan class="cls-15">T</tspan><tspan class="cls-16" x="3.16" y="0">r</tspan><tspan x="5.42" y="0">ansl</tspan><tspan class="cls-17" x="17.1" y="0">a</tspan><tspan x="20.45" y="0">tion</tspan><tspan class="cls-18" x="32.13" y="0"> </tspan><tspan class="cls-19" x="33.36" y="0">V</tspan><tspan class="cls-20" x="37.04" y="0">e</tspan><tspan class="cls-21" x="40.54" y="0">c</tspan><tspan class="cls-22" x="43.77" y="0">t</tspan><tspan x="46.05" y="0">or</tspan></text><text class="cls-14" transform="translate(167.36 20.57) rotate(-5.9)"><tspan class="cls-15">T</tspan><tspan class="cls-16" x="3.16" y="0">r</tspan><tspan x="5.42" y="0">ansl</tspan><tspan class="cls-17" x="17.1" y="0">a</tspan><tspan x="20.45" y="0">tion</tspan><tspan class="cls-18" x="32.13" y="0"> </tspan><tspan class="cls-19" x="33.36" y="0">V</tspan><tspan class="cls-20" x="37.04" y="0">e</tspan><tspan class="cls-21" x="40.54" y="0">c</tspan><tspan class="cls-22" x="43.77" y="0">t</tspan><tspan x="46.05" y="0">or</tspan></text><text class="cls-23" transform="translate(148.62 63.38)"><tspan class="cls-24">C</tspan><tspan class="cls-25" x="2.89" y="0">r</tspan><tspan x="4.54" y="0">itical Line</tspan></text><text class="cls-23" transform="translate(166.05 130.77)"><tspan class="cls-24">C</tspan><tspan class="cls-25" x="2.89" y="0">r</tspan><tspan x="4.54" y="0">itical Line</tspan></text></g><g id="Sample::Transforms"><line class="cls-26" x1="169.77" y1="86.02" x2="33.39" y2="274.15"/><polygon class="cls-27" points="32.8 272.49 30.79 277.73 35.15 274.2 32.8 272.49"/><line class="cls-28" x1="418.32" y1="129.44" x2="281.94" y2="317.56"/><polygon class="cls-29" points="281.35 315.91 279.34 321.15 283.7 317.61 281.35 315.91"/><line class="cls-26" x1="116.89" y1="63.41" x2="32.44" y2="273.62"/><polygon class="cls-27" points="31.46 272.16 30.79 277.73 34.16 273.25 31.46 272.16"/><line class="cls-28" x1="418.32" y1="129.44" x2="333.87" y2="339.65"/><polygon class="cls-29" points="332.89 338.19 332.22 343.76 335.59 339.27 332.89 338.19"/><line class="cls-26" x1="33.61" y1="274.31" x2="146.92" y2="136.62"/><polygon class="cls-27" points="35.36 274.47 30.79 277.73 33.11 272.63 35.36 274.47"/><line class="cls-28" x1="305.01" y1="267.13" x2="418.32" y2="129.44"/><polygon class="cls-29" points="306.76 267.29 302.19 270.55 304.52 265.45 306.76 267.29"/></g><g id="Sample::Intersection"><polygon class="cls-8" points="240.28 251.9 230.91 251.9 230.91 266.09 240.28 251.9"/></g><g id="Sample::Result"><polygon class="cls-30" points="418.32 113.54 389.63 94.28 329.88 126.42 318.32 26.67 317.01 26.67 317.01 129.44 418.32 129.44 418.32 113.54"/><polygon class="cls-31" points="315.95 6.26 318.32 26.67 335.8 26.67 315.95 6.26"/><polygon class="cls-31" points="397.47 90.06 374.87 66.83 366.85 78.99 389.63 94.28 397.47 90.06"/><polygon class="cls-30" points="401.39 26.67 335.8 26.67 374.87 66.83 401.39 26.67"/><polygon class="cls-32" points="389.63 94.28 366.85 78.99 374.87 66.83 335.8 26.67 318.32 26.67 329.88 126.42 389.63 94.28"/><path class="cls-33" d="M350.16,118.51a3,3,0,0,1-2.64-1.58l-.9-1.67a3,3,0,0,1,1.22-4.06l27-14.55a3,3,0,0,1,4.06,1.22l.91,1.68a3,3,0,0,1-1.22,4.06l-27,14.54A2.91,2.91,0,0,1,350.16,118.51Z"/><rect x="347.88" y="106.45" width="30.7" height="1.9" transform="translate(-7.53 184.92) rotate(-28.28)"/><path class="cls-33" d="M325.7,93.37a3,3,0,0,1-3-2.65l-5.57-48.07a3,3,0,0,1,2.64-3.32l1.89-.22.34,0a3,3,0,0,1,3,2.65l5.57,48.07a3,3,0,0,1-2.63,3.32l-1.89.22A2.06,2.06,0,0,1,325.7,93.37Z"/><rect x="322.91" y="42.04" width="1.9" height="48.39" transform="matrix(0.99, -0.12, 0.12, 0.99, -5.47, 37.74)"/><path class="cls-33" d="M371.65,69.24a3,3,0,0,1-2.15-.9L336.9,34.82a3,3,0,0,1,.05-4.25l1.37-1.32a3,3,0,0,1,4.24.06l32.6,33.52A2.93,2.93,0,0,1,376,65a3,3,0,0,1-.9,2.11l-1.37,1.32A3,3,0,0,1,371.65,69.24Z"/><rect x="355.08" y="25.44" width="1.9" height="46.76" transform="translate(66.78 262.08) rotate(-44.21)"/></g><g id="Layer_17" data-name="Layer 17"><line class="cls-34" x1="216.41" y1="258.48" x2="30.61" y2="277.93"/><polygon points="211.87 253.11 234.03 256.63 213.08 264.67 211.87 253.11"/><line class="cls-35" x1="311.55" y1="6.72" x2="112.53" y2="27.56"/><polygon points="310.41 5.38 315.95 6.26 310.71 8.27 310.41 5.38"/><line class="cls-35" x1="325.99" y1="126.16" x2="126.97" y2="147"/><polygon points="324.86 124.82 330.4 125.7 325.16 127.71 324.86 124.82"/><line class="cls-35" x1="393.24" y1="90.3" x2="194.23" y2="111.14"/><polygon points="392.11 88.96 397.65 89.84 392.41 91.85 392.11 88.96"/><text class="cls-36" transform="translate(356.94 38.94)"><tspan class="cls-37">T</tspan><tspan x="4.33" y="0">a</tspan><tspan class="cls-38" x="9.15" y="0">r</tspan><tspan class="cls-39" x="12.34" y="0">get</tspan></text><text class="cls-40" transform="translate(131.61 94.28)">P<tspan class="cls-39" x="5.06" y="0">anel</tspan></text></g></g></svg>