<svg xmlns="http://www.w3.org/2000/svg" viewBox="0 0 836.48 755.22"><defs><style>.cls-1,.cls-2,.cls-6{fill:none;}.cls-1,.cls-2{stroke:#b2b2b2;}.cls-1,.cls-2,.cls-6,.cls-7,.cls-8{stroke-miterlimit:10;}.cls-1{stroke-width:2px;}.cls-2{stroke-width:0.5px;}.cls-3{fill:#999;}.cls-4,.cls-7{fill:#e5e5e5;}.cls-5{fill:#ffb3b3;}.cls-6{stroke:#ccc;}.cls-7,.cls-8{stroke:#666;}.cls-8{fill:#666;}</style></defs><g id="Grid"><line class="cls-1" x1="242.26" y1="741.34" x2="242.26" y2="14.61"/><line class="cls-2" x1="15.15" y1="355.26" x2="821.37" y2="355.26"/><line class="cls-1" x1="15.15" y1="162.22" x2="821.37" y2="162.22"/><line class="cls-2" x1="435.3" y1="741.34" x2="435.3" y2="14.61"/><line class="cls-1" x1="15.15" y1="14.61" x2="821.37" y2="14.61"/><line class="cls-1" x1="15.15" y1="741.34" x2="15.15" y2="14.61"/><line class="cls-2" x1="628.33" y1="741.34" x2="628.33" y2="14.61"/><line class="cls-1" x1="821.37" y1="741.34" x2="821.37" y2="14.61"/><line class="cls-1" x1="15.15" y1="741.34" x2="821.37" y2="741.34"/><line class="cls-2" x1="15.15" y1="548.3" x2="821.37" y2="548.3"/></g><g id="Target"><path class="cls-3" d="M112.77,385.1v46.51h25.57V398.84H178V513.23L90.6,494.63l-.56-.11-.38.42L79.4,506.08v-121h33.37m1-1H78.4V508.65l12-13L179,514.46V397.84H137.34v32.77H113.77V384.1Z"/><path class="cls-3" d="M167.16,192.2l-40.26,61-.55.82.82.56,61.08,41V313H69.16V192.2h98m1.86-1H68.16V314H189.25V295l-61.52-41.28L169,191.2Z"/><path class="cls-3" d="M188.23,585.53,160.65,712.36H103.84l-34.74-54,51.42-31.44L141,675.26l2.46,5.82-.55-6.29-5.09-58.45,50.4-30.81m1.48-2.08-52.93,32.36,5.15,59.06L121,625.47,67.7,658.05l35.6,55.31h58.15l28.26-129.91Z"/></g><g id="Panel"><polygon class="cls-4" points="500.74 91.24 473.24 65.81 550.63 33.28 548.77 88.24 579.64 108.33 501.13 132.29 500.74 91.24"/><path class="cls-3" d="M550.1,34l-1.81,53.9,0,.56.47.31,29.73,19.36-76.84,23.45-.39-40.17V91l-.32-.3L474.15,66,550.1,34m1-1.53L472.33,65.65l27.91,25.81.4,41.5,80.17-24.46L549.28,88l1.87-55.46Z"/><polygon class="cls-4" points="276.13 95.62 274.42 61.93 305.39 44.19 361.41 45.33 362.07 121.2 311.6 121.29 276.13 95.62"/><path class="cls-3" d="M305.52,44.69l55.4,1.13.65,74.88-49.81.09L276.62,95.35l-1.69-33.14,30.59-17.52m-.25-1-31.37,18,1.74,34.23,35.79,25.91,51.15-.09-.67-76.86-56.64-1.15Z"/><polygon class="cls-4" points="680.48 108.42 662.12 76.45 697.58 41.61 723.97 42.97 746.6 79.55 737.14 121.68 702.85 123.87 680.48 108.42"/><path class="cls-3" d="M697.77,42.12l25.92,1.33,22.38,36.19-9.34,41.56L703,123.36l-22.13-15.29L662.74,76.53l35-34.41m-.38-1-35.9,35.26,18.61,32.41,22.61,15.61,34.83-2.23,9.59-42.69-22.87-37L697.39,41.1Z"/></g><g id="Missed"><polygon class="cls-5" points="487.19 406.68 485.61 406.11 487.19 424.93 487.19 406.68"/><polygon class="cls-5" points="509.81 637.68 495.11 632.35 496.25 645.96 509.81 637.68"/><polygon class="cls-5" points="318.16 417.29 325.52 413.08 341.74 413.4 341.74 430.61 318.16 430.61 318.16 417.29"/><polygon class="cls-5" points="341.73 622.13 335.46 620.44 326.14 627.25 346.32 674.87 341.73 622.13"/><polygon class="cls-5" points="288.03 682.81 284.05 695.15 299 699.86 288.03 682.81"/><polygon class="cls-5" points="359.05 713.36 341.8 713.36 357.35 718.26 359.05 713.36"/><polygon class="cls-5" points="724.84 422.49 731.45 422.82 731.45 430.61 716.57 430.61 724.84 422.49"/><polygon class="cls-5" points="569.87 205.24 568.72 204.97 561.18 216.39 569.87 205.24"/><polygon class="cls-5" points="486.63 185.71 487.72 191.21 510.06 191.21 486.63 185.71"/><polygon class="cls-5" points="773.11 458.46 774.59 460.85 773.11 467.43 773.11 458.46"/><polygon class="cls-5" points="729.25 505.13 731.74 505.66 730.16 505.76 729.25 505.13"/><polygon class="cls-5" points="548.57 650.22 547.27 651.26 539.51 648.45 550.71 674.87 548.57 650.22"/><polygon class="cls-5" points="546.13 418.27 537.77 425.02 522.55 419.5 522.55 430.61 546.13 430.61 546.13 418.27"/><polygon class="cls-5" points="685.83 642.07 689.36 641.2 685.18 643.76 685.83 642.07"/><polygon class="cls-5" points="718.72 634.03 728.07 631.74 732.5 634.37 736.03 674.87 718.72 634.03"/><polygon class="cls-5" points="511.46 712.4 500.39 695.19 502.26 717.55 511.46 712.4"/><polygon class="cls-5" points="575.43 689.49 570.93 710.14 575.03 711.43 575.43 689.49"/><polygon class="cls-5" points="537.19 252.73 536.51 253.75 537.94 254.71 537.19 252.73"/><polygon class="cls-5" points="476.95 247 469.96 256.81 476.94 259.22 476.95 247"/></g><g id="Left"><polygon class="cls-6" points="773.11 397.85 731.45 397.85 731.45 422.82 751.72 423.87 773.11 458.46 773.11 397.85"/><polygon class="cls-6" points="587.79 397.85 546.13 397.85 546.13 418.27 567.04 401.38 565.53 485.19 525.93 472.74 492.76 491.31 487.19 424.93 487.19 508.65 499.18 495.61 587.79 514.46 587.79 397.85"/><polygon class="cls-6" points="522.55 384.1 487.19 384.1 487.19 406.68 522.55 419.5 522.55 384.1"/><polygon class="cls-6" points="494.03 223 487.72 191.21 476.95 191.21 476.95 247 494.03 223"/><polygon class="cls-6" points="577.8 191.21 510.06 191.21 568.72 204.97 577.8 191.21"/><polygon class="cls-6" points="561.18 216.39 535.76 249 537.19 252.73 561.18 216.39"/><polygon class="cls-6" points="598.04 295.04 537.94 254.71 549.2 284.14 476.94 259.22 476.94 314.04 598.04 314.04 598.04 295.04"/><polygon class="cls-6" points="773.11 467.43 765 503.54 731.74 505.66 773.11 514.46 773.11 467.43"/><polygon class="cls-6" points="715.09 625.47 718.72 634.03 689.36 641.2 715.09 625.47"/><polygon class="cls-6" points="383.4 397.85 341.74 397.85 341.74 413.4 382.16 414.23 382.83 491.08 331.69 491.17 295.89 465.27 294.15 431.04 318.16 417.29 318.16 384.1 282.8 384.1 282.8 508.65 294.79 495.61 383.4 514.46 383.4 397.85"/><polygon class="cls-6" points="661.81 658.05 685.18 643.76 676.21 667.2 698.65 712.23 735.22 704.55 757.05 687.87 765.71 654.06 732.5 634.37 730.89 615.81 783.81 583.46 755.55 713.36 697.39 713.36 661.81 658.05"/><polygon class="cls-6" points="684.5 495.61 729.25 505.13 707.56 490.15 688.94 457.75 716.57 430.61 707.87 430.61 707.87 384.1 672.5 384.1 672.5 508.65 684.5 495.61"/><polygon class="cls-6" points="375.95 664.75 368.56 629.37 341.73 622.13 341.18 615.81 394.1 583.46 365.84 713.36 359.05 713.36 375.95 664.75"/><polygon class="cls-6" points="272.1 658.05 325.38 625.47 326.14 627.25 299.76 646.48 288.03 682.81 272.1 658.05"/><polygon class="cls-6" points="299 699.86 341.8 713.36 307.69 713.36 299 699.86"/><polygon class="cls-6" points="576.54 627.62 548.57 650.22 545.57 615.81 598.49 583.46 575.43 689.49 576.54 627.62"/><polygon class="cls-6" points="509.81 637.68 529.77 625.47 539.51 648.45 509.81 637.68"/><polygon class="cls-6" points="476.49 658.05 496.25 645.96 500.39 695.19 476.49 658.05"/><polygon class="cls-6" points="511.46 712.4 535.44 698.98 570.93 710.14 570.24 713.36 512.08 713.36 511.46 712.4"/></g><g id="Result"><polygon class="cls-7" points="676.21 667.2 685.18 643.76 689.36 641.2 718.72 634.03 736.03 674.87 732.5 634.37 765.71 654.06 757.05 687.87 735.22 704.55 698.65 712.23 676.21 667.2"/><polygon class="cls-7" points="299 699.86 288.03 682.81 299.76 646.48 326.14 627.25 346.32 674.87 341.73 622.13 368.56 629.37 375.95 664.75 359.05 713.36 341.8 713.36 299 699.86"/><polygon class="cls-7" points="382.83 491.08 382.16 414.23 341.74 413.4 341.74 430.61 318.16 430.61 318.16 417.29 294.15 431.04 295.89 465.27 331.69 491.17 382.83 491.08"/><polygon class="cls-7" points="525.93 472.74 565.53 485.19 567.04 401.38 546.13 418.27 546.13 430.61 522.55 430.61 522.55 419.5 487.19 406.68 487.19 424.93 492.76 491.31 525.93 472.74"/><polygon class="cls-7" points="537.94 254.71 536.51 253.75 537.19 252.73 535.76 249 561.18 216.39 568.72 204.97 510.06 191.21 487.72 191.21 494.03 223 476.95 247 476.94 259.22 549.2 284.14 537.94 254.71"/><polygon class="cls-7" points="500.39 695.19 496.25 645.96 509.81 637.68 539.51 648.45 550.71 674.87 548.57 650.22 576.54 627.62 575.43 689.49 570.93 710.14 535.44 698.98 511.46 712.4 500.39 695.19"/><polygon class="cls-7" points="765 503.54 773.11 467.43 773.11 458.46 751.72 423.87 731.45 422.82 731.45 430.61 716.57 430.61 688.94 457.75 707.56 490.15 729.25 505.13 731.74 505.66 765 503.54"/></g><g id="Critical"><rect class="cls-8" x="709.63" y="37.54" width="2.27" height="10.76" transform="translate(631.42 750.55) rotate(-87.06)"/><rect class="cls-8" x="733.6" y="52.87" width="2.27" height="17.39" transform="matrix(0.85, -0.53, 0.53, 0.85, 77.49, 395.71)"/><rect class="cls-8" x="732.48" y="99.42" width="17.5" height="2.27" transform="translate(480.59 801.7) rotate(-77.33)"/><rect class="cls-8" x="713.07" y="121" width="13.96" height="2.27" transform="translate(-6.32 46.1) rotate(-3.65)"/><rect class="cls-8" x="690.91" y="110.14" width="2.27" height="10.99" transform="translate(203.6 619.34) rotate(-55.37)"/><rect class="cls-8" x="670.65" y="84.52" width="2.27" height="14.95" transform="translate(43.44 346.83) rotate(-29.87)"/><rect class="cls-8" x="687.31" y="679.15" width="2.27" height="20.13" transform="translate(-235.12 379.4) rotate(-26.49)"/><rect class="cls-8" x="676.7" y="653.9" width="10.76" height="2.27" transform="translate(-173.48 1057.94) rotate(-69.06)"/><rect class="cls-8" x="698.52" y="636.87" width="17.39" height="2.27" transform="translate(-131.27 186.18) rotate(-13.74)"/><rect class="cls-8" x="745.17" y="635.12" width="2.27" height="17.5" transform="translate(-188.15 957.46) rotate(-59.34)"/><rect class="cls-8" x="753.3" y="669.55" width="13.96" height="2.27" transform="translate(-77.89 1241.05) rotate(-75.65)"/><rect class="cls-8" x="495.08" y="48.99" width="34.2" height="2.27" transform="translate(20.59 202.38) rotate(-22.8)"/><rect class="cls-8" x="709.23" y="706.14" width="14.95" height="2.27" transform="translate(-130.17 162.56) rotate(-11.87)"/><rect class="cls-8" x="698.1" y="465.91" width="2.27" height="14.95" transform="translate(-142.87 411.14) rotate(-29.87)"/><rect class="cls-8" x="718.37" y="491.53" width="2.27" height="10.99" transform="translate(-98.35 806.59) rotate(-55.37)"/><rect class="cls-8" x="740.53" y="502.38" width="13.96" height="2.27" transform="translate(-30.55 48.63) rotate(-3.65)"/><rect class="cls-8" x="759.94" y="480.81" width="17.5" height="2.27" transform="translate(129.95 1126.28) rotate(-77.34)"/><rect class="cls-8" x="761.05" y="434.26" width="2.27" height="17.39" transform="translate(-119.03 467.16) rotate(-31.74)"/><rect class="cls-8" x="737.09" y="418.93" width="2.27" height="10.76" transform="translate(276.58 1139.78) rotate(-87.06)"/><rect class="cls-8" x="697.63" y="439.79" width="20.13" height="2.27" transform="translate(-106.16 622.28) rotate(-44.49)"/><rect class="cls-8" x="739.96" y="694.17" width="10.99" height="2.27" transform="translate(-269 595.16) rotate(-37.37)"/><rect class="cls-8" x="537.99" y="59.07" width="22.2" height="2.27" transform="translate(470.41 606.95) rotate(-88.07)"/><rect class="cls-8" x="563.29" y="91.66" width="2.27" height="15.05" transform="translate(173.36 518.09) rotate(-56.94)"/><rect class="cls-8" x="523.63" y="118.51" width="33.53" height="2.27" transform="translate(-11.39 162.94) rotate(-16.97)"/><rect class="cls-8" x="500.44" y="103.9" width="2.27" height="16.6" transform="translate(-1.05 4.82) rotate(-0.55)"/><rect class="cls-8" x="485.92" y="70.12" width="2.27" height="15.21" transform="matrix(0.68, -0.73, 0.73, 0.68, 99.3, 382.54)"/><rect class="cls-8" x="359.97" y="67.91" width="2.27" height="30.74" transform="matrix(1, -0.01, 0.01, 1, -0.71, 3.14)"/><rect class="cls-8" x="332.43" y="34.07" width="2.27" height="22.66" transform="translate(281.38 377.97) rotate(-88.83)"/><rect class="cls-8" x="282.92" y="52.52" width="14.46" height="2.27" transform="translate(11.69 151.25) rotate(-29.79)"/><rect class="cls-8" x="274.77" y="71.85" width="2.27" height="13.71" transform="translate(-3.65 14.14) rotate(-2.92)"/><rect class="cls-8" x="293.07" y="99.08" width="2.27" height="17.67" transform="translate(34.29 282.97) rotate(-54.1)"/><rect class="cls-8" x="326.77" y="119.47" width="20.46" height="2.27" transform="translate(-0.21 0.59) rotate(-0.1)"/><rect class="cls-8" x="670.17" y="58.4" width="20.13" height="2.27" transform="translate(153.25 493.77) rotate(-44.49)"/><rect class="cls-8" x="490.31" y="196.53" width="2.27" height="15.21" transform="translate(-30.36 99.7) rotate(-11.24)"/><rect class="cls-8" x="474.62" y="239.42" width="16.6" height="2.27" transform="translate(6.87 494.44) rotate(-54.55)"/><rect class="cls-8" x="508.82" y="252.64" width="2.27" height="33.53" transform="translate(89 663.64) rotate(-70.97)"/><rect class="cls-8" x="540.29" y="259.45" width="2.27" height="15.05" transform="translate(-59.65 211.08) rotate(-20.93)"/><rect class="cls-8" x="540.82" y="225.28" width="22.2" height="2.27" transform="translate(34.06 522.57) rotate(-52.07)"/><rect class="cls-8" x="526.85" y="179.48" width="2.27" height="34.2" transform="translate(216.04 665.73) rotate(-76.8)"/><rect class="cls-8" x="489.18" y="431.51" width="2.27" height="34.2" transform="translate(-35.82 42.6) rotate(-4.8)"/><rect class="cls-8" x="510.17" y="405.53" width="2.27" height="22.2" transform="translate(-54.67 755.29) rotate(-70.07)"/><rect class="cls-8" x="545.6" y="412.95" width="15.05" height="2.27" transform="translate(-137.35 439.58) rotate(-38.93)"/><rect class="cls-8" x="548.39" y="442.13" width="33.53" height="2.27" transform="translate(111.8 1000.35) rotate(-88.97)"/><rect class="cls-8" x="544.94" y="469.58" width="2.27" height="16.6" transform="translate(-73.57 855.53) rotate(-72.55)"/><rect class="cls-8" x="501.19" y="479.9" width="15.21" height="2.27" transform="translate(-170.14 309.82) rotate(-29.24)"/><rect class="cls-8" x="380.22" y="437.29" width="2.27" height="30.74" transform="translate(-3.91 3.33) rotate(-0.5)"/><rect class="cls-8" x="352.68" y="403.46" width="2.27" height="22.66" transform="translate(-68.08 760.1) rotate(-88.84)"/><rect class="cls-8" x="303.17" y="421.9" width="14.46" height="2.27" transform="translate(-169.17 210.14) rotate(-29.79)"/><rect class="cls-8" x="295.02" y="441.24" width="2.27" height="13.71" transform="translate(-22.39 15.63) rotate(-2.91)"/><rect class="cls-8" x="313.32" y="468.46" width="2.27" height="17.67" transform="translate(-256.57 452.19) rotate(-54.1)"/><rect class="cls-8" x="347.03" y="488.86" width="20.46" height="2.27" transform="translate(-0.87 0.64) rotate(-0.1)"/><rect class="cls-8" x="282.76" y="670.03" width="20.46" height="2.27" transform="translate(-435.73 743.71) rotate(-72.1)"/><rect class="cls-8" x="309.45" y="633.24" width="17.67" height="2.27" transform="translate(-312.68 309.38) rotate(-36.1)"/><rect class="cls-8" x="350.58" y="619.15" width="2.27" height="13.71" transform="translate(-344.25 802.65) rotate(-74.91)"/><rect class="cls-8" x="370.01" y="640.06" width="2.27" height="14.46" transform="translate(-124.45 89.51) rotate(-11.79)"/><rect class="cls-8" x="354.25" y="690" width="22.66" height="2.27" transform="translate(-407.26 809.57) rotate(-70.84)"/><rect class="cls-8" x="319.91" y="690.25" width="2.27" height="30.74" transform="translate(-448.46 799.58) rotate(-72.5)"/><rect class="cls-8" x="510.69" y="706.14" width="15.21" height="2.27" transform="translate(-279.44 343.28) rotate(-29.24)"/><rect class="cls-8" x="554.44" y="695.82" width="2.27" height="16.6" transform="translate(-282.74 1023) rotate(-72.55)"/><rect class="cls-8" x="557.89" y="668.37" width="33.53" height="2.27" transform="translate(-105.07 1232.03) rotate(-88.97)"/><rect class="cls-8" x="555.1" y="639.19" width="15.05" height="2.27" transform="translate(-277.42 495.81) rotate(-38.93)"/><rect class="cls-8" x="519.67" y="631.77" width="2.27" height="22.2" transform="translate(-261.09 913.34) rotate(-70.07)"/><rect class="cls-8" x="498.68" y="657.75" width="2.27" height="34.2" transform="translate(-54.72 44.19) rotate(-4.8)"/></g></svg>