<svg xmlns="http://www.w3.org/2000/svg" viewBox="0 0 1237.87 192.84"><defs><style>.cls-1{isolation:isolate;}.cls-11,.cls-2,.cls-5,.cls-8,.cls-9{fill:none;}.cls-2{stroke:#ccc;stroke-linecap:round;stroke-linejoin:round;}.cls-3{fill:red;}.cls-4{fill:#fff3f3;}.cls-5{stroke:#7f7f7f;}.cls-11,.cls-5,.cls-8,.cls-9{stroke-miterlimit:10;}.cls-11,.cls-5,.cls-9{stroke-width:0.5px;}.cls-6{fill:#7f7f7f;}.cls-7{fill:#ccc;}.cls-8{stroke:#000;stroke-width:0.05px;}.cls-9{stroke:lime;}.cls-10{fill:lime;}.cls-11{stroke:red;}.cls-12{mix-blend-mode:multiply;}</style></defs><g class="cls-1"><g id="Minkowski::Origins"><rect class="cls-2" x="15.31" y="90.07" width="1.9" height="48.39" transform="matrix(0.99, -0.12, 0.12, 0.99, -13.05, 2.63)"/><rect class="cls-2" x="47.48" y="73.47" width="1.9" height="46.76" transform="translate(-53.82 61.2) rotate(-44.21)"/><polygon class="cls-2" points="532.46 138.09 464.87 174.45 450.94 54.29 532.46 138.09"/><path class="cls-2" d="M489,163.54a3.8,3.8,0,1,0-3.8,3.8A3.8,3.8,0,0,0,489,163.54Z"/><circle class="cls-2" cx="508" cy="112.95" r="3.8"/><rect class="cls-2" x="482.87" y="154.49" width="30.7" height="1.9" transform="translate(-14.17 254.62) rotate(-28.28)"/><rect class="cls-2" x="490.07" y="73.47" width="1.9" height="46.76" transform="translate(71.52 369.8) rotate(-44.21)"/><polygon class="cls-2" points="975.05 138.09 907.46 174.45 893.53 54.29 975.05 138.09"/><path class="cls-2" d="M931.54,163.54a3.8,3.8,0,1,0-3.8,3.8A3.8,3.8,0,0,0,931.54,163.54Z"/><path class="cls-2" d="M901.51,90.34a3.8,3.8,0,1,0-3.8,3.8A3.8,3.8,0,0,0,901.51,90.34Z"/><rect class="cls-2" x="925.46" y="154.49" width="30.7" height="1.9" transform="translate(38.66 464.33) rotate(-28.28)"/><rect class="cls-2" x="900.49" y="90.07" width="1.9" height="48.39" transform="translate(-7.16 104.57) rotate(-6.61)"/><polygon class="cls-2" points="89.87 138.09 22.29 174.45 8.36 54.29 89.87 138.09"/><rect class="cls-3" x="40.28" y="154.49" width="30.7" height="1.9" transform="translate(-67.01 44.91) rotate(-28.28)"/><rect class="cls-3" x="457.9" y="90.07" width="1.9" height="48.39" transform="translate(-10.11 53.6) rotate(-6.61)"/><rect class="cls-3" x="932.66" y="73.47" width="1.9" height="46.76" transform="translate(196.86 678.41) rotate(-44.21)"/></g><g id="Minkowski::MinkowskiSub"><path class="cls-4" d="M1130.65,189.38l-32.32-33.22V54.09H1182l32.18,33.08-29.27,44.34,13.91,9.34,32.43,33.34v15.19Zm-.71-32.52h69.7v-5l-19-12.78-32.29-33.19L1161,86.61h-31.07Z"/><path class="cls-3" d="M1181.79,54.59l31.75,32.64-28.78,43.59-.54.83.82.55,13.46,9,32.25,33.15v14.49h-99.89l-32-32.92V54.59h83m-52.35,102.77h70.7v-5.79l-.44-.3-18.78-12.6-32-32.87,12-18.14,1-1.55h-32.5v71.25m52.77-103.77h-84.38V156.36l32.61,33.52h101.31V174l-32.61-33.52-13.54-9.09,29.22-44.26-32.61-33.52Zm-51.77,102.77V87.11h29.65l-12.42,18.81,32.61,33.52,18.86,12.66v4.26Z"/><path class="cls-4" d="M655.69,155.86l-5.52-47.62V6h83.44l5.5,47.44L724.67,75.34l25.84,17.35,5.55,47.83v15.34Zm-1-47.06h55.53l-4.72-3.17L700,58l3.22-4.89H654.74Z"/><path class="cls-3" d="M733.16,6.53l5.43,46.82-14.07,21.3-.54.83.82.55L750,93l5.51,47.55v14.84H656.13l-5.46-47.12V6.53h82.49M654.24,109.3h57.67l-2.72-1.83L706,105.35,700.55,58.1l2.61-4,1-1.56H654.24V109.3M734.05,5.53H649.67V108.3l5.57,48.06H756.55v-15.9L751,92.4,725.36,75.2l14.26-21.61L734.05,5.53ZM655.24,108.3V53.59h47.08l-2.81,4.27,5.57,48.06,3.55,2.38Z"/><path class="cls-4" d="M186.12,170.41v-102l26.66-14.35h83.33l-34.31,52,51.66,34.67v15.34l-26.65,14.34Zm26-13.55h75.28v-2.12l-51.28-34.42,34.78-52.68H212.16Z"/><path class="cls-3" d="M295.18,54.59l-33.52,50.78-.55.83.83.55L313,141v14.77l-26.28,14.14H186.62V68.74l26.29-14.15h82.27M211.65,157.36h76.28v-2.89l-.44-.29-50.65-34,34-51.5,1-1.55h-60.2v90.22M297,53.59H212.66l-27,14.55V170.91H286.93l27-14.55v-15.9l-51.47-34.54L297,53.59ZM270,68.14l-34.54,52.32L286.93,155v1.35H212.65V68.14Z"/></g><g id="Minkowski::Main"><path d="M1182.21,53.59h-4v2h1.49l.83.55,1.68-2.55Zm-6,0h-4v2h4v-2Zm-6,0h-4v2h4v-2Zm-6,0h-4v2h4v-2Zm-6,0h-4v2h4v-2Zm-6,0h-4v2h4v-2Zm-6,0h-4v2h4v-2Zm-6,0h-4v2h4v-2Zm-6,0h-4v2h4v-2Zm-6,0h-4v2h4v-2Zm-6,0h-4v2h4v-2Zm-6,0h-4v2h4v-2Zm-6,0h-4v2h4v-2Zm-6,0h-4v2h4v-2Zm-4.38,0h-2v2h0v1.62h2V53.59Zm0,5.62h-2v4h2v-4Zm0,6h-2v4h2v-4Zm0,6h-2v4h2v-4Zm0,6h-2v4h2v-4Zm0,6h-2v4h2v-4Zm0,6h-2v4h2v-4Zm0,6h-2v4h2v-4Zm0,6h-2v4h2v-4Zm0,6h-2v4h2v-4Zm0,6h-2v4h2v-4Zm0,6h-2v4h2v-4Zm0,6h-2v4h2v-4Zm0,6h-2v4h2v-4Zm0,6h-2v4h2v-4Zm0,6h-2v4h2v-4Zm0,6h-2v4h2v-4Zm.85,5.15h-2.85v.85h0v0h0v1.15h2.85v-2Zm6,0h-4v2h4v-2Zm6,0h-4v2h4v-2Zm6,0h-4v2h4v-2Zm6,0h-4v2h4v-2Zm6,0h-4v2h4v-2Zm6,0h-4v2h4v-2Zm6,0h-4v2h4v-2Zm6,0h-4v2h4v-2Zm6,0h-4v2h4v-2Zm6,0h-4v2h4v-2Zm6,0h-4v2h4v-2Zm6,0h-4v2h4v-2Zm6,0h-4v2h4v-2Zm6,0h-4v2h4v-2Zm6,0h-4v2h4v-2Zm6,0h-4v2h4v-2Zm2.46-1.53h-2v3.53h2v-3.53Zm0-6h-2v4h2v-4Zm0-6h-2v4h2v-4Zm-4.68-3.51-1.11,1.66,3.32,2.23,1.12-1.66-3.33-2.23Zm-5-3.34-1.11,1.66,3.32,2.23,1.11-1.66-3.32-2.23Zm-5-3.35-1.11,1.67,3.32,2.22,1.11-1.66-1.34-.9h0l-2-1.33Zm-5-3.34L1178.4,129l3.32,2.23,1.12-1.66-3.32-2.23Zm-5-3.34-1.12,1.66,3.32,2.23,1.12-1.66-2.69-1.8h0l-.59-.39Zm-5-3.35-1.11,1.66,3.32,2.23,1.11-1.66-3.32-2.23Zm-5-3.34-1.11,1.66,3.32,2.23,1.11-1.66-3.32-2.23Zm-5-3.34-1.12,1.66,3.33,2.23,1.11-1.66-3.2-2.15h0l-.09-.06Zm-5-3.35-1.12,1.66,3.32,2.23,1.12-1.66-3.32-2.23Zm-5-3.34-1.11,1.66,3.32,2.23,1.12-1.66-3.33-2.23Zm-1.61-5.46-2,3-1.09,1.65,1.65,1.11.29.2,1.11-1.66-.29-.2h0l2-3-1.67-1.11Zm3.31-5-2.21,3.33,1.67,1.11,2.21-3.34-1.67-1.1Zm3.3-5-2.2,3.34,1.67,1.1,2.2-3.34-1.67-1.1Zm3.31-5-2.21,3.34,1.67,1.1,2.21-3.34-1.67-1.1Zm3.3-5-2.2,3.34,1.67,1.1,1.18-1.79h0l0-.07h0v0h0v0h0l0,0h0l0,0h0l0,0h0v0h0l.82-1.23-1.67-1.11Zm3.31-5-2.21,3.34,1.67,1.1,2.21-3.34-1.67-1.1Zm3.3-5-2.2,3.34,1.67,1.1,2.2-3.34-1.67-1.1Zm3.31-5-2.2,3.34,1.66,1.1,2.21-3.34-1.67-1.1Zm3.3-5-2.2,3.33,1.67,1.11,1.47-2.23h0v0h0v0h0l0,0h0l.59-.9-1.67-1.1Zm3.31-5-2.2,3.34,1.67,1.1,2.2-3.34-1.67-1.1Z"/><path d="M297,53.59h-4v2h1.48l.83.55.37-.55h0l1.32-2Zm-6,0h-4v2h4v-2Zm-6,0h-4v2h4v-2Zm-6,0h-4v2h4v-2Zm-6,0h-4v2h4v-2Zm-6,0h-4v2h4v-2Zm-6,0h-4v2h4v-2Zm-6,0h-4v2h4v-2Zm-6,0h-4v2h4v-2Zm-6,0h-4v2h4v-2Zm-6,0h-4v2h4v-2Zm-6,0h-4v2h4v-2Zm-6,0h-4v2h4v-2Zm-6,0h-4v2h4v-2Zm-4.38,0h-2v2h0v1.62h2V53.59Zm0,5.62h-2v4h2v-4Zm0,6h-2v4h2v-4Zm0,6h-2v4h2v-4Zm0,6h-2v4h2v-4Zm0,6h-2v4h2v-4Zm0,6h-2v4h2v-4Zm0,6h-2v4h2v-4Zm0,6h-2v4h2v-4Zm0,6h-2v4h2v-4Zm0,6h-2v4h2v-4Zm0,6h-2v4h2v-4Zm0,6h-2v4h2v-4Zm0,6h-2v4h2v-4Zm0,6h-2v4h2v-4Zm0,6h-2v4h2v-4Zm0,6h-2v4h2v-4Zm.84,5.15h-2.84v.85h0v0h0v1.15h2.84v-2Zm6,0h-4v2h4v-2Zm6,0h-4v2h4v-2Zm6,0h-4v2h4v-2Zm6,0h-4v2h4v-2Zm6,0h-4v2h4v-2Zm6,0h-4v2h4v-2Zm6,0h-4v2h4v-2Zm6,0h-4v2h4v-2Zm6,0h-4v2h4v-2Zm6,0h-4v2h4v-2Zm6,0h-4v2h4v-2Zm6,0h-4v2h4v-2Zm6,0h-4v2h4v-2Zm6,0h-4v2h4v-2Zm6,0h-4v2h4v-2Zm6,0h-4v2h4v-2Zm2.46-1.53h-2v3.53h2v-3.53Zm0-6h-2v4h2v-4Zm0-6h-2v4h2v-4Zm-4.67-3.51L308.17,139l3.32,2.23,1.12-1.66-3.32-2.23Zm-5-3.34-1.11,1.66,3.32,2.23,1.12-1.66-2.15-1.44,0,0h-.07L304.3,134Zm-5-3.35-1.11,1.67,3.32,2.22,1.11-1.66-3.32-2.23Zm-5-3.34L293.23,129l3.32,2.23,1.11-1.66L295,127.75h0l0,0h0l-.59-.4Zm-5-3.34-1.12,1.66,3.32,2.23,1.12-1.66L289.36,124Zm-5-3.35-1.12,1.66,3.32,2.23,1.12-1.66-3.18-2.13h0l0,0h0l-.08-.06Zm-5-3.34-1.11,1.66,3.32,2.23,1.11-1.66-3.32-2.23Zm-5-3.34-1.11,1.66,3.32,2.23,1.11-1.66L274.6,114h0l-.18-.12Zm-5-3.35-1.12,1.66,3.33,2.23,1.11-1.66-1.37-.92h0l-1.94-1.3Zm-5-3.34-1.12,1.66,3.32,2.23,1.12-1.66-2.89-1.94h0l-.39-.27Zm-1.62-5.46-2,3-1.09,1.65,1.65,1.11.29.2,1.12-1.66-.27-.18h0l2-3-1.67-1.11Zm3.31-5-2.21,3.33,1.67,1.11,2.2-3.34h0l-1.67-1.1Zm3.3-5-2.2,3.34,1.67,1.1,1.54-2.34h0v0h0l.62-1-1.67-1.1Zm3.31-5-2.2,3.34,1.66,1.1.89-1.34h0l0-.06h0l1.27-1.93-1.67-1.1Zm3.3-5-2.2,3.34,1.67,1.1,2.2-3.33-1.67-1.11Zm3.31-5-2.2,3.34,1.67,1.1,2.2-3.34-1.67-1.1Zm3.31-5-2.21,3.34,1.67,1.1,2.21-3.34-1.67-1.1Zm3.3-5-2.2,3.34,1.67,1.1,1.61-2.44h0l.58-.88L286,66.72Zm3.31-5-2.21,3.33,1.67,1.11L291,62.82l-1.67-1.1Zm3.3-5-2.2,3.34,1.67,1.1,2-3h0l0,0h0l0,0h0l.13-.2-1.67-1.1Z"/><path d="M739.62,53.59h-4v2h1.49l.83.55.36-.55h0l1.32-2Zm-6,0h-4v2h4v-2Zm-6,0h-4v2h4v-2Zm-6,0h-4v2h4v-2Zm-6,0h-4v2h4v-2Zm-6,0h-4v2h4v-2Zm-6,0h-4v2h4v-2Zm-6,0h-4v2h4v-2Zm-6,0h-4v2h4v-2Zm-6,0h-4v2h4v-2Zm-6,0h-4v2h4v-2Zm-6,0h-4v2h4v-2Zm-6,0h-4v2h4v-2Zm-6,0h-4v2h4v-2Zm-4.38,0h-2v2h0v1.62h2V53.59Zm0,5.62h-2v4h2v-4Zm0,6h-2v4h2v-4Zm0,6h-2v4h2v-4Zm0,6h-2v4h2v-4Zm0,6h-2v4h2v-4Zm0,6h-2v4h2v-4Zm0,6h-2v4h2v-4Zm0,6h-2v4h2v-4Zm0,6h-2v4h2v-4Zm0,6h-2v4h2v-4Zm0,6h-2v4h2v-4Zm0,6h-2v4h2v-4Zm0,6h-2v4h2v-4Zm0,6h-2v4h2v-4Zm0,6h-2v4h2v-4Zm0,6h-2v4h2v-4Zm.85,5.15h-2.85v.85h0v0h0v1.15h2.85v-2Zm6,0h-4v2h4v-2Zm6,0h-4v2h4v-2Zm6,0h-4v2h4v-2Zm6,0h-4v2h4v-2Zm6,0h-4v2h4v-2Zm6,0h-4v2h4v-2Zm6,0h-4v2h4v-2Zm6,0h-4v2h4v-2Zm6,0h-4v2h4v-2Zm6,0h-4v2h4v-2Zm6,0h-4v2h4v-2Zm6,0h-4v2h4v-2Zm6,0h-4v2h4v-2Zm6,0h-4v2h4v-2Zm6,0h-4v2h4v-2Zm6,0h-4v2h4v-2Zm2.46-1.53h-2v3.53h2v-3.53Zm0-6h-2v4h2v-4Zm0-6h-2v4h2v-4Zm-4.68-3.51L750.76,139l3.32,2.23,1.12-1.66L752.88,138h0l-1-.66Zm-5-3.34-1.11,1.66,3.32,2.23,1.11-1.66L746.89,134Zm-5-3.35-1.11,1.67,3.32,2.22,1.11-1.66-3.32-2.23Zm-5-3.34L735.81,129l3.33,2.23,1.11-1.66-3.32-2.23ZM732,124l-1.12,1.66,3.32,2.23,1.12-1.66L732,124Zm-5-3.35-1.11,1.66,3.32,2.23,1.12-1.66L727,120.6Zm-5-3.34-1.11,1.66,3.32,2.23,1.11-1.66L722,117.26Zm-5-3.34-1.11,1.66,3.32,2.23,1.11-1.66-.25-.18H720l-3-2Zm-5-3.35-1.12,1.66,3.32,2.23,1.12-1.66L712,110.57Zm-5-3.34-1.12,1.66,3.32,2.23,1.12-1.66-.75-.5h0l0,0h-.07l0,0h0L707,107.23Zm-1.62-5.46-2,3-1.09,1.65,1.65,1.11.29.2,1.12-1.66-.3-.2h0l2-3-1.67-1.11Zm3.31-5-2.21,3.33,1.67,1.11,2.21-3.34-1.67-1.1Zm3.3-5-2.2,3.34,1.67,1.1,1.08-1.64h0l1.12-1.7L712,91.76Zm3.31-5-2.21,3.34,1.67,1.1,1.12-1.68h0L717,87.85l-1.67-1.1Zm3.3-5-2.2,3.34,1.67,1.1,2.2-3.33-1.67-1.11Zm3.31-5-2.2,3.34,1.66,1.1,2.21-3.34L722,76.74Zm3.3-5-2.2,3.34,1.67,1.1,1.94-2.94h0l0,0h0l.23-.36-1.67-1.1Zm3.31-5-2.2,3.34,1.67,1.1,1.78-2.71.42-.63-1.67-1.1Zm3.31-5-2.21,3.33,1.67,1.11,1.84-2.79h0l0,0v0h0l.33-.49-1.67-1.1Zm3.3-5L733,60.05l1.67,1.1.66-1h0l0,0h0v0h0c.65-1,1.49-2.25,1.49-2.25l-1.67-1.1Z"/></g><g id="Minkowski::Vectors"><line class="cls-5" x1="42.56" y1="163.54" x2="204.93" y2="72.47"/><polygon class="cls-6" points="204.62 75.98 212.66 68.14 201.78 70.91 204.62 75.98"/><line class="cls-5" x1="42.56" y1="162.54" x2="203.8" y2="156.69"/><polygon class="cls-6" points="201.93 159.66 212.65 156.37 201.71 153.85 201.93 159.66"/><line class="cls-5" x1="455.13" y1="90.36" x2="646.53" y2="55.2"/><polygon class="cls-6" points="645.11 58.41 655.24 53.59 644.06 52.7 645.11 58.41"/><line class="cls-5" x1="455.13" y1="90.36" x2="646.42" y2="107.51"/><polygon class="cls-6" points="644.18 110.23 655.24 108.3 644.7 104.44 644.18 110.23"/><line class="cls-5" x1="950.7" y1="112.99" x2="1121.67" y2="88.37"/><polygon class="cls-6" points="1120.12 91.53 1130.44 87.11 1119.29 85.78 1120.12 91.53"/><line class="cls-5" x1="950.7" y1="112.98" x2="1121.82" y2="154.29"/><polygon class="cls-6" points="1119.22 156.65 1130.44 156.37 1120.58 151 1119.22 156.65"/></g><g id="Minkowski::Result"><polygon class="cls-7" points="1130.93 155.87 1130.94 87.61 1159.16 87.61 1147.03 105.98 1179.95 139.82 1198.64 152.37 1198.64 155.87 1130.93 155.87"/><path d="M1158.23,88.11l-11.39,17.26-.45.67.56.58,32.61,33.51.07.08.09.06,18.42,12.36v2.73h-66.7V88.11h26.79m1.86-1h-29.65v69.25h68.7V152.1l-18.87-12.66-32.6-33.52,12.42-18.81Z"/><polygon class="cls-7" points="655.74 107.8 655.74 54.09 701.4 54.09 698.99 57.73 704.61 106.2 706.99 107.8 655.74 107.8"/><path d="M700.47,54.59l-1.79,2.72-.2.3,0,.36L704.09,106l0,.46.38.26.83.55H656.24V54.59h44.23m1.85-1H655.24V108.3h53.39l-3.55-2.38-5.57-48.06,2.81-4.27Z"/><polygon class="cls-7" points="213.15 155.87 213.16 68.64 269.07 68.64 234.77 120.6 286.43 155.28 286.43 155.87 213.15 155.87"/><path d="M268.14,69.14l-33.52,50.77-.54.83.82.55,50.77,34.07h-72V69.14h54.48m1.86-1H212.66v88.22h74.28V155l-51.47-34.55L270,68.14Z"/></g><g id="Layer_16" data-name="Layer 16"><line class="cls-8" x1="32.32" y1="163.45" x2="52.91" y2="163.45"/><line class="cls-8" x1="42.61" y1="173.75" x2="42.61" y2="153.16"/><line class="cls-9" x1="42.62" y1="163.45" x2="42.62" y2="153.18"/><polygon class="cls-10" points="44.07 154.17 42.62 148.75 41.17 154.17 44.07 154.17"/><line class="cls-11" x1="42.61" y1="163.45" x2="52.89" y2="163.45"/><polygon class="cls-3" points="51.9 164.91 57.32 163.45 51.9 162 51.9 164.91"/><line class="cls-8" x1="444.83" y1="90.36" x2="465.41" y2="90.36"/><line class="cls-8" x1="455.12" y1="100.65" x2="455.12" y2="80.06"/><line class="cls-9" x1="455.13" y1="90.36" x2="455.13" y2="80.08"/><polygon class="cls-10" points="456.58 81.07 455.13 75.65 453.67 81.07 456.58 81.07"/><line class="cls-11" x1="455.12" y1="90.36" x2="465.4" y2="90.36"/><polygon class="cls-3" points="464.4 91.81 469.83 90.36 464.4 88.91 464.4 91.81"/><line class="cls-8" x1="940.4" y1="112.95" x2="960.99" y2="112.95"/><line class="cls-8" x1="950.69" y1="123.24" x2="950.69" y2="102.66"/><line class="cls-9" x1="950.7" y1="112.95" x2="950.7" y2="102.67"/><polygon class="cls-10" points="952.15 103.66 950.7 98.24 949.25 103.66 952.15 103.66"/><line class="cls-11" x1="950.69" y1="112.95" x2="960.97" y2="112.95"/><polygon class="cls-3" points="959.98 114.4 965.4 112.95 959.98 111.5 959.98 114.4"/></g></g></svg>