<svg id="Layer_1" data-name="Layer 1" xmlns="http://www.w3.org/2000/svg" viewBox="0 0 595.28 841.89"><defs><style>.cls-1{font-size:12px;font-family:MyriadPro-Regular, Myriad Pro;}.cls-1,.cls-51{fill:#1d1d1b;}.cls-2{letter-spacing:-0.01em;}.cls-3{letter-spacing:-0.01em;}.cls-4{letter-spacing:0.05em;}.cls-5{letter-spacing:-0.04em;}.cls-6{letter-spacing:0em;}.cls-7{letter-spacing:0.01em;}.cls-8{letter-spacing:-0.01em;}.cls-9{letter-spacing:-0.03em;}.cls-10{letter-spacing:0em;}.cls-11{letter-spacing:-0.02em;}.cls-12{letter-spacing:0.01em;}.cls-13{letter-spacing:-0.03em;}.cls-14{letter-spacing:0em;}.cls-15{letter-spacing:0.01em;}.cls-16{letter-spacing:-0.08em;}.cls-17{letter-spacing:-0.01em;}.cls-18{letter-spacing:0em;}.cls-19{letter-spacing:0.01em;}.cls-20{letter-spacing:-0.04em;}.cls-21{letter-spacing:0.02em;}.cls-22{letter-spacing:0.03em;}.cls-23{letter-spacing:-0.04em;}.cls-24{letter-spacing:-0.06em;}.cls-25{letter-spacing:-0.01em;}.cls-26{letter-spacing:-0.01em;}.cls-27{letter-spacing:0em;}.cls-28{letter-spacing:0em;}.cls-29{letter-spacing:-0.01em;}.cls-30{letter-spacing:0.05em;}.cls-31{letter-spacing:0.02em;}.cls-32{letter-spacing:-0.03em;}.cls-33{letter-spacing:-0.04em;}.cls-34{letter-spacing:0em;}.cls-35{letter-spacing:-0.01em;}.cls-36{letter-spacing:0.03em;}.cls-37{letter-spacing:-0.02em;}.cls-38{letter-spacing:-0.01em;}.cls-39{letter-spacing:-0.08em;}.cls-40{letter-spacing:0em;}.cls-41{letter-spacing:-0.01em;}.cls-42{letter-spacing:-0.04em;}.cls-43{letter-spacing:-0.08em;}.cls-44{letter-spacing:-0.05em;}.cls-45{letter-spacing:-0.03em;}.cls-46{letter-spacing:0.01em;}.cls-47,.cls-48,.cls-49,.cls-50{fill:none;stroke-miterlimit:10;}.cls-47,.cls-48,.cls-49{stroke:#a9a9a9;}.cls-48{stroke-dasharray:5.02 5.02;}.cls-49{stroke-dasharray:4.96 4.96;}.cls-50{stroke:#1d1d1b;}.cls-52{letter-spacing:0.01em;}.cls-53{letter-spacing:-0.03em;}</style></defs><text class="cls-1" transform="translate(32.82 25.58)">INPUT_I<tspan class="cls-2" x="39.74" y="0">M</tspan><tspan class="cls-3" x="49.27" y="0">A</tspan><tspan x="56.44" y="0">GE:</tspan><tspan x="0" y="14.4" xml:space="preserve">    </tspan><tspan class="cls-4" x="10.18" y="14.4">[</tspan><tspan class="cls-5" x="14.16" y="14.4">T</tspan><tspan class="cls-6" x="19.64" y="14.4">ype: </tspan><tspan class="cls-7" x="43.16" y="14.4">I</tspan><tspan x="46.15" y="14.4">mage file]</tspan></text><text class="cls-1" transform="translate(32.82 770.29)">REFERENCE_POIN<tspan class="cls-8" x="88.64" y="0">T</tspan><tspan x="94.54" y="0">S:</tspan><tspan x="0" y="14.4" xml:space="preserve">    </tspan><tspan class="cls-4" x="10.18" y="14.4">[</tspan><tspan class="cls-5" x="14.16" y="14.4">T</tspan><tspan class="cls-6" x="19.64" y="14.4">ype: </tspan><tspan class="cls-9" x="43.16" y="14.4">P</tspan><tspan x="49.25" y="14.4">oi</tspan><tspan class="cls-10" x="58.64" y="14.4">n</tspan><tspan x="65.25" y="14.4">t]</tspan></text><text class="cls-1" transform="translate(372.5 160.18)"><tspan class="cls-11">C</tspan><tspan x="6.71" y="0">ONVE</tspan><tspan class="cls-12" x="35.47" y="0">R</tspan><tspan x="42.04" y="0">T_</tspan><tspan class="cls-13" x="54" y="0">T</tspan><tspan class="cls-14" x="59.64" y="0">O_G</tspan><tspan class="cls-15" x="81.66" y="0">R</tspan><tspan class="cls-16" x="88.18" y="0">A</tspan><tspan class="cls-17" x="94.57" y="0">Y</tspan><tspan x="100.91" y="0">S</tspan><tspan class="cls-18" x="106.82" y="0">C</tspan><tspan x="113.83" y="0">ALE:</tspan><tspan x="0" y="14.4">input:</tspan><tspan x="0" y="28.8" xml:space="preserve">    </tspan><tspan class="cls-19" x="10.18" y="28.8">I</tspan><tspan x="13.16" y="28.8">mage </tspan><tspan class="cls-4" x="44.22" y="28.8">[</tspan><tspan class="cls-5" x="48.2" y="28.8">T</tspan><tspan x="53.69" y="28.8">ype: </tspan><tspan class="cls-19" x="77.21" y="28.8">I</tspan><tspan x="80.19" y="28.8">mage file]</tspan><tspan x="0" y="43.2">output:</tspan><tspan x="0" y="57.6" xml:space="preserve">    </tspan><tspan class="cls-19" x="10.18" y="57.6">I</tspan><tspan x="13.16" y="57.6">mage </tspan><tspan class="cls-4" x="44.22" y="57.6">[</tspan><tspan class="cls-5" x="48.2" y="57.6">T</tspan><tspan x="53.69" y="57.6">ype: </tspan><tspan class="cls-19" x="77.21" y="57.6">I</tspan><tspan x="80.19" y="57.6">mage]</tspan></text><text class="cls-1" transform="translate(32.82 295.01)"><tspan class="cls-11">C</tspan><tspan x="6.71" y="0">O</tspan><tspan class="cls-20" x="14.98" y="0">L</tspan><tspan x="20.17" y="0">OR_</tspan><tspan class="cls-15" x="40.9" y="0">R</tspan><tspan class="cls-14" x="47.41" y="0">ANGE_D</tspan><tspan class="cls-21" x="90.3" y="0">E</tspan><tspan x="96.4" y="0">TE</tspan><tspan class="cls-22" x="108.26" y="0">C</tspan><tspan x="115.56" y="0">TION:</tspan><tspan x="0" y="14.4">input:</tspan><tspan x="0" y="28.8" xml:space="preserve">    </tspan><tspan class="cls-19" x="10.18" y="28.8">I</tspan><tspan x="13.16" y="28.8">mage </tspan><tspan class="cls-4" x="44.22" y="28.8">[</tspan><tspan class="cls-5" x="48.2" y="28.8">T</tspan><tspan x="53.69" y="28.8">ype: </tspan><tspan class="cls-19" x="77.21" y="28.8">I</tspan><tspan x="80.19" y="28.8">mage file]</tspan><tspan x="0" y="43.2" xml:space="preserve">   </tspan><tspan class="cls-23" x="7.63" y="43.2"> </tspan><tspan class="cls-24" x="9.68" y="43.2">T</tspan><tspan x="14.88" y="43.2">a</tspan><tspan class="cls-25" x="20.66" y="43.2">r</tspan><tspan x="24.49" y="43.2">get_</tspan><tspan class="cls-26" x="47.18" y="43.2">C</tspan><tspan x="54.01" y="43.2">olor </tspan><tspan class="cls-4" x="76.49" y="43.2">[</tspan><tspan class="cls-5" x="80.47" y="43.2">T</tspan><tspan x="85.95" y="43.2">ype: (R: </tspan><tspan class="cls-19" x="124.37" y="43.2">I</tspan><tspan class="cls-27" x="127.35" y="43.2">n</tspan><tspan class="cls-28" x="133.96" y="43.2">t</tspan><tspan x="137.9" y="43.2">, G: </tspan><tspan class="cls-19" x="155.71" y="43.2">I</tspan><tspan class="cls-27" x="158.7" y="43.2">n</tspan><tspan class="cls-28" x="165.31" y="43.2">t</tspan><tspan x="169.24" y="43.2">, B: </tspan><tspan class="cls-19" x="185.8" y="43.2">I</tspan><tspan class="cls-10" x="188.79" y="43.2">n</tspan><tspan x="195.4" y="43.2">t)]</tspan><tspan x="0" y="57.6" xml:space="preserve">   </tspan><tspan class="cls-23" x="7.63" y="57.6"> </tspan><tspan class="cls-29" x="9.68" y="57.6">T</tspan><tspan x="15.56" y="57.6">h</tspan><tspan class="cls-2" x="22.22" y="57.6">r</tspan><tspan x="26.03" y="57.6">eshold </tspan><tspan class="cls-30" x="62.18" y="57.6">[</tspan><tspan class="cls-5" x="66.17" y="57.6">T</tspan><tspan x="71.65" y="57.6">ype: </tspan><tspan class="cls-7" x="95.17" y="57.6">I</tspan><tspan class="cls-10" x="98.16" y="57.6">n</tspan><tspan x="104.77" y="57.6">t]</tspan><tspan x="0" y="72">output:</tspan><tspan x="0" y="86.4" xml:space="preserve">    </tspan><tspan class="cls-19" x="10.18" y="86.4">I</tspan><tspan x="13.16" y="86.4">mage </tspan><tspan class="cls-4" x="44.22" y="86.4">[</tspan><tspan class="cls-5" x="48.2" y="86.4">T</tspan><tspan x="53.69" y="86.4">ype: Bina</tspan><tspan class="cls-31" x="98.96" y="86.4">r</tspan><tspan class="cls-10" x="103.19" y="86.4">y</tspan><tspan x="108.79" y="86.4">-</tspan><tspan class="cls-19" x="112.47" y="86.4">I</tspan><tspan x="115.46" y="86.4">mage]</tspan></text><text class="cls-1" transform="translate(33.23 151.54)">G<tspan class="cls-32" x="7.75" y="0">A</tspan><tspan x="14.76" y="0">USSIAN_B</tspan><tspan class="cls-33" x="64.97" y="0">L</tspan><tspan x="70.2" y="0">UR:</tspan><tspan x="0" y="14.4">input:</tspan><tspan x="0" y="28.8" xml:space="preserve">    </tspan><tspan class="cls-19" x="10.18" y="28.8">I</tspan><tspan x="13.16" y="28.8">mage </tspan><tspan class="cls-4" x="44.22" y="28.8">[</tspan><tspan class="cls-5" x="48.2" y="28.8">T</tspan><tspan x="53.69" y="28.8">ype: </tspan><tspan class="cls-19" x="77.21" y="28.8">I</tspan><tspan x="80.19" y="28.8">mage file]</tspan><tspan x="0" y="43.2" xml:space="preserve">    </tspan><tspan class="cls-34" x="10.18" y="43.2">A</tspan><tspan x="17.48" y="43.2">lpha </tspan><tspan class="cls-30" x="42.13" y="43.2">[</tspan><tspan class="cls-5" x="46.12" y="43.2">T</tspan><tspan x="51.6" y="43.2">ype: </tspan><tspan class="cls-19" x="75.12" y="43.2">I</tspan><tspan class="cls-27" x="78.11" y="43.2">n</tspan><tspan x="84.72" y="43.2">t]</tspan><tspan x="0" y="57.6" xml:space="preserve">    Ke</tspan><tspan class="cls-18" x="22.69" y="57.6">r</tspan><tspan x="26.66" y="57.6">nel_Si</tspan><tspan class="cls-35" x="56.89" y="57.6">z</tspan><tspan x="61.94" y="57.6">e: </tspan><tspan class="cls-30" x="72.98" y="57.6">[</tspan><tspan class="cls-5" x="76.97" y="57.6">T</tspan><tspan x="82.45" y="57.6">ype: (</tspan><tspan class="cls-19" x="109.38" y="57.6">I</tspan><tspan class="cls-27" x="112.37" y="57.6">n</tspan><tspan class="cls-28" x="118.98" y="57.6">t</tspan><tspan x="122.91" y="57.6">, </tspan><tspan class="cls-19" x="127.94" y="57.6">I</tspan><tspan class="cls-27" x="130.93" y="57.6">n</tspan><tspan x="137.54" y="57.6">t)]</tspan><tspan x="0" y="72">output:</tspan><tspan x="0" y="86.4" xml:space="preserve">    </tspan><tspan class="cls-19" x="10.18" y="86.4">I</tspan><tspan x="13.16" y="86.4">mage </tspan><tspan class="cls-4" x="44.22" y="86.4">[</tspan><tspan class="cls-5" x="48.2" y="86.4">T</tspan><tspan x="53.69" y="86.4">ype: </tspan><tspan class="cls-19" x="77.21" y="86.4">I</tspan><tspan x="80.19" y="86.4">mage]</tspan></text><text class="cls-1" transform="translate(372.5 303.65)"><tspan class="cls-11">C</tspan><tspan x="6.71" y="0">ON</tspan><tspan class="cls-13" x="22.87" y="0">T</tspan><tspan x="28.51" y="0">OUR_D</tspan><tspan class="cls-21" x="64.99" y="0">E</tspan><tspan x="71.09" y="0">TE</tspan><tspan class="cls-36" x="82.96" y="0">C</tspan><tspan x="90.25" y="0">TION:</tspan><tspan x="0" y="14.4">input:</tspan><tspan x="0" y="28.8" xml:space="preserve">    </tspan><tspan class="cls-19" x="10.18" y="28.8">I</tspan><tspan x="13.16" y="28.8">mage </tspan><tspan class="cls-4" x="44.22" y="28.8">[</tspan><tspan class="cls-5" x="48.2" y="28.8">T</tspan><tspan x="53.69" y="28.8">ype: </tspan><tspan class="cls-19" x="77.21" y="28.8">I</tspan><tspan x="80.19" y="28.8">mage file]</tspan><tspan x="0" y="43.2" xml:space="preserve">   </tspan><tspan class="cls-23" x="7.63" y="43.2"> </tspan><tspan class="cls-29" x="9.68" y="43.2">T</tspan><tspan x="15.56" y="43.2">h</tspan><tspan class="cls-2" x="22.22" y="43.2">r</tspan><tspan x="26.03" y="43.2">eshold </tspan><tspan class="cls-30" x="62.18" y="43.2">[</tspan><tspan class="cls-5" x="66.17" y="43.2">T</tspan><tspan x="71.65" y="43.2">ype: </tspan><tspan class="cls-7" x="95.17" y="43.2">I</tspan><tspan class="cls-10" x="98.16" y="43.2">n</tspan><tspan x="104.77" y="43.2">t]</tspan><tspan x="0" y="57.6">output:</tspan><tspan x="0" y="72" xml:space="preserve">    </tspan><tspan class="cls-37" x="10.18" y="72">P</tspan><tspan x="16.26" y="72">olylines </tspan><tspan class="cls-4" x="56.94" y="72">[</tspan><tspan class="cls-5" x="60.92" y="72">T</tspan><tspan x="66.41" y="72">ype: </tspan><tspan class="cls-37" x="89.93" y="72">P</tspan><tspan x="96.01" y="72">oi</tspan><tspan class="cls-10" x="105.41" y="72">n</tspan><tspan class="cls-38" x="112.02" y="72">t</tspan><tspan x="115.93" y="72">-List]</tspan></text><text class="cls-1" transform="translate(32.82 420.31)"><tspan class="cls-11">C</tspan><tspan x="6.71" y="0">ON</tspan><tspan class="cls-13" x="22.87" y="0">T</tspan><tspan x="28.51" y="0">OUR_D</tspan><tspan class="cls-21" x="64.99" y="0">E</tspan><tspan x="71.09" y="0">TE</tspan><tspan class="cls-36" x="82.96" y="0">C</tspan><tspan x="90.25" y="0">TION:</tspan><tspan x="0" y="14.4">input:</tspan><tspan x="0" y="28.8" xml:space="preserve">    </tspan><tspan class="cls-19" x="10.18" y="28.8">I</tspan><tspan x="13.16" y="28.8">mage </tspan><tspan class="cls-4" x="44.22" y="28.8">[</tspan><tspan class="cls-5" x="48.2" y="28.8">T</tspan><tspan x="53.69" y="28.8">ype: </tspan><tspan class="cls-19" x="77.21" y="28.8">I</tspan><tspan x="80.19" y="28.8">mage file]</tspan><tspan x="0" y="43.2" xml:space="preserve">   </tspan><tspan class="cls-23" x="7.63" y="43.2"> </tspan><tspan class="cls-29" x="9.68" y="43.2">T</tspan><tspan x="15.56" y="43.2">h</tspan><tspan class="cls-2" x="22.22" y="43.2">r</tspan><tspan x="26.03" y="43.2">eshold </tspan><tspan class="cls-30" x="62.18" y="43.2">[</tspan><tspan class="cls-5" x="66.17" y="43.2">T</tspan><tspan x="71.65" y="43.2">ype: </tspan><tspan class="cls-7" x="95.17" y="43.2">I</tspan><tspan class="cls-10" x="98.16" y="43.2">n</tspan><tspan x="104.77" y="43.2">t]</tspan><tspan x="0" y="57.6">output:</tspan><tspan x="0" y="72" xml:space="preserve">    </tspan><tspan class="cls-37" x="10.18" y="72">P</tspan><tspan x="16.26" y="72">olylines </tspan><tspan class="cls-4" x="56.94" y="72">[</tspan><tspan class="cls-5" x="60.92" y="72">T</tspan><tspan x="66.41" y="72">ype: </tspan><tspan class="cls-37" x="89.93" y="72">P</tspan><tspan x="96.01" y="72">oi</tspan><tspan class="cls-10" x="105.41" y="72">n</tspan><tspan class="cls-38" x="112.02" y="72">t</tspan><tspan x="115.93" y="72">-List]</tspan></text><text class="cls-1" transform="translate(32.82 536.97)">BOUNDING_B<tspan class="cls-13" x="69.44" y="0">O</tspan><tspan x="77.39" y="0">X_CENTER_</tspan><tspan class="cls-18" x="135.32" y="0">C</tspan><tspan x="142.33" y="0">A</tspan><tspan class="cls-20" x="149.68" y="0">L</tspan><tspan x="154.87" y="0">CUL</tspan><tspan class="cls-39" x="175.26" y="0">A</tspan><tspan x="181.68" y="0">TION:</tspan><tspan x="0" y="14.4">input:</tspan><tspan x="0" y="28.8" xml:space="preserve">    </tspan><tspan class="cls-37" x="10.18" y="28.8">P</tspan><tspan x="16.26" y="28.8">olyline </tspan><tspan class="cls-4" x="52.19" y="28.8">[</tspan><tspan class="cls-5" x="56.17" y="28.8">T</tspan><tspan x="61.66" y="28.8">ype: </tspan><tspan class="cls-37" x="85.17" y="28.8">P</tspan><tspan x="91.26" y="28.8">oi</tspan><tspan class="cls-10" x="100.65" y="28.8">n</tspan><tspan class="cls-38" x="107.27" y="28.8">t</tspan><tspan x="111.18" y="28.8">-List]</tspan><tspan x="0" y="43.2">output:</tspan><tspan x="0" y="57.6" xml:space="preserve">    </tspan><tspan class="cls-18" x="10.18" y="57.6">B</tspan><tspan x="16.73" y="57.6">ounding-</tspan><tspan class="cls-40" x="63.22" y="57.6">B</tspan><tspan class="cls-41" x="69.77" y="57.6">o</tspan><tspan x="76.19" y="57.6">x </tspan><tspan class="cls-26" x="84.29" y="57.6">C</tspan><tspan x="91.12" y="57.6">e</tspan><tspan class="cls-27" x="97.13" y="57.6">n</tspan><tspan class="cls-8" x="103.74" y="57.6">t</tspan><tspan x="107.64" y="57.6">er </tspan><tspan class="cls-4" x="120.12" y="57.6">[</tspan><tspan class="cls-42" x="124.1" y="57.6">T</tspan><tspan class="cls-14" x="129.59" y="57.6">ype: </tspan><tspan class="cls-37" x="153.11" y="57.6">P</tspan><tspan x="159.19" y="57.6">oi</tspan><tspan class="cls-10" x="168.59" y="57.6">n</tspan><tspan x="175.2" y="57.6">t]</tspan></text><text class="cls-1" transform="translate(32.82 653.63)">T<tspan class="cls-15" x="5.96" y="0">R</tspan><tspan x="12.48" y="0">ANSFOR</tspan><tspan class="cls-2" x="54.2" y="0">M</tspan><tspan class="cls-43" x="63.73" y="0">A</tspan><tspan x="70.15" y="0">TION:</tspan><tspan x="0" y="14.4">input:</tspan><tspan x="0" y="28.8" xml:space="preserve">    </tspan><tspan class="cls-37" x="10.18" y="28.8">P</tspan><tspan x="16.26" y="28.8">oi</tspan><tspan class="cls-10" x="25.66" y="28.8">n</tspan><tspan x="32.27" y="28.8">ts</tspan><tspan class="cls-4" x="40.99" y="28.8">[</tspan><tspan class="cls-5" x="44.98" y="28.8">T</tspan><tspan x="50.46" y="28.8">ype: </tspan><tspan class="cls-37" x="73.98" y="28.8">P</tspan><tspan x="80.06" y="28.8">oi</tspan><tspan class="cls-10" x="89.46" y="28.8">n</tspan><tspan class="cls-38" x="96.07" y="28.8">t</tspan><tspan x="99.98" y="28.8">-List]</tspan><tspan x="0" y="43.2">output:</tspan><tspan x="0" y="57.6" xml:space="preserve">   </tspan><tspan class="cls-23" x="7.63" y="57.6"> </tspan><tspan class="cls-44" x="9.68" y="57.6">T</tspan><tspan class="cls-38" x="15.11" y="57.6">r</tspan><tspan x="18.97" y="57.6">ans</tspan><tspan class="cls-17" x="36.17" y="57.6">f</tspan><tspan x="39.52" y="57.6">o</tspan><tspan class="cls-18" x="46.1" y="57.6">r</tspan><tspan x="50.08" y="57.6">m</tspan><tspan class="cls-10" x="60.08" y="57.6">a</tspan><tspan x="65.82" y="57.6">tion </tspan><tspan class="cls-4" x="88.39" y="57.6">[</tspan><tspan class="cls-42" x="92.38" y="57.6">T</tspan><tspan x="97.86" y="57.6">ype: X</tspan><tspan class="cls-45" x="128.23" y="57.6">F</tspan><tspan x="133.7" y="57.6">o</tspan><tspan class="cls-18" x="140.29" y="57.6">r</tspan><tspan x="144.26" y="57.6">m-</tspan><tspan class="cls-46" x="157.95" y="57.6">M</tspan><tspan class="cls-27" x="167.67" y="57.6">a</tspan><tspan x="173.41" y="57.6">t</tspan><tspan class="cls-40" x="177.38" y="57.6">r</tspan><tspan x="181.35" y="57.6">ix]</tspan></text><text class="cls-1" transform="translate(372.5 753.63)">T<tspan class="cls-15" x="5.96" y="0">R</tspan><tspan x="12.48" y="0">ANSFORM:</tspan><tspan x="0" y="14.4">input:</tspan><tspan x="0" y="28.8" xml:space="preserve">    </tspan><tspan class="cls-37" x="10.18" y="28.8">P</tspan><tspan x="16.26" y="28.8">olylines </tspan><tspan class="cls-4" x="56.94" y="28.8">[</tspan><tspan class="cls-5" x="60.92" y="28.8">T</tspan><tspan x="66.41" y="28.8">ype: </tspan><tspan class="cls-37" x="89.93" y="28.8">P</tspan><tspan x="96.01" y="28.8">oi</tspan><tspan class="cls-10" x="105.41" y="28.8">n</tspan><tspan class="cls-38" x="112.02" y="28.8">t</tspan><tspan x="115.93" y="28.8">-List]</tspan><tspan x="0" y="43.2">output:</tspan><tspan x="0" y="57.6" xml:space="preserve">    </tspan><tspan class="cls-37" x="10.18" y="57.6">P</tspan><tspan x="16.26" y="57.6">olylines </tspan><tspan class="cls-4" x="56.94" y="57.6">[</tspan><tspan class="cls-5" x="60.92" y="57.6">T</tspan><tspan x="66.41" y="57.6">ype: </tspan><tspan class="cls-37" x="89.93" y="57.6">P</tspan><tspan x="96.01" y="57.6">oi</tspan><tspan class="cls-10" x="105.41" y="57.6">n</tspan><tspan class="cls-38" x="112.02" y="57.6">t</tspan><tspan x="115.93" y="57.6">-List]</tspan></text><line class="cls-47" x1="32.82" y1="121.47" x2="35.32" y2="121.47"/><line class="cls-48" x1="40.34" y1="121.47" x2="590.26" y2="121.47"/><line class="cls-47" x1="592.78" y1="121.47" x2="595.28" y2="121.47"/><line class="cls-47" x1="32.82" y1="261.63" x2="35.32" y2="261.63"/><line class="cls-48" x1="40.34" y1="261.63" x2="590.26" y2="261.63"/><line class="cls-47" x1="592.78" y1="261.63" x2="595.28" y2="261.63"/><line class="cls-47" x1="314.05" y1="273.61" x2="314.05" y2="276.11"/><line class="cls-49" x1="314.05" y1="281.08" x2="314.05" y2="725.34"/><line class="cls-47" x1="314.05" y1="727.83" x2="314.05" y2="730.33"/><line class="cls-50" x1="88.72" y1="105.85" x2="88.72" y2="127.76"/><polygon class="cls-51" points="94.8 126.95 82.64 126.95 88.72 133.02 94.8 126.95"/><line class="cls-50" x1="88.72" y1="44.85" x2="88.72" y2="61.98"/><polygon class="cls-51" points="94.8 61.17 82.64 61.17 88.72 67.24 94.8 61.17"/><line class="cls-50" x1="171.73" y1="194.27" x2="360.38" y2="194.27"/><polygon class="cls-51" points="359.57 188.19 359.57 200.34 365.64 194.27 359.57 188.19"/><line class="cls-50" x1="433.09" y1="235.52" x2="433.09" y2="281.23"/><polygon class="cls-51" points="439.17 280.42 427.02 280.42 433.09 286.49 439.17 280.42"/><line class="cls-50" x1="88.72" y1="245.52" x2="88.72" y2="276.23"/><polygon class="cls-51" points="94.8 275.42 82.64 275.42 88.72 281.49 94.8 275.42"/><line class="cls-50" x1="433.09" y1="388.99" x2="433.09" y2="733.72"/><polygon class="cls-51" points="439.17 732.91 427.02 732.91 433.09 738.98 439.17 732.91"/><line class="cls-50" x1="88.72" y1="388.99" x2="88.72" y2="406.53"/><polygon class="cls-51" points="94.8 405.72 82.64 405.72 88.72 411.79 94.8 405.72"/><line class="cls-50" x1="88.72" y1="497.97" x2="88.72" y2="519.19"/><polygon class="cls-51" points="94.8 518.38 82.64 518.38 88.72 524.45 94.8 518.38"/><line class="cls-50" x1="88.72" y1="599.58" x2="88.72" y2="635.85"/><polygon class="cls-51" points="94.8 635.04 82.64 635.04 88.72 641.11 94.8 635.04"/><line class="cls-50" x1="88.72" y1="756.95" x2="88.72" y2="726.73"/><polygon class="cls-51" points="82.64 727.54 94.8 727.54 88.72 721.47 82.64 727.54"/><polyline class="cls-50" points="134.21 649.56 407.96 649.56 407.96 733.73"/><polygon class="cls-51" points="414.03 732.91 401.88 732.91 407.96 738.98 414.03 732.91"/><text class="cls-1" transform="translate(27.92 79.96)">UN-DIS<tspan class="cls-13" x="36.12" y="0">T</tspan><tspan x="41.76" y="0">O</tspan><tspan class="cls-52" x="50.03" y="0">R</tspan><tspan class="cls-53" x="56.59" y="0">T</tspan><tspan x="62.24" y="0">:</tspan><tspan x="0" y="14.4" xml:space="preserve">    </tspan><tspan class="cls-4" x="10.18" y="14.4">[</tspan><tspan class="cls-5" x="14.16" y="14.4">T</tspan><tspan class="cls-6" x="19.64" y="14.4">ype: </tspan><tspan class="cls-7" x="43.16" y="14.4">I</tspan><tspan x="46.15" y="14.4">mage file]</tspan></text></svg>